<?xml version="1.0" encoding="UTF-8" standalone="no"?>
<!-- Created with Inkscape (http://www.inkscape.org/) -->

<svg
   xmlns:dc="http://purl.org/dc/elements/1.1/"
   xmlns:cc="http://creativecommons.org/ns#"
   xmlns:rdf="http://www.w3.org/1999/02/22-rdf-syntax-ns#"
   xmlns:svg="http://www.w3.org/2000/svg"
   xmlns="http://www.w3.org/2000/svg"
   xmlns:sodipodi="http://sodipodi.sourceforge.net/DTD/sodipodi-0.dtd"
   xmlns:inkscape="http://www.inkscape.org/namespaces/inkscape"
   id="svg2"
   version="1.1"
   inkscape:version="0.47 r22583"
   width="266.95023"
   height="240.56081"
   sodipodi:docname="logo-1yr v2.svg"
   inkscape:export-filename="/home/gg/logo-1yr-v2.png"
   inkscape:export-xdpi="32.365585"
   inkscape:export-ydpi="32.365585">
  <metadata
     id="metadata8">
    <rdf:RDF>
      <cc:Work
         rdf:about="">
        <dc:format>image/svg+xml</dc:format>
        <dc:type
           rdf:resource="http://purl.org/dc/dcmitype/StillImage" />
        <dc:title></dc:title>
      </cc:Work>
    </rdf:RDF>
  </metadata>
  <defs
     id="defs6">
    <inkscape:perspective
       sodipodi:type="inkscape:persp3d"
       inkscape:vp_x="0 : 0.5 : 1"
       inkscape:vp_y="0 : 1000 : 0"
       inkscape:vp_z="1 : 0.5 : 1"
       inkscape:persp3d-origin="0.5 : 0.33333333 : 1"
       id="perspective10" />
    <inkscape:perspective
       id="perspective3733"
       inkscape:persp3d-origin="0.5 : 0.33333333 : 1"
       inkscape:vp_z="1 : 0.5 : 1"
       inkscape:vp_y="0 : 1000 : 0"
       inkscape:vp_x="0 : 0.5 : 1"
       sodipodi:type="inkscape:persp3d" />
    <inkscape:perspective
       id="perspective3770"
       inkscape:persp3d-origin="0.5 : 0.33333333 : 1"
       inkscape:vp_z="1 : 0.5 : 1"
       inkscape:vp_y="0 : 1000 : 0"
       inkscape:vp_x="0 : 0.5 : 1"
       sodipodi:type="inkscape:persp3d" />
    <inkscape:perspective
       id="perspective3846"
       inkscape:persp3d-origin="0.5 : 0.33333333 : 1"
       inkscape:vp_z="1 : 0.5 : 1"
       inkscape:vp_y="0 : 1000 : 0"
       inkscape:vp_x="0 : 0.5 : 1"
       sodipodi:type="inkscape:persp3d" />
  </defs>
  <sodipodi:namedview
     pagecolor="#ffffff"
     bordercolor="#666666"
     borderopacity="1"
     objecttolerance="10"
     gridtolerance="10"
     guidetolerance="10"
     inkscape:pageopacity="0"
     inkscape:pageshadow="2"
     inkscape:window-width="1680"
     inkscape:window-height="975"
     id="namedview4"
     showgrid="false"
     inkscape:zoom="0.31313131"
     inkscape:cx="-1093.2561"
     inkscape:cy="125.20577"
     inkscape:window-x="0"
     inkscape:window-y="24"
     inkscape:window-maximized="1"
     inkscape:current-layer="layer3" />
  <g
     inkscape:groupmode="layer"
     id="layer2"
     inkscape:label="Réteg"
     style="display:inline"
     transform="translate(-72.019241,-79.257957)">
    <path
       style="fill:#1f2a43;fill-opacity:1"
       d="m 268.29654,79.26656 c -8.46665,0.138318 -17.05507,1.922122 -24.46875,4.65625 -14.43151,6.038043 -30.77717,11.20904 -40.34376,22.6875 -8.60298,9.81294 -11.05172,27.24773 -27.84375,29.5625 -17.66701,1.92833 -11.17177,5.93051 -28.71875,0.34375 -8.2221,-2.80687 -22.66169,-7.36732 -20.3125,-0.6875 7.53733,21.43206 28.38786,51.20915 37.44648,47.77226 3.60075,-8.81508 6.78917,-21.07427 12.05352,-29.30351 6.1701,-6.87791 11.06992,-19.87477 22.21875,-20.1875 8.74561,7.14077 15.1637,23.50958 31.12501,15.21875 13.13258,-6.82622 19.88736,-23.89734 12.90625,-35.5 -19.19724,-2.10512 -2.73857,-21.74507 9.40625,-24.34375 15.78247,-1.625277 40.31671,-4.258655 45.5625,12.75 6.63856,34.55297 -0.21367,69.47397 -6.1875,103.71874 5.69241,16.47234 16.43936,31.29631 28,45.3125 8.89131,10.0022 18.98509,25.64636 7.09375,36.75 -20.70896,6.61677 -43.3753,5.74937 -65.03125,3.84375 -13.53038,-1.89971 -31.56238,2.73898 -40.90626,-8.15625 -4.51591,-13.46928 -12.00218,5.40717 -13.4375,10.90625 -5.39583,13.84838 -17.04825,1.30943 -13.03125,-7.34375 2.62681,-5.54841 1.52673,-28.41525 -7.1875,-14.46875 -12.9327,10.14333 -16.92281,-20.37266 -31.4375,-12.0625 -3.05923,10.74977 -11.38284,20.66911 -23.28125,25.75 -11.44796,4.89048 -54.285336,-1.71871 -22.78125,-9.15625 17.45826,-19.57605 17.86715,-44.77817 7.875,-66.96875 -3.80324,-14.07517 -23.640776,-26.95963 -28.968746,-40.40624 0.486629,-7.96046 23.004996,-2.3187 30.281246,0.71875 9.75378,3.51887 17.807,10.02944 22.15625,17.87499 7.22491,3.37248 23.4443,-0.56545 22.59851,-4.39522 -0.84579,-3.82977 -18.75649,-7.56502 -22.75476,-8.88602 -14.682,-13.30365 -45.887892,-24.47071 -65.062496,-14.09375 -13.449353,12.27547 18.904863,24.90994 24.1875,35.68749 18.840266,18.85375 22.106466,46.23419 11.156246,68.625 -2.77181,11.81799 -25.055853,8.89857 -30.312496,17.53125 2.370362,14.47287 31.198436,19.27283 44.312496,17.84375 18.90029,-0.0467 25.78822,-16.92037 41.0625,-21.96875 22.11374,-0.84741 20.00632,20.13383 18.25,32.71875 5.34463,19.83549 27.56382,-12.98971 33.8125,2.8125 -2.17816,10.06135 13.63839,3.54674 17.68751,0.4375 8.03147,-12.70858 26.24302,-10.57964 40.65625,-9.90625 16.32933,-2.26573 33.52042,2.58173 49.28125,-2.625 15.50833,-5.5112 15.50053,-22.57642 11.03125,-34.09375 -6.26774,-21.73954 -29.56459,-36.82055 -34.53125,-58.875 0.56179,-24.71249 6.45655,-49.26794 6.6875,-74.06249 -0.44666,-15.79433 1.04523,-33.56028 -10.9375,-46.875 -7.74993,-6.770402 -18.42681,-9.334087 -29.3125,-9.15625 z m 16.90625,32.59375 c -19.33712,3.09222 -40.75321,33.68559 -47.53125,45.03125 -16.1597,18.27153 -30.81781,32.86705 -40.87501,49.71874 4.84153,14.55547 35.05631,33.61215 45.87501,45.15625 15.94101,13.9742 44.10682,42.72175 69.125,30.6875 8.91527,2.511 10.56945,-6.35943 8.625,-11.4375 -10.78834,-22.64699 -31.63107,-41.56224 -38.25,-65.75 2.23047,-18.28157 6.68983,-36.33382 8.5,-54.65624 -1.46345,-11.20498 8.19982,-30.76485 -5.46875,-38.75 z m -56.09375,8.28125 c 4.4367,-0.0578 8.43521,3.24361 5.5625,11.78125 -0.73048,1.62869 -9.61476,2.20861 -11.21875,1.15625 -6.48239,-7.21127 -0.0481,-12.86313 5.65625,-12.9375 z m -15.78126,1.0625 c 4.88924,0.31126 -2.62963,19.89927 7,21.25 -9.09309,-1.42876 -17.06363,-11.90795 -11.15625,-19.21875 1.94396,-1.50423 3.25084,-2.08889 4.15625,-2.03125 z"
       id="path2820"
       sodipodi:nodetypes="cccccsccccccccccccccccccccccscccccccccccccccccccccccccccccccccc" />
    <path
       style="fill:#ced6e8;fill-opacity:1;stroke:none"
       d="m 266.21875,86.71875 c -9.11204,0.410495 -19.29528,0.382803 -26.0625,7.34375 -4.82625,3.993051 -11.40692,12.14773 -6.03125,18.1875 2.29478,3.03978 7.87553,1.41241 8.28125,5.84375 3.68947,12.42018 -4.66461,26.32981 -16.4375,30.75 -5.96796,1.91889 -12.23133,-0.1953 -16.09375,-5.03125 -4.66415,-3.33555 -7.29097,-11.49779 -13.96875,-11.03125 -10.40216,2.21065 -15.1182,13.47277 -21.21875,20.96875 -6.19486,9.55156 -8.15432,21.79737 -13.875,31.21875 -5.6023,2.61583 -12.71354,4.15301 -18.71875,2.125 -8.21497,-11.58398 -21.31238,-18.99244 -35.21875,-21.40625 -6.4394,-0.83945 -15.642609,-3.7958 -20.1875,2.4375 -0.246228,6.20874 5.578096,10.92764 8.8125,15.6875 8.96667,10.1009 18.9557,20.10899 22.35229,33.60332 6.59036,18.09618 5.11996,39.43109 -6.85229,54.83418 -2.73099,6.22859 -12.226499,3.89121 -14.71875,10.09375 0.7174,5.7379 8.52066,5.61216 12.90625,6.6875 8.96303,0.54271 18.96015,2.43654 26.78125,-2.9375 9.87969,-4.87357 16.68976,-14.05921 20.9375,-23.8125 4.99434,-4.11943 10.00626,3.05447 13.1875,6.0625 3.73086,4.12595 9.79762,11.19369 15.8125,6.6875 2.02605,-0.80381 4.03802,-5.27345 5.8125,-4.3125 3.33475,6.89057 0.0654,14.65697 -0.25,21.71875 0.56031,5.52566 6.71882,13.15607 12.53125,8.71875 6.58535,-5.02433 5.43485,-15.66734 12.375,-20.34375 2.8678,4.12778 6.30762,8.46875 11.59375,9.875 14.67518,3.8479 30.30169,1.86471 45.34241,3.70791 17.75548,0.64905 36.28709,1.15824 53.12634,-5.11416 9.61643,-6.05343 7.45245,-20.10286 1.79538,-28.23092 -11.90629,-17.64472 -27.63481,-33.22274 -34.63913,-53.80033 -0.0526,-12.82529 4.08047,-25.47572 5.33138,-38.28985 2.90239,-20.48226 3.11747,-41.60938 0.9824,-62.16682 -0.61614,-9.945089 -8.95727,-17.757996 -18.62628,-19.04333 -4.95449,-0.995881 -10.01771,-1.159077 -15.0625,-1.03125 z m 18.375,27.0625 c 8.07701,4.16221 6.07806,15.06993 5.45555,22.5529 -1.35581,17.09141 -3.59511,34.06412 -6.78741,50.97116 -1.13958,8.78643 -4.74643,18.31623 0.20686,26.63219 9.11532,21.28721 26.44746,38.33227 35.78125,59.40625 1.08242,4.22046 -1.86163,8.96484 -6.65625,7.75 -9.88973,2.79217 -20.94575,3.43805 -30.21875,-1.6875 -22.89207,-11.3409 -39.56907,-31.53866 -59.58043,-46.93267 -8.64138,-7.82571 -19.06812,-14.74656 -23.95082,-25.72358 13.74179,-22.56402 34.83794,-39.89112 49.2875,-62.175 9.74109,-12.12965 20.40384,-25.78549 35.93125,-30.7625 0.17799,0.0114 0.35362,-0.034 0.53125,-0.0312 z"
       id="path3863" />
    <path
       style="fill:#ffffff;fill-opacity:1;stroke:none"
       d="m 228.4375,118.40625 c -6.16561,0.15527 -11.88522,7.01855 -8.34375,12.84375 2.30863,5.84696 9.81457,4.30522 14.5,2.8125 5.31895,-4.48292 2.65961,-16.02927 -5.21875,-15.65625 -0.30943,-0.0494 -0.62778,-0.0416 -0.9375,0 z"
       id="path3867" />
    <path
       style="fill:#ffffff;fill-opacity:1;stroke:none"
       d="m 212.4375,119.6875 c -8.53208,1.79896 -8.80606,13.82215 -2.75,18.65625 1.82506,2.35696 7.73923,7.11446 8.6875,1.875 -2.96606,-6.13294 0.0626,-13.67515 -2.71875,-19.625 -0.85054,-0.82614 -2.04044,-1.13227 -3.21875,-0.90625 z"
       id="path3869" />
  </g>
  <g
     inkscape:groupmode="layer"
     id="layer4"
     inkscape:label="Réteg#2" />
  <g
     inkscape:groupmode="layer"
     id="layer1"
     inkscape:label="halbelső"
     style="display:inline"
     transform="translate(-72.019241,-79.257957)">
    <path
       style="fill:#48629e;fill-opacity:1;stroke:none"
       d="m 197.20278,139.86031 c -8.39039,6.13845 -15.57015,14.1381 -21.0625,23 -3.34339,10.49324 -7.83197,20.56708 -14.96875,28.96874 -1.68812,5.47837 -0.83048,14.52742 -7.96875,16.3125 -5.88063,-0.65391 -8.50822,-7.71032 -12.57719,-11.27785 -9.01125,-11.19427 -22.25285,-24.00898 -37.89156,-21.00339 3.67938,8.97286 11.10553,15.87717 15.3125,24.62499 12.48686,21.13113 15.45351,48.75306 4.27956,71.06926 -1.51228,3.40079 -5.57175,6.23006 -6.53774,9.8037 12.03317,0.45242 26.14469,-5.41202 31.28943,-16.56046 3.83316,-5.74735 4.18577,-14.51752 10.53125,-18.25 6.11385,-1.40735 6.95025,6.78749 10.03125,10.0625 3.68245,4.07123 8.66438,10.20385 14.6875,9.3125 1.40416,-3.84357 4.18178,-11.19651 9.625,-8.34375 6.91414,5.72597 7.18937,15.94158 7.84375,24.28125 0.43227,3.0825 -0.15671,8.74834 0.90625,10.4375 6.51402,-7.37243 6.83841,-19.40058 15.53125,-24.78125 5.20392,-2.34692 7.9709,4.40589 7.53126,8.59375 -0.11513,4.25119 -0.063,9.74858 5.125,10.71875 14.81815,3.45652 30.76447,1.16496 45.71875,-0.46875 2.47764,-0.9358 -2.22061,-3.42469 -3.125,-4.46875 -18.76825,-12.34426 -39.13387,-22.35909 -55.62501,-37.84375 -10.41135,-9.62995 -21.94211,-19.23518 -27.5625,-32.59375 -2.49177,-8.14955 4.51791,-15.428 8.25,-21.90625 8.25193,-11.72649 17.61509,-22.67349 27.21876,-33.34374 -9.4987,1.56231 -20.70302,-2.50528 -23.62501,-12.40625 -0.53819,-1.49381 -1.3037,-3.4686 -2.9375,-3.9375 z"
       id="path3669-1-0"
       sodipodi:nodetypes="ccccccccccccccccccccccccccc" />
    <path
       style="fill:#48629e;fill-opacity:1;stroke:none"
       d="m 269.48404,96.079063 c -8.65899,0.9995 -18.36461,1.05601 -26,5.593747 -2.22083,4.32942 4.54764,7.18291 5.125,11.28125 1.67092,5.3858 0.69234,11.16321 0.375,16.6875 11.50687,-11.04936 23.29052,-22.26303 37.1875,-30.249997 -5.21083,-2.31794 -10.84311,-3.73234 -16.6875,-3.3125 z"
       id="path3677-0-9" />
  </g>
  <g
     inkscape:groupmode="layer"
     id="layer3"
     inkscape:label="Réteg#1">
    <flowRoot
       xml:space="preserve"
       id="flowRoot2824"
       style="font-size:144px;font-style:normal;font-variant:normal;font-weight:bold;font-stretch:normal;fill:#ffd22f;fill-opacity:1;stroke:#000000;stroke-width:3.80278634999999987;stroke-miterlimit:4;stroke-opacity:1;stroke-dasharray:none;font-family:Impact;-inkscape-font-specification:Impact Bold"
       transform="matrix(1.1416855,0,0,0.89577995,-98.980462,83.076332)"><flowRegion
         id="flowRegion2826"><rect
           id="rect2828"
           width="106.18549"
           height="179.6371"
           x="88.620972"
           y="24.597095"
           style="font-size:144px;font-style:normal;font-variant:normal;font-weight:bold;font-stretch:normal;fill:#ffd22f;fill-opacity:1;stroke:#000000;stroke-width:3.80278634999999987;stroke-miterlimit:4;stroke-opacity:1;stroke-dasharray:none;font-family:Impact;-inkscape-font-specification:Impact Bold" /></flowRegion><flowPara
         id="flowPara2830">1</flowPara></flowRoot>    <text
       xml:space="preserve"
       style="font-size:104.19181824000000347px;font-style:normal;font-weight:bold;writing-mode:lr-tb;fill:#ffffff;fill-opacity:1;stroke:#000000;stroke-width:2.99831580999999980;stroke-miterlimit:4;stroke-opacity:1;stroke-dasharray:none;font-family:Bitstream Vera Sans;-inkscape-font-specification:Andale Mono Bold"
       x="83.907799"
       y="161.92673"
       id="text3604"
       transform="scale(0.76949028,1.2995616)"><tspan
         sodipodi:role="line"
         id="tspan3606"
         x="83.907799"
         y="161.92673"
         style="font-weight:bold;fill:#ffffff;fill-opacity:1;stroke:#000000;stroke-width:2.99831580999999980;stroke-miterlimit:4;stroke-opacity:1;stroke-dasharray:none;-inkscape-font-specification:Andale Mono Bold">year</tspan></text>
  </g>
</svg>
