<?xml version="1.0" encoding="UTF-8" standalone="no"?>
<!-- Created with Inkscape (http://www.inkscape.org/) -->

<svg
   xmlns:dc="http://purl.org/dc/elements/1.1/"
   xmlns:cc="http://creativecommons.org/ns#"
   xmlns:rdf="http://www.w3.org/1999/02/22-rdf-syntax-ns#"
   xmlns:svg="http://www.w3.org/2000/svg"
   xmlns="http://www.w3.org/2000/svg"
   xmlns:sodipodi="http://sodipodi.sourceforge.net/DTD/sodipodi-0.dtd"
   xmlns:inkscape="http://www.inkscape.org/namespaces/inkscape"
   width="48"
   height="48"
   id="svg2432"
   sodipodi:version="0.32"
   inkscape:version="0.48.5 r10040"
   sodipodi:docname="pagavcs-applypatch.svg"
   inkscape:output_extension="org.inkscape.output.svg.inkscape"
   version="1.0">
  <defs
     id="defs2434">
    <inkscape:perspective
       sodipodi:type="inkscape:persp3d"
       inkscape:vp_x="0 : 526.18109 : 1"
       inkscape:vp_y="0 : 1000 : 0"
       inkscape:vp_z="744.09448 : 526.18109 : 1"
       inkscape:persp3d-origin="372.04724 : 350.78739 : 1"
       id="perspective2440" />
  </defs>
  <sodipodi:namedview
     id="base"
     pagecolor="#ffffff"
     bordercolor="#666666"
     borderopacity="0"
     gridtolerance="10000"
     guidetolerance="10"
     objecttolerance="10"
     inkscape:pageopacity="0.0"
     inkscape:pageshadow="2"
     inkscape:zoom="3.0974036"
     inkscape:cx="-97.067547"
     inkscape:cy="-11.090883"
     inkscape:document-units="px"
     inkscape:current-layer="layer1"
     showgrid="false"
     inkscape:window-width="1440"
     inkscape:window-height="825"
     inkscape:window-x="59"
     inkscape:window-y="34"
     inkscape:showpageshadow="false"
     inkscape:window-maximized="0" />
  <metadata
     id="metadata2437">
    <rdf:RDF>
      <cc:Work
         rdf:about="">
        <dc:format>image/svg+xml</dc:format>
        <dc:type
           rdf:resource="http://purl.org/dc/dcmitype/StillImage" />
      </cc:Work>
    </rdf:RDF>
  </metadata>
  <g
     inkscape:label="Layer 1"
     inkscape:groupmode="layer"
     id="layer1">
    <path
       inkscape:connector-curvature="0"
       style="fill:#ff6600;fill-opacity:1;fill-rule:evenodd;stroke:#343434;stroke-width:1.00662088000000005;stroke-linecap:round;stroke-linejoin:round;stroke-miterlimit:4;stroke-opacity:1;stroke-dashoffset:0;marker:none;visibility:visible;display:inline;overflow:visible"
       d="m 10.962534,20.287395 c -2.4717479,-2.426622 -1.1955894,-5.825133 0.265745,-7.238081 1.511115,-1.461078 5.156419,-2.319729 7.114534,-0.167628 l 17.021572,17.080217 c 2.39569,2.417464 0.734223,5.69555 -0.399866,6.83756 -1.481476,1.491823 -4.654632,2.648457 -6.980414,0.568152 L 10.962534,20.287395 z"
       id="rect3026"
       sodipodi:nodetypes="csccscc" />
    <path
       inkscape:connector-curvature="0"
       style="fill:#ff6600;fill-opacity:1;fill-rule:evenodd;stroke:#343434;stroke-width:1.00662088000000005;stroke-linecap:round;stroke-linejoin:round;stroke-miterlimit:4;stroke-opacity:1;stroke-dashoffset:0;marker:none;visibility:visible;display:inline;overflow:visible"
       d="m 10.89904,29.792515 c -2.471748,2.426622 -1.1955894,5.825133 0.265745,7.23808 1.511115,1.461079 5.156419,2.31973 7.114534,0.167629 L 35.300891,20.118006 c 2.39569,-2.417463 0.734223,-5.695549 -0.399866,-6.837559 -1.481476,-1.491824 -4.654632,-2.648458 -6.980414,-0.568152 L 10.89904,29.792515 z"
       id="path2445"
       sodipodi:nodetypes="csccscc" />
    <path
       inkscape:connector-curvature="0"
       style="fill:#a0a0a0;stroke:none"
       d="m 13.294134,21.878054 c -1.420257,-1.432744 -2.424691,-2.491701 -2.556899,-2.695693 -0.505516,-0.779989 -0.723426,-1.762146 -0.599011,-2.699838 0.129558,-0.976429 0.568758,-2.006212 1.169291,-2.741609 0.578297,-0.708167 1.676713,-1.297096 2.837397,-1.521308 0.619568,-0.119684 1.565278,-0.104919 2.100996,0.0328 0.953026,0.244997 1.000941,0.283458 3.659315,2.93723 l 2.408901,2.404733 -3.309942,3.321705 c -1.820467,1.826936 -3.323656,3.321702 -3.340418,3.321702 -0.01676,0 -1.083096,-1.061874 -2.36963,-2.359721 z"
       id="path2447" />
    <path
       inkscape:connector-curvature="0"
       style="fill:#008000"
       d="m 13.37851,21.906313 c -1.237589,-1.251215 -2.343099,-2.390278 -2.456685,-2.531251 -0.823196,-1.021664 -0.99917,-2.539233 -0.466327,-4.021489 0.599862,-1.668684 1.678525,-2.621494 3.453591,-3.050644 0.94294,-0.227969 2.32062,-0.13643 2.97808,0.197879 0.480664,0.24441 0.832916,0.565837 3.131646,2.857597 l 2.240864,2.234072 -3.282717,3.294389 c -1.805495,1.811915 -3.297471,3.294388 -3.315501,3.294388 -0.01804,0 -1.045358,-1.023723 -2.282949,-2.274941 l -2e-6,0 z"
       id="path2449" />
    <path
       inkscape:connector-curvature="0"
       style="fill:#008000"
       d="m 14.346827,37.913527 c -0.807864,-0.127632 -1.784465,-0.497602 -2.357134,-0.892965 -0.778055,-0.53716 -1.491919,-1.629867 -1.796863,-2.750442 -0.09785,-0.359569 -0.123235,-0.608413 -0.123956,-1.215184 -7.54e-4,-0.687145 0.01455,-0.807991 0.154354,-1.215187 0.342743,-0.998171 -0.0839,-0.540469 9.238888,-9.911499 4.711961,-4.736343 8.749368,-8.758695 8.972017,-8.93856 0.747676,-0.603996 1.481799,-0.855991 2.481693,-0.851864 0.986019,0.0041 2.035409,0.345815 2.921994,0.951578 0.944092,0.645056 1.673565,1.750236 2.035394,3.083708 0.145556,0.536431 0.132311,1.540111 -0.02699,2.045255 -0.281292,0.891974 0.15828,0.423836 -9.504129,10.121724 -9.767255,9.803116 -9.121942,9.19605 -10.057188,9.461116 -0.486817,0.137973 -1.429794,0.19262 -1.938081,0.11232 l 0,0 z"
       id="path2451" />
    <path
       inkscape:connector-curvature="0"
       style="fill:#008000"
       d="m 30.301001,37.918246 c -0.47777,-0.08795 -0.858119,-0.224454 -1.285976,-0.461531 -0.371533,-0.205865 -0.712764,-0.524389 -2.83134,-2.642919 l -2.408897,-2.408844 3.325691,-3.334695 3.325684,-3.334695 2.463264,2.486892 c 2.624372,2.649549 2.757053,2.808079 3.003799,3.589036 0.336021,1.063513 0.113704,2.441896 -0.583424,3.617296 -0.361025,0.608705 -0.650212,0.957842 -1.112286,1.342854 -0.445318,0.371051 -1.439519,0.869523 -2.056386,1.031036 -0.502282,0.13151 -1.435248,0.190105 -1.840129,0.115573 l 0,-3e-6 z"
       id="path2453" />
    <rect
       style="fill:#008000"
       id="rect2455"
       width="5.8015966"
       height="6.7824306"
       x="18.058046"
       y="24.022186"
       ry="1.2604419"
       rx="0" />
    <path
       inkscape:connector-curvature="0"
       style="fill:#00aa00;fill-opacity:1"
       d="m 17.926083,25.563086 c -0.260538,-0.566263 -0.289969,-1.103007 -0.08718,-1.590042 0.116236,-0.279165 0.266502,-0.442629 2.076386,-2.258749 l 1.951086,-1.957808 0.321969,-0.09545 c 0.442894,-0.1313 0.885051,-0.111466 1.323417,0.05937 l 0.370144,0.14425 2.123329,2.130647 2.123329,2.130646 0.146091,0.3773 c 0.19047,0.491895 0.195248,1.029199 0.01294,1.454353 -0.140323,0.327251 -0.210103,0.402807 -2.092637,2.265994 l -1.947474,1.927455 -0.346891,0.09772 c -0.190786,0.05374 -0.521545,0.0811 -0.735014,0.06079 -0.691581,-0.0658 -0.688187,-0.06308 -3.051741,-2.442221 -1.493335,-1.50319 -2.125547,-2.169071 -2.187747,-2.304256 z"
       id="path3279" />
    <path
       inkscape:connector-curvature="0"
       style="fill:#cc0000;fill-opacity:1;stroke:#680000;stroke-opacity:1"
       d="M 13.344288,21.830011 C 12.07332,20.539937 10.931098,19.335537 10.806017,19.153567 10.1015,18.128624 9.9981474,16.589955 10.541605,15.217143 c 0.577315,-1.458344 1.549162,-2.346307 3.067022,-2.802302 0.658937,-0.197957 1.901992,-0.253397 2.557065,-0.114042 0.901729,0.191826 1.116326,0.36579 4.028653,3.265872 l 2.027744,2.019217 -3.283476,3.294857 -3.283476,3.294857 -2.310849,-2.345591 z"
       id="path3291" />
    <path
       inkscape:connector-curvature="0"
       style="fill:#ff3131;fill-opacity:1;stroke:#cc0000;stroke-opacity:1"
       d="m 14.188552,37.854029 c -0.555868,-0.106013 -1.410136,-0.413672 -1.892857,-0.681702 -1.017596,-0.565013 -1.974412,-2.051139 -2.158521,-3.352598 -0.1532961,-1.083642 0.0216,-2.081934 0.482368,-2.753245 0.40482,-0.589806 2.349454,-2.584947 9.966728,-10.225577 8.097344,-8.122171 8.13346,-8.156425 8.906063,-8.446488 1.459164,-0.547825 3.573103,-0.05356 4.834331,1.130316 0.596544,0.559961 1.039324,1.270326 1.389578,2.229348 0.178383,0.488439 0.185928,0.542424 0.189447,1.356487 0.0056,1.297673 -0.07582,1.486094 -1.163716,2.692896 -0.844837,0.937168 -15.988071,16.130883 -16.902155,16.958494 -0.396588,0.35907 -0.8428,0.719336 -0.991581,0.800595 -0.553969,0.302546 -1.854378,0.445059 -2.659685,0.291474 l 0,0 z m 9.864915,-7.655039 c 0.151088,-0.04461 0.665672,-0.530061 2.174961,-2.05181 1.756413,-1.770905 1.987339,-2.024453 2.069215,-2.271908 0.126908,-0.383565 0.11655,-0.89664 -0.02696,-1.335443 -0.117907,-0.360504 -0.141079,-0.38633 -2.266858,-2.526131 -2.129125,-2.143169 -2.150911,-2.162968 -2.514124,-2.284926 -0.424511,-0.142541 -0.905193,-0.158221 -1.344732,-0.04387 -0.293303,0.07631 -0.360173,0.137542 -2.21649,2.029656 -1.052736,1.073037 -1.968466,2.053023 -2.034954,2.177748 -0.09925,0.186178 -0.120919,0.322893 -0.121047,0.763714 -2.34e-4,0.810578 0.0043,0.817102 1.8811,2.728894 2.01151,2.048969 2.751339,2.72668 3.099571,2.839324 0.280332,0.09068 0.951858,0.07764 1.300321,-0.02525 l 0,0 z"
       id="path3293" />
    <path
       inkscape:connector-curvature="0"
       style="fill:#cc0000;fill-opacity:1;stroke:#680000;stroke-opacity:1"
       d="M 30.248569,37.884431 C 29.87909,37.814116 29.47792,37.668616 29.095582,37.466267 28.747719,37.282159 27.048604,35.677282 24.813413,33.421609 l -1.013545,-1.022836 3.308605,-3.320008 3.308606,-3.320006 1.132044,1.130112 c 1.667368,1.664522 3.641426,3.73791 3.918798,4.116 0.366195,0.499147 0.525917,1.066696 0.525917,1.868728 0,0.714368 -0.103441,1.218035 -0.393995,1.918382 -0.229308,0.552723 -0.758712,1.354069 -1.116273,1.689677 -0.577719,0.542252 -1.572063,1.084214 -2.368846,1.291131 -0.472364,0.122668 -1.488718,0.18347 -1.866155,0.111642 l 0,0 z"
       id="path3295" />
    <path
       inkscape:connector-curvature="0"
       style="fill:#ffffff;fill-opacity:1"
       d="m 22.709765,30.165084 c -0.331257,-0.144346 -1.010938,-0.767906 -2.688332,-2.466361 -1.729108,-1.750819 -1.997379,-2.049982 -2.135267,-2.381128 -0.09963,-0.239265 -0.116253,-1.025689 -0.02668,-1.262093 0.08605,-0.227104 0.626497,-0.818684 2.334862,-2.555762 0.836443,-0.850503 1.632689,-1.612236 1.769434,-1.692737 0.213472,-0.125674 0.31701,-0.146839 0.732241,-0.149695 0.919415,-0.0063 0.807978,-0.08705 3.223753,2.335381 1.439616,1.443583 2.161814,2.208066 2.249054,2.380734 0.09529,0.188608 0.134979,0.38262 0.153549,0.750674 0.04236,0.839391 0.10928,0.745569 -2.151225,3.016373 -1.664305,1.671889 -2.013346,1.996463 -2.202951,2.048545 -0.319144,0.08766 -1.033513,0.07408 -1.258435,-0.02392 l 0,2e-6 z"
       id="path3297" />
  </g>
</svg>
