<?xml version="1.0" encoding="UTF-8" standalone="no"?>
<!-- Created with Inkscape (http://www.inkscape.org/) -->

<svg
   xmlns:dc="http://purl.org/dc/elements/1.1/"
   xmlns:cc="http://creativecommons.org/ns#"
   xmlns:rdf="http://www.w3.org/1999/02/22-rdf-syntax-ns#"
   xmlns:svg="http://www.w3.org/2000/svg"
   xmlns="http://www.w3.org/2000/svg"
   xmlns:xlink="http://www.w3.org/1999/xlink"
   xmlns:sodipodi="http://sodipodi.sourceforge.net/DTD/sodipodi-0.dtd"
   xmlns:inkscape="http://www.inkscape.org/namespaces/inkscape"
   id="svg2"
   version="1.1"
   inkscape:version="0.47 r22583"
   width="96"
   height="96"
   sodipodi:docname="emblem-pagavcs-logo.svg">
  <metadata
     id="metadata8">
    <rdf:RDF>
      <cc:Work
         rdf:about="">
        <dc:format>image/svg+xml</dc:format>
        <dc:type
           rdf:resource="http://purl.org/dc/dcmitype/StillImage" />
      </cc:Work>
    </rdf:RDF>
  </metadata>
  <defs
     id="defs6">
    <inkscape:perspective
       sodipodi:type="inkscape:persp3d"
       inkscape:vp_x="0 : 0.5 : 1"
       inkscape:vp_y="0 : 1000 : 0"
       inkscape:vp_z="1 : 0.5 : 1"
       inkscape:persp3d-origin="0.5 : 0.33333333 : 1"
       id="perspective10" />
  </defs>
  <sodipodi:namedview
     pagecolor="#ffffff"
     bordercolor="#666666"
     borderopacity="1"
     objecttolerance="10"
     gridtolerance="10"
     guidetolerance="10"
     inkscape:pageopacity="0"
     inkscape:pageshadow="2"
     inkscape:window-width="800"
     inkscape:window-height="574"
     id="namedview4"
     showgrid="false"
     inkscape:zoom="1.8266925"
     inkscape:cx="85.529981"
     inkscape:cy="27.499512"
     inkscape:window-x="409"
     inkscape:window-y="212"
     inkscape:window-maximized="0"
     inkscape:current-layer="svg2" />
  <image
     xlink:href="file:///home/gg/projects/pagavcs/artwork/logo1/icon%2096x96.png"
     width="96"
     height="96"
     id="image12"
     x="0"
     y="0" />
  <g
     id="g2888">
    <path
       style="fill:#fafcf9"
       d="M 0,48 0,0 48,0 96,0 96,48 96,96 48,96 0,96 0,48 z"
       id="path2908" />
    <path
       style="fill:#cef2cf"
       d="M 1.0332693,80.75 1.0665386,65.5 2.9435619,63.25 4.8205852,61 l 3.1210922,0 3.1210926,0 0.575604,-1.5 c 0.605359,-1.577541 0.184741,-2.866858 -1.8747144,-5.746544 L 8.5145897,52.006912 9.7572949,50.017025 C 10.440783,48.922587 11,46.696075 11,45.06922 l 0,-2.957919 3.25,-3.419678 c 1.7875,-1.880823 3.942399,-3.655249 4.788665,-3.943169 l 1.538665,-0.523491 2.345235,-7.862481 C 24.212444,22.038117 26.383553,15.431969 27.74725,11.682153 L 30.226701,4.8643069 32.797223,3.8869959 35.367746,2.9096848 37.933873,3.9367634 40.5,4.963842 48,5.14479 l 7.5,0.180948 1.14474,0.8722177 c 0.629607,0.4797197 1.529607,0.7849873 2,0.6783724 0.470393,-0.1066149 1.607597,0.1372477 2.527119,0.5419167 l 1.67186,0.735762 2.012399,-1.0770034 c 2.762909,-1.4786644 6.24765,-1.3494198 10.400473,0.3857404 l 3.500838,1.4627437 0.545847,1.4224535 0.545847,1.422454 -1.474308,2.104869 -1.474308,2.10487 0.921055,3.335787 0.921055,3.335787 2.559194,2.559194 2.559194,2.559194 1.06528,3.956148 1.06528,3.956147 2.004218,1.813792 L 90,39.309975 l 0.01455,3.095013 c 0.008,1.702256 0.687858,5.028027 1.510785,7.390602 l 1.496232,4.295589 -0.872229,1.704411 c -0.479725,0.937425 -1.136258,3.734571 -1.45896,6.215879 l -0.586732,4.51147 2.948176,1.69202 L 96,69.906979 96,82.95349 96,96 48.5,96 1,96 1.0332693,80.75 z M 35.799175,66.390165 38.84835,65.78033 39.981543,63.044558 41.114737,60.308786 38.962597,56.66118 36.810457,53.013574 37.509993,47.756787 38.209529,42.5 40.354764,39 42.5,35.5 42.525659,28 c 0.01411,-4.125 0.410121,-9.686939 0.880019,-12.359864 l 0.85436,-4.859865 -3.958654,0.66881 -3.958653,0.668811 -1.063757,-1.308946 C 34.693908,10.089026 34.049235,8.6057354 33.846368,7.5127454 L 33.477519,5.5254908 31.365234,9.1055466 29.25295,12.685602 28.05963,18.592801 c -0.656325,3.24896 -1.728805,8.697868 -2.383288,12.108687 l -1.189969,6.201487 -3.320944,3.426346 -3.320945,3.426345 -0.719264,3.372167 C 16.729624,48.982525 16.583046,52.8625 16.799491,55.75 l 0.393536,5.25 1.268628,0 c 0.697745,0 2.466365,0.942141 3.930267,2.093646 4.17285,3.282364 8.346738,4.308622 13.407253,3.296519 z m -5.787742,-31.876389 -1.308994,-1.577241 1.153381,-3.84964 c 0.634359,-2.117303 1.804715,-4.390201 2.600792,-5.050886 l 1.447412,-1.201246 2.045664,0.649269 2.045664,0.649268 0.5837,2.325646 0.5837,2.325646 -1.607056,3.107704 C 36.671815,33.601533 35.547,35 35.056107,35 c -0.490892,0 -1.53224,0.245479 -2.314106,0.545509 l -1.421573,0.545509 -1.308995,-1.577242 z"
       id="path2906" />
    <path
       style="fill:#acd0a6"
       d="M 1,80.426676 1,64.853352 2.75,65.188402 4.5,65.523453 4.7857167,75.828172 5.0714333,86.132892 6.7857167,85.806763 8.5,85.480635 9,81.50014 9.5,77.519644 15,76.754559 l 5.5,-0.765085 1.75,-2.105521 1.75,-2.105521 0,-2.282227 0,-2.282227 1.741243,-0.668178 1.741243,-0.668178 1.66905,2.061189 L 30.820585,70 l 4.467263,0 4.467263,0 1.31228,1.581201 1.312281,1.581202 -1.169358,1.872438 -1.169357,1.872438 1.080266,0.667641 1.080265,0.66764 -0.546577,2.732887 -0.546578,2.732886 1.145834,1.145834 C 42.884375,85.484375 43.76,86 44.2,86 l 0.8,0 0,-7.040493 0,-7.040492 -2.149331,-2.907126 -2.149332,-2.907127 1.701209,-2.596372 1.701209,-2.596373 -2.664773,-3.166902 -2.664772,-3.166902 0.649037,-5.522289 0.649036,-5.522289 3.089636,-5.474534 3.089635,-5.474534 -1.125777,-3.113281 C 43.583593,25.206452 43.713696,21.196532 45.571122,15.745289 L 47.142243,11.134301 46.035938,9.0671505 44.929632,7 49.450465,7 c 2.486458,0 6.569011,0.5478041 9.07234,1.2173425 l 4.551507,1.2173426 1.949275,-1.2173426 c 2.566586,-1.6028597 5.27594,-1.536859 9.508532,0.2316309 L 78,9.8979467 l 0,1.6907843 0,1.690784 -1.558911,1.139903 -1.558911,1.139904 2.074559,4.470339 c 1.141007,2.458686 3.192517,5.999386 4.558911,7.868222 C 82.882042,29.766719 84,32.081987 84,33.042923 l 0,1.747157 2.482723,2.35496 2.482724,2.35496 0.01728,3.627876 0.01728,3.627876 1.460733,3.496026 1.460732,3.496025 -0.932258,2.876099 c -0.512742,1.581854 -1.170747,4.082131 -1.462234,5.556171 -0.291487,1.47404 -1.236443,3.38654 -2.099903,4.25 L 85.857143,68 83.487588,68 C 82.184333,68 80.839919,68.45 80.5,69 l -0.618034,1 4.936572,0 4.936573,0 1.31228,1.581201 1.312281,1.581202 -1.169358,1.872438 -1.169357,1.872438 1.069328,0.660881 1.069328,0.660881 -0.635256,3.38621 -0.635257,3.38621 2.54545,1.159784 L 96,87.32103 96,91.660515 96,96 48.5,96 1,96 1,80.426676 z M 65.5,94 l -0.618034,-1 1.502313,0 1.502313,0 1.556704,-2.222506 L 71,88.554988 71,77.246109 71,65.93723 69.425647,65.333094 67.851294,64.728958 63.675647,66.042197 c -2.296606,0.722281 -5.395869,1.910887 -6.887251,2.641345 l -2.711603,1.328107 -1.136186,3.792251 -1.136186,3.792251 1.531892,3.666333 1.531892,3.666333 2.563661,0.643439 2.563662,0.643438 1.752236,-0.783788 L 63.5,84.648118 61.258796,84.255661 59.017592,83.863203 57.508796,81.709095 56,79.554988 56,76.777494 56,74 l 1.989045,-1.989045 1.989046,-1.989046 3.542117,1.689119 3.542118,1.689118 0.565475,2.253029 0.565474,2.25303 -1.445414,2.897401 -1.445415,2.897402 1.579176,0.996118 1.579175,0.996119 -1.218108,2.673455 -1.218108,2.673456 -2.76229,1.052684 -2.762291,1.052684 -2.583333,-0.514429 -2.583334,-0.514428 0,1.441666 0,1.441667 5.392351,0 5.39235,0 L 65.5,94 z M 35,84.710226 32.5,83.449936 32.162508,81.088058 31.825016,78.72618 33.162508,77.878403 34.5,77.030626 32.285184,77.015313 30.070368,77 l -1.031598,1.927558 -1.031598,1.927558 0.673473,1.822442 c 0.927164,2.508943 2.310737,3.29172 5.819355,3.292387 l 3,5.71e-4 -2.5,-1.26029 z m 50.227834,0.250412 c -1.249691,-0.501924 -2.55821,-1.658009 -2.90782,-2.569079 L 81.684359,80.735069 82.850653,78.867534 84.016948,77 l -1.97329,0 -1.97329,0 -1.035184,1.934259 c -1.406399,2.627879 -1.306485,3.651583 0.536245,5.494312 L 81.142857,86 84.321429,85.936614 87.5,85.873227 85.227834,84.960638 z M 80,49.2 C 80,48.165023 77.834977,46 76.8,46 76.36,46 76,46.9 76,48 l 0,2 2,0 c 1.1,0 2,-0.36 2,-0.8 z M 9.3981567,73.595196 c -0.2964905,-0.772642 -0.3948674,-2.910142 -0.2186152,-4.75 L 9.5,65.5 l 3.819788,-0.314526 3.819788,-0.314526 1.430212,1.186971 1.430212,1.18697 0,2.320852 0,2.320851 -2.222506,1.556704 L 15.554988,75 12.746109,75 9.9372304,75 9.3981567,73.595196 z M 11,52.440983 11,50.881966 12,51.5 c 0.55,0.339919 1,1.041476 1,1.559017 C 13,53.576558 12.55,54 12,54 l -1,0 0,-1.559017 z M 13.081574,45.25 13,43 15,41 c 1.1,-1.1 2,-2.45 2,-3 l 0,-1 1.5,0 c 2.100595,0 1.867331,1.289504 -0.500791,2.768421 -1.100436,0.687234 -2.638727,2.70798 -3.418426,4.490547 L 13.163148,47.5 13.081574,45.25 z m 17.351761,-12.56313 -0.557723,-1.453404 1.543322,-3.693691 1.543323,-3.693692 1.661688,0.326959 c 0.913929,0.179827 2.159921,1.118341 2.768872,2.085587 L 38.5,28.017258 36.966582,30.758629 35.433164,33.5 33.212111,33.820137 30.991058,34.140274 30.433335,32.68687 z M 35.964826,8.4576184 34.684763,6.9152367 35.822175,5.7778246 36.959588,4.6404125 39.467471,5.982591 41.975355,7.3247696 40.865233,8.6623848 C 39.396348,10.432283 37.53925,10.354683 35.964826,8.4576184 z"
       id="path2904" />
    <path
       style="fill:#92b190"
       d="m 1,81 0,-15 1.5,0 1.5,0 0,9.893011 0,9.893011 1.5902421,0.610234 C 7.8627476,87.268298 9,86.260703 9,83.375242 9,81.996543 9.4658327,79.998101 10.035184,78.934259 L 11.070368,77 l 4.24231,0 4.24231,0 2.182585,-1.528742 2.182585,-1.528742 L 24.57137,70.471258 25.222582,67 26.576107,67 27.929632,67 29,69 l 1.070368,2 4.996201,0 4.996201,0 0.614332,1.600925 0.614333,1.600925 -1.395718,0.883762 c -0.767644,0.486069 -2.887801,0.890653 -4.711458,0.899075 -1.823658,0.0084 -4.186158,0.481146 -5.25,1.050497 L 28,78.070368 l 0,2.809828 0,2.809829 1.964959,1.778263 1.964959,1.778263 2.785041,-0.705893 C 37.802285,85.758148 40.484465,85.641176 43.5,86.157534 l 2,0.342466 0.296966,-6.805974 0.296966,-6.805973 -2.046966,-3.312061 C 41.52225,65.490917 41.521749,65.523469 44.147103,63.07758 l 2.147103,-2.000331 -3.006747,-2.808722 c -1.653711,-1.544798 -3.332086,-3.833773 -3.729722,-5.086613 l -0.722974,-2.27789 1.116644,-1.345472 c 0.614153,-0.740011 1.293103,-2.739784 1.508777,-4.443942 l 0.392134,-3.098468 2.048935,-2.877465 c 1.126915,-1.582606 2.481302,-4.014673 3.009749,-5.404594 L 47.871814,31.206955 46.46771,29.353477 45.063607,27.5 45.031803,23.961613 45,20.423226 l 1.887131,-5.358696 1.887131,-5.3586964 1.697781,-0.950126 1.697781,-0.9501261 6.307269,1.1900962 6.307268,1.1900963 2.229988,-1.1934534 2.229988,-1.1934532 3.032524,0.6065047 c 1.667888,0.3335777 3.649265,1.1183546 4.40306,1.7439489 l 1.370536,1.137444 -1.661103,1.835497 -1.661103,1.835498 1.296943,4.632222 1.296942,4.632223 1.665201,1.638897 C 79.903198,26.762496 81.252638,29.075 81.986092,31 c 0.733454,1.925 2.386633,4.932475 3.673731,6.683278 L 88,40.866556 l 0,2.944598 c 0,1.619529 0.685333,4.58483 1.522962,6.589559 l 1.522962,3.644961 -1.022962,1.911421 C 89.460333,57.008377 89,58.922973 89,60.211752 c 0,1.28878 -0.700517,3.343363 -1.556704,4.565742 L 85.886592,67 l -2.320851,0 -2.320852,0 -1.113768,1.342009 c -1.587779,1.913156 -0.456319,2.585022 3.32103,1.972043 l 3.273544,-0.531223 2.137152,1.143769 2.137153,1.14377 0,1.357827 0,1.357827 -1.581787,0.606989 C 88.548229,75.726855 86.493646,76 84.852471,76 c -1.641175,0 -3.85437,0.465833 -4.918212,1.035184 L 78,78.070368 l 0,2.809828 0,2.809829 1.828741,1.654987 c 2.107258,1.907043 4.466615,2.102469 7.269945,0.602173 L 89.065889,84.89437 92.532944,86.148073 96,87.401777 96,91.700888 96,96 48.5,96 1,96 1,81 z M 67.46036,93.434016 69.850354,91.868032 70.925177,88.784793 72,85.701553 72,76.432564 C 72,71.33462 71.726855,66.451771 71.393011,65.581787 L 70.786022,64 68.57115,64 c -1.21818,0 -4.29112,0.707449 -6.828756,1.572108 L 57.128511,67.144216 54.564256,69.708472 52,72.272727 l 0,3.816584 c 0,2.09912 0.518291,4.954107 1.151757,6.344414 l 1.151757,2.527831 1.947005,0.617956 1.947005,0.617955 4.401238,-0.660006 L 67,84.877454 l 0,2.03822 0,2.03822 -2.448215,1.604132 L 62.10357,92.162159 58.395411,91.842682 54.687253,91.523206 54.43211,93.261603 54.176968,95 l 5.446699,0 5.4467,0 2.389993,-1.565984 z M 59.222506,82.443296 57,80.886592 l 0,-3.820851 0,-3.820852 1.421639,-1.179855 1.421639,-1.179856 1.828361,0.984413 C 62.677238,72.411018 64.2875,73.09773 65.25,73.395617 L 67,73.93723 67,76.968615 67,80 65,82 c -2.40751,2.40751 -2.917337,2.446628 -5.777494,0.443296 z M 76.692228,53.450629 C 77.490074,52.652783 78.730614,52 79.448984,52 c 0.71837,0 1.87983,-0.69127 2.581023,-1.536156 l 1.274896,-1.536156 -2.839543,-2.963844 c -3.162319,-3.30075 -4.64799,-3.653641 -6.415536,-1.523878 -0.657286,0.791981 -2.139638,1.579481 -3.294117,1.75 L 68.656656,46.5 68.244995,47.75 67.833333,49 l 1.976345,0 1.976344,0 0.59013,1.537854 0.59013,1.537854 -1.483141,0.569135 L 70,53.213978 l 0,1.501419 0,1.501419 2.620799,-0.657779 c 1.44144,-0.361778 3.273583,-1.310562 4.071429,-2.108408 z m -43.78735,28.934755 -1.340012,-1.614615 2.386847,-1.932752 2.386848,-1.932753 2.070504,0.297368 2.070504,0.297368 0.342791,1.798039 0.342791,1.79804 -1.20502,1.45196 L 38.755111,84 36.5,84 34.244889,84 32.904878,82.385384 z m 50,0 -1.340012,-1.614615 2.386847,-1.932752 2.386848,-1.932753 2.070504,0.297368 2.070504,0.297368 0.342791,1.798039 0.342791,1.79804 -1.20502,1.45196 L 88.755111,84 86.5,84 84.244889,84 82.904878,82.385384 z M 9.6078807,72.420537 9.0017839,70.841074 9.6114848,68.411832 10.221186,65.98259 12.517452,65.406264 14.813718,64.829938 16.906859,65.950153 19,67.070368 19,69.335184 C 19,70.580833 18.46,72.14 17.8,72.8 L 16.6,74 13.406989,74 10.213978,74 9.6078807,72.420537 z M 31.374286,32.532989 30.811341,31.065978 31.739004,28.282989 32.666667,25.5 l 1.916666,0 1.916667,0 0.330358,2.332465 0.330357,2.332466 -1.735345,1.917534 c -2.077758,2.295897 -3.291166,2.430841 -4.051084,0.450524 z M 37,7.440983 37,5.881966 38,6.5 c 0.55,0.3399187 1,1.0414763 1,1.559017 C 39,8.5765576 38.55,9 38,9 l -1,0 0,-1.559017 z"
       id="path2902" />
    <path
       style="fill:#88b075"
       d="M 1,81.031385 1,66.06277 2.4649161,66.624911 3.9298322,67.187052 4.2149161,76.843526 4.5,86.5 l 2.5,0 2.5,0 0.5,-4 0.5,-4 2.5,-0.262662 c 1.375,-0.144464 4.113381,-0.702821 6.08529,-1.240793 l 3.58529,-0.978131 1.16471,-2.55626 C 24.475881,72.056211 25,70.252068 25,69.452947 L 25,68 l 2,0 2,0 0,1.5 0,1.5 4.877555,0 4.877556,0 1.113768,1.342009 1.113769,1.34201 -0.657991,0.65799 C 39.962762,74.703904 37.921212,75 35.787879,75 l -3.878788,0 -2.454546,2.454545 c -2.86022,2.860221 -3.033536,4.273816 -0.897841,7.322949 L 30.113408,87 33.306704,86.98469 c 1.756313,-0.0084 3.802862,-0.401568 4.547886,-0.873657 l 1.354591,-0.858345 2.940401,1.109877 2.9404,1.109878 1.007246,-1.48622 L 47.104474,84.5 46.66741,78.250248 46.230345,72.000497 44.615173,69.535432 C 43.726828,68.179646 43,66.434422 43,65.657155 l 0,-1.413211 2.224737,-1.47717 2.224737,-1.47717 L 43.6046,57.663422 39.759727,54.037239 40.424621,51.26862 C 40.790312,49.745879 41.445925,46.925 41.881538,45 42.317151,43.075 43.87201,39.749704 45.336781,37.610453 L 48,33.720906 47.9682,31.610453 c -0.01749,-1.160749 -0.692492,-2.983961 -1.5,-4.051583 -2.019466,-2.669972 -1.848361,-5.147182 0.835429,-12.09512 L 49.607252,9.5 52.756991,9.1901196 c 1.732357,-0.1704341 4.809279,0.1483406 6.837605,0.7083883 L 63.282461,10.916776 67.45028,9.8020548 71.6181,8.6873331 74.30905,9.3627186 77,10.038104 l 0,1.431258 c 0,0.787192 -0.731996,1.840903 -1.626657,2.341581 l -1.626657,0.910323 1.703117,5.127605 c 0.936714,2.820182 2.16895,5.415505 2.738301,5.767384 0.569351,0.351878 2.057381,2.944671 3.306732,5.761762 1.249351,2.817091 3.224111,5.979227 4.388355,7.026971 L 88,40.309975 l 0,4.285996 0,4.285995 1.100119,0.679911 1.100118,0.67991 -0.691161,5.531871 c -0.380139,3.042529 -1.17734,6.598917 -1.771558,7.903083 l -1.080397,2.371212 -2.57856,0.559546 C 82.660352,66.91525 80.9375,67.340337 80.25,67.552138 L 79,67.93723 79,69.468615 79,71 l 4.877555,0 4.877556,0 1.113768,1.342009 1.113769,1.34201 -0.657991,0.65799 C 89.962762,74.703904 88.002353,75 85.968192,75 L 82.269717,75 79.634859,77.07258 77,79.14516 l 0,1.704914 c 0,0.937702 0.739103,2.76013 1.64245,4.04984 l 1.64245,2.344926 4.926999,-0.58353 c 2.709849,-0.320942 6.245747,-0.319781 7.85755,0.0026 L 96,87.25 96,91.625 96,96 48.5,96 1,96 1,81.031385 z M 69.411106,91.923275 72,88.846549 l 0,-11.80083 0,-11.80083 -1.55255,-1.288502 -1.55255,-1.288502 -5.421871,1.709095 -5.421872,1.709094 -2.991574,2.517244 -2.991574,2.517244 -0.666166,3.550968 -0.666166,3.550968 1.624553,3.406723 1.624553,3.406723 2.517138,1.146885 2.517137,1.146884 3.490471,-1.071256 L 66,85.187201 l 0,1.883347 0,1.883346 -2.417306,1.58388 -2.417306,1.583879 L 57.582694,91.449536 54,90.777418 54,92.888709 54,95 l 6.411106,0 6.411107,0 2.588893,-3.076725 z M 58.571429,81.428571 57,79.857143 l 0,-2.806127 0,-2.806127 1.469646,-1.219698 1.469647,-1.219698 3.042093,1.346561 3.042093,1.346562 0.571189,1.799655 0.571188,1.799655 -1.605981,2.451037 L 63.953894,83 62.048376,83 C 61.00034,83 59.435714,82.292857 58.571429,81.428571 z M 76.2,56 l 1.8,0 0,-1.432612 0,-1.432613 2.001061,-0.635112 c 1.100584,-0.349312 2.420188,-1.418257 2.932454,-2.375435 l 0.931392,-1.740322 -2.983139,-3.191953 C 77.315734,41.376304 78.271793,41.44375 72.049773,44.568892 l -5.114551,2.568893 0.629938,3.681107 0.629937,3.681108 2.062533,1.789919 2.062533,1.789918 1.039918,-1.039918 C 73.932037,56.467963 75.21,56 76.2,56 z M 34.151607,83.11486 32.803214,82.260345 33.165302,80.380173 33.52739,78.5 l 3.402972,0 3.402971,0 0.377977,1.133929 0.377976,1.133928 -1.616072,1.616072 c -1.799002,1.799002 -3.308966,2.006398 -5.321607,0.730931 z m 50,0 -1.348393,-0.854515 0.362088,-1.880172 L 83.52739,78.5 l 3.402972,0 3.402971,0 0.377977,1.133929 0.377976,1.133928 -1.616072,1.616072 c -1.799002,1.799002 -3.308966,2.006398 -5.321607,0.730931 z M 10.389534,72.572726 c -0.301233,-0.785001 -0.3996099,-2.472501 -0.218615,-3.75 L 10.5,66.5 l 2.810472,-0.322258 2.810472,-0.322257 1.439528,1.194702 c 1.870942,1.552744 1.825115,3.421369 -0.131901,5.378384 L 15.857143,74 13.397187,74 10.93723,74 10.389534,72.572726 z M 31.648386,32.240094 c -0.258306,-0.417949 0.178386,-2.301127 0.970429,-4.184841 l 1.440076,-3.424933 1.51165,1.51165 1.511651,1.51165 -1.016345,2.67319 L 35.049502,33 33.583768,33 c -0.806154,0 -1.677076,-0.341958 -1.935382,-0.759906 z"
       id="path2900" />
    <path
       style="fill:#6a925b"
       d="M 1,80.940983 1,65.881966 2,66.5 3,67.118034 3.0153128,75.809017 3.0306255,84.5 3.8784029,85.837492 4.7261802,87.174984 7.1130901,86.837492 9.5,86.5 l 0.5,-4 0.5,-4 4.5,-0.545879 c 2.475,-0.300234 5.528645,-1.112207 6.785877,-1.804385 l 2.285877,-1.258505 0.593285,-2.966425 c 0.326307,-1.631534 1.053429,-3.250809 1.615827,-3.598391 l 1.022542,-0.631965 1.165635,1.594101 1.165636,1.594102 5.18266,0.687504 L 40,72.257661 40,73.628831 40,75 l -4.5,0 -4.5,0 -2,2 -2,2 0,2.42742 0,2.42742 2.706719,2.129105 2.706718,2.129105 2.543282,-0.729434 C 36.355523,86.982428 39.525,86.619492 42,86.577091 L 46.5,86.5 46.800243,80.152684 47.100487,73.805369 44.962453,69.703462 42.82442,65.601555 44.60334,64.300778 C 45.581745,63.58535 46.746251,63 47.19113,63 47.636008,63 48,62.172232 48,61.160515 L 48,59.32103 45.55289,58.206052 C 44.20698,57.592814 42.434504,56.058083 41.614056,54.795537 L 40.122332,52.5 l 2.021902,-6 c 1.112046,-3.3 2.828288,-6.9 3.813871,-8 0.985583,-1.1 2.298266,-2.983036 2.917074,-4.184525 L 50.000285,32.13095 49.010231,29.815475 C 48.465701,28.541964 47.371647,26.6 46.579,25.5 l -1.441175,-2 2.049118,-6 c 1.127015,-3.3 2.623868,-6.611791 3.326339,-7.359537 l 1.27722,-1.3595362 7.039256,1.2579852 7.039256,1.257985 2.88162,-1.193606 2.88162,-1.1936062 2.81585,1.0705842 2.81585,1.070584 -1.789444,1.977313 -1.789444,1.977313 1.163839,3.884546 c 1.974349,6.589792 5.058091,12.83494 8.681802,17.58226 L 87,41.017306 l 0,2.43233 c 0,1.337782 -0.42385,2.694284 -0.941889,3.014449 l -0.941888,0.582119 -3.173789,-3.102477 -3.173789,-3.102477 -2.634323,0.652699 c -1.448877,0.358985 -4.597449,1.516794 -6.996826,2.57291 l -4.362503,1.920212 0.688684,3.756464 0.688684,3.756465 3.119986,3.25 C 72.318251,59.92283 75,60.985225 75,59.019052 c 0,-0.539521 1.125,-1.263305 2.5,-1.608408 l 2.5,-0.62746 2.9e-5,-1.141592 c 1.7e-5,-0.627876 1.500772,-2.339035 3.335013,-3.802577 l 3.334983,-2.660985 1.275683,0.788416 1.275683,0.788415 -0.734951,5.37257 c -0.404223,2.954913 -1.108695,6.360862 -1.565493,7.568776 L 86.090406,65.892414 82.545203,66.557498 79,67.222582 l 0,1.836449 0,1.83645 5.240634,0.302259 5.240634,0.30226 0.33269,1.75 0.33269,1.75 -4.573324,0 L 81,75 l -2.060577,2.060577 -2.060577,2.060577 0.310577,2.590526 0.310577,2.590526 2.661044,1.977733 2.661043,1.977732 3.067717,-1.069412 3.067716,-1.069411 3.52124,0.571418 L 96,87.261685 96,91.630842 96,96 48.5,96 1,96 1,80.940983 z M 69.23822,92.489053 71.749167,89.978105 72.232414,78.239053 72.715661,66.5 71.822647,64.75 70.929632,63 68.642955,63 c -1.257673,0 -4.378319,0.712694 -6.93477,1.583764 L 57.060092,66.167529 54.030046,69.618561 51,73.069592 l 0,3.888479 0,3.888478 2.687421,3.193819 2.687422,3.193819 4.812578,-0.569978 L 66,86.09423 66,87.347115 C 66,88.036202 65.46,89.14 64.8,89.8 l -1.2,1.2 -4.8,0 -4.8,0 0,2 0,2 6.363636,0 6.363637,0 2.510947,-2.510947 z M 58.596557,80.834392 C 56.675902,78.092273 56.572794,75.963846 58.25,73.680541 l 1.25,-1.701718 3.184206,1.204992 3.184206,1.204992 0.450097,1.721173 0.450097,1.721174 -1.159335,2.334423 L 64.449936,82.5 62.321525,82.806898 60.193113,83.113796 58.596557,80.834392 z M 57,22.416667 l 0,-1.583334 -1.1875,0.395834 c -0.653125,0.217708 -1.365625,0.930208 -1.583333,1.583333 L 53.833333,24 55.416667,24 57,24 57,22.416667 z M 34,82.5 32.755111,81 34,79.5 35.244889,78 l 2.318539,0 2.318538,0 0.718126,1.161952 0.718126,1.161952 -2.269893,1.838048 C 36.296592,84.39017 35.607024,84.436346 34,82.5 z m 50,0 L 82.755111,81 84,79.5 85.244889,78 l 2.318539,0 2.318538,0 0.718126,1.161952 0.718126,1.161952 -2.269893,1.838048 C 86.296592,84.39017 85.607024,84.436346 84,82.5 z M 11.25,73.337719 10,72.833333 10,70.998454 c 0,-1.009183 0.273145,-2.546683 0.606989,-3.416667 L 11.213978,66 l 2.857827,0 2.857827,0 1.168305,2.182996 1.168304,2.182997 -2.243904,1.817003 C 14.758636,74.01603 13.53678,74.260455 11.25,73.337719 z M 32,31.081787 c 0,-1.055016 0.273145,-2.630016 0.606989,-3.5 L 33.213978,26 34.606989,26 36,26 36,28.3 C 36,30.574574 34.348646,33 32.8,33 32.36,33 32,32.136804 32,31.081787 z"
       id="path2898" />
    <path
       style="fill:#586c56"
       d="M 2,90.476947 2,84.953894 4.3590951,86.499633 6.7181902,88.045371 8.3590951,87.415697 10,86.786022 10,83.593011 10,80.4 l 1.2,-1.2 1.2,-1.2 3.665141,0 3.665142,0 2.55808,-2.012186 2.558079,-2.012186 0.656234,-2.987814 C 26.259186,67.543447 27.581958,67.107507 28.5,70 l 0.634775,2 4.873596,0 4.873595,0 0.553273,0.895215 0.553274,0.895215 -1.576044,0.604785 C 37.545645,74.727847 35.623357,75 34.140719,75 L 31.445012,75 29.222506,76.556704 27,78.113408 27,81.056704 27,84 l 2,2 2,2 1.952947,0 c 1.074121,0 3.042199,-0.496296 4.373507,-1.102881 l 2.42056,-1.102881 2.054051,1.099295 2.054051,1.099295 1.572442,-0.603403 L 47,86.786022 47,79.843351 47,72.90068 45.427646,69.860083 43.855292,66.819486 44.396261,65.409743 C 44.693794,64.634384 45.545203,64 46.28828,64 c 0.743077,0 2.317912,-1.0125 3.499634,-2.25 1.181721,-1.2375 3.2902,-3.368017 4.685508,-4.734482 l 2.536924,-2.484481 -0.33804,-1.015519 C 56.486385,52.956983 55.584057,52.354504 54.667134,52.176676 L 53,51.853352 l 0,1.554272 0,1.554272 -2.75,0.611997 c -1.5125,0.336598 -3.461999,0.801533 -4.332219,1.033188 l -1.58222,0.421191 -1.718624,-1.899058 -1.718625,-1.899059 1.979287,-5.865078 1.979286,-5.865077 3.571602,-3 3.571602,-3 -4.5e-5,-4.182612 L 52,27.134775 50.090305,26.528662 c -1.050332,-0.333363 -2.469382,-1.280495 -3.153443,-2.104739 l -1.243748,-1.498625 2.074991,-4.712649 c 1.141245,-2.591957 2.338462,-5.545209 2.660483,-6.562783 l 0.585492,-1.8501335 4.24296,0.5116205 c 2.333628,0.281392 5.518003,0.836088 7.076389,1.23266 l 2.833428,0.721038 3.946601,-1.302496 3.946602,-1.3024955 1.127588,1.1275885 1.127589,1.127589 -1.276729,1.538363 -1.276728,1.538364 2.678456,8.590744 2.678456,8.590744 3.940654,4.275105 c 5.384998,5.842032 5.12652,8.685009 -0.457003,5.026544 l -2.32729,-1.524899 -5.665644,0.665885 c -3.116104,0.366237 -5.904548,1.052441 -6.196543,1.524899 C 67.120871,42.613444 66.008524,43 64.940983,43 L 63,43 l 0,-1 0,-1 -1.545313,0 -1.545313,0 0.698798,3.724913 c 0.384339,2.048703 1.30473,4.330846 2.045313,5.071429 C 63.394068,50.536925 64,51.545056 64,52.036632 c 0,1.546508 6.172915,8.001426 9.098784,9.514451 3.555016,1.83837 3.566504,1.83686 4.190965,-0.551083 l 0.523012,-2 2.093619,0 2.09362,0 0,-1.964816 0,-1.964816 1.934259,-1.035184 C 84.998101,53.465833 86.279976,53 86.782871,53 l 0.914354,0 -0.900646,5.75 C 85.755038,65.399511 85.515333,65.735452 81.5,66.173053 l -3,0.326947 0,2.5 0,2.5 L 83,71.232125 87.5,70.96425 89,71.982125 90.5,73 89,73.984687 c -0.825,0.541578 -2.862372,0.991578 -4.527494,1 L 81.445012,75 79.222506,76.556704 77,78.113408 77,81.056704 77,84 l 2,2 2,2 1.9349,0 c 1.064196,0 3.052304,-0.424836 4.41802,-0.94408 l 2.483119,-0.94408 3.08198,1.163317 L 96,88.438475 96,92.219238 96,96 78.75,95.897639 61.5,95.795277 64.58729,95.057216 c 4.396308,-1.051001 5.441844,-1.882695 6.972719,-5.546595 l 1.355941,-3.245224 0.158291,-10.811098 0.158292,-10.811099 -1.7395,-1.271953 -1.7395,-1.271954 -3.126767,0.55988 c -1.719721,0.307933 -5.037514,1.449887 -7.372873,2.537675 L 55.007786,67.174644 53.003893,69.722181 51,72.269717 l 0,3.914802 0,3.914801 1.518189,2.935853 1.518188,2.935853 2.488385,0.624545 2.488384,0.624545 3.493427,-0.655371 L 66,85.909374 l 0,0.973884 c 0,0.535637 -0.756482,1.730367 -1.681072,2.654956 l -1.681071,1.681072 -4.334729,-0.488587 -4.334728,-0.488586 -0.487444,0.788701 c -0.268095,0.433786 -0.222899,1.478096 0.100434,2.320688 l 0.587878,1.531987 2.665366,0.408423 C 58.300585,95.516545 46.5625,95.76776 30.75,95.850168 L 2,96 2,90.476947 z M 55.928479,25.536985 C 58.250872,24.336029 60,22.182963 60,20.525201 60,20.354028 59.261593,19.930624 58.359095,19.584303 L 56.71819,18.954629 54.359095,20.500367 52,22.046106 l 0,2.476947 c 0,2.895779 0.193041,2.945602 3.928479,1.013932 z M 33.441661,81.905606 32.69445,80.696592 34.577882,79.319393 c 1.035888,-0.75746 2.567137,-1.245531 3.402776,-1.084602 L 39.5,78.52739 l 0,1.986305 0,1.986305 -2.655564,0.30731 -2.655563,0.307309 -0.747212,-1.209013 z M 59.75,81.919901 58,80.90062 l 0,-3.866977 0,-3.866976 1.20831,-0.40277 c 0.66457,-0.221524 2.46457,0.223935 4,0.989908 L 66,75.146484 l 0,2.27177 0,2.271771 -1.828741,1.654987 C 62.052832,83.262163 62.054215,83.261983 59.75,81.919901 z m 23.691661,-0.01429 -0.747211,-1.209014 1.883432,-1.377199 c 1.035888,-0.75746 2.567137,-1.245531 3.402776,-1.084602 L 89.5,78.52739 l 0,1.986305 0,1.986305 -2.655564,0.30731 -2.655563,0.307309 -0.747212,-1.209013 z M 10.529301,72.04741 9.870905,70.982103 10.47352,69.083433 c 0.331438,-1.044269 1.293083,-2.163629 2.136989,-2.487466 l 1.534375,-0.588795 1.988243,1.064075 1.988242,1.064075 -0.310685,2.182339 L 17.5,72.5 14.343849,72.806359 11.187698,73.112718 10.529301,72.04741 z M 32,30.69113 c 0,-0.719879 0.638208,-2.181672 1.418239,-3.248428 l 1.418239,-1.939557 0.701857,0.701857 0.701858,0.701858 -0.639149,2.54657 L 34.961896,32 33.480948,32 32,32 32,30.69113 z"
       id="path2896" />
    <path
       style="fill:#487036"
       d="M 2.1925022,91.809661 2.5,87.619322 l 4,-0.05966 4,-0.05966 0.301426,-4.125744 0.301427,-4.125744 4.434145,-0.499793 4.434146,-0.499792 2.548504,-1.669844 2.548504,-1.669844 0.590924,-2.954619 C 26.254102,68.979488 28,67.808675 28,70.384777 l 0,1.384776 5.75,0.793016 5.75,0.793015 -4,0.626982 c -2.2,0.344841 -5.007187,1.177823 -6.238193,1.851073 l -2.238192,1.22409 -0.642064,2.558188 -0.642065,2.558188 1.987887,2.662948 1.987886,2.662947 8.118304,0.131462 8.118304,0.131461 1.159701,-1.397354 1.159701,-1.397355 -0.504041,-6.279294 -0.504042,-6.279293 -1.56806,-3.032294 -1.56806,-3.032294 4.054679,-3.422519 C 56.813028,55.636927 58.457699,52.911819 54.667134,52.176676 L 53,51.853352 l 0,1.466335 0,1.466335 -1.581787,0.606989 C 50.548229,55.726855 48.32059,56 46.467903,56 l -3.368523,0 -0.930602,-1.662894 -0.930602,-1.662893 1.380912,-3.304988 C 43.37859,47.551482 44,45.170989 44,44.079242 l 0,-1.984996 4,-3.214487 4,-3.214488 0,-4.172121 0,-4.17212 -2.5,-1.139076 -2.5,-1.139076 8.15e-4,-1.771439 c 0.0011,-2.359924 3.312365,-10.984619 4.78129,-12.453544 l 1.16659,-1.1665896 4.775652,1.2653866 c 5.757989,1.525674 10.023656,1.537337 11.837036,0.03237 l 1.342641,-1.1142938 2.055764,0.6524738 2.055763,0.652474 -1.398675,1.996887 -1.398674,1.996888 2.890899,8.175035 C 76.699095,27.80479 78,31.572387 78,31.680959 c 0,0.108571 1.829058,2.310713 4.064573,4.893649 l 4.064572,4.696247 -0.95767,0.95767 -0.957671,0.957671 -2.469375,-1.617997 -2.469376,-1.617997 -5.665644,0.665885 c -3.116104,0.366237 -5.904548,1.052441 -6.196543,1.524899 C 67.120871,42.613444 66.008524,43 64.940983,43 L 63,43 l 0,-1 0,-1 -1.545313,0 -1.545313,0 0.689555,3.75 c 0.379256,2.0625 1.011857,3.975 1.405781,4.25 0.393924,0.275 1.411258,1.85 2.260744,3.5 0.849485,1.65 2.712274,4.090941 4.139532,5.424314 C 69.832244,59.257687 71,60.720187 71,61.174314 L 71,62 68.678139,62 c -1.277024,0 -4.362309,0.695251 -6.85619,1.545001 l -4.53433,1.545001 -3.075815,3.007179 -3.075815,3.007179 -0.64745,2.94782 -0.64745,2.94782 0.652974,2.972968 0.652973,2.972967 3.118591,2.624121 3.118591,2.624122 3.807891,-0.608907 L 65,86.976365 l 0,0.976634 c 0,0.537148 -0.884873,1.450203 -1.966384,2.02901 L 61.067232,91.034386 57.033616,90.389385 53,89.744384 l 0,2.561385 0,2.561386 2.75,0.416591 c 1.5125,0.229124 -9.988374,0.484014 -25.557498,0.566422 L 1.8850043,96 2.1925022,91.809661 z M 55.928479,25.536985 C 58.250872,24.336029 60,22.182963 60,20.525201 60,20.354028 59.261593,19.930624 58.359095,19.584303 L 56.71819,18.954629 54.359095,20.500367 52,22.046106 l 0,2.476947 c 0,2.895779 0.193041,2.945602 3.928479,1.013932 z M 63.5,95.508524 c 0.55,-0.18347 2.229315,-0.604463 3.731811,-0.93554 L 69.963623,93.971026 71.35201,91.235513 72.740397,88.5 l 0.492091,-11.620383 0.49209,-11.620384 -0.932503,-1.666291 -0.932504,-1.666291 2.434164,0.610936 2.434163,0.610936 0.542431,-2.074262 L 77.812761,59 79.90638,59 82,59 l 0,-1.964816 0,-1.964816 1.934259,-1.035184 C 84.998101,53.465833 86.280896,53 86.784914,53 l 0.916397,0 -0.805025,5.092555 c -0.953696,6.033048 -2.11823,7.681888 -5.719466,8.098084 L 78.5,66.5 78.183578,69.25 77.867155,72 83.433578,72 89,72 l 0,1 0,1 -3.04966,0 -3.04966,0 -2.935853,1.518189 -2.935853,1.518188 -0.644744,2.568864 -0.644744,2.568864 2.004323,2.662948 2.004324,2.662947 5.375933,0.110242 c 2.956764,0.06063 6.613434,0.173134 8.125934,0.25 L 96,88 l 0,4 0,4 -16.75,-0.07895 C 70.0375,95.877632 62.95,95.691994 63.5,95.508524 z M 34.5,82 33.881966,81 34.5,80 35.118034,79 37.559017,79 40,79 l 0,0.8 c 0,2.425279 -4.298197,4.144558 -5.5,2.2 z m 50,0 L 83.881966,81 84.5,80 85.118034,79 87.559017,79 90,79 l 0,0.8 c 0,2.425279 -4.298197,4.144558 -5.5,2.2 z M 59.2,80.8 c -1.368275,-1.368275 -1.554138,-4.693855 -0.36687,-6.56424 l 0.802505,-1.26424 3.182183,1.587482 c 3.431148,1.711682 3.745943,2.519084 2.146998,5.506739 L 63.929632,82 62.164816,82 C 61.194167,82 59.86,81.46 59.2,80.8 z M 11.361626,71.5 c -0.316582,-0.825 -0.316582,-2.175 0,-3 l 0.575604,-1.5 2.424396,0 2.424396,0 0.624242,1.626748 0.624242,1.626748 -1.139698,1.373252 C 16.267975,72.382037 14.896088,73 13.84617,73 l -1.90894,0 -0.575604,-1.5 z M 33.015313,30.25 C 33.023735,29.8375 33.466844,28.825 34,28 l 0.969374,-1.5 0.01531,2.25 L 35,31 34,31 c -0.55,0 -0.993109,-0.3375 -0.984687,-0.75 z"
       id="path2894" />
    <path
       style="fill:#355327"
       d="M 2.1925022,91.809661 2.5,87.619322 l 4,-0.05966 4,-0.05966 0.307498,-4.25 0.307498,-4.25 2.97462,0 c 1.636042,0 4.571286,-0.667129 6.522765,-1.482509 L 24.160524,76.034982 25.2995,73.017491 C 26.393592,70.118908 28,68.918793 28,71 l 0,1 2.75,0.01531 c 1.5125,0.0084 3.357013,0.39999 4.098918,0.870152 l 1.348919,0.854839 -3.570176,0.669769 -3.570177,0.669769 -1.528742,2.182585 c -2.049785,2.926478 -1.925546,4.963401 0.49004,8.034321 l 2.018782,2.566466 8.495073,-0.06272 8.495072,-0.06272 0.616945,-2.458104 c 0.339319,-1.351957 0.371038,-5.170004 0.07048,-8.48455 L 47.16868,70.76868 46.08434,69.68434 C 45.487953,69.087953 45,67.79 45,66.8 l 0,-1.8 1.345012,0 c 0.739757,0 2.103095,-0.837671 3.029639,-1.861491 0.926544,-1.02382 3.583788,-2.70276 5.904987,-3.730979 C 57.600837,58.379311 59.95,56.960576 60.5,56.254786 l 1,-1.283255 3.775871,2.567866 3.775871,2.567865 -0.505061,0.817207 c -0.277784,0.449464 -1.94605,1.105405 -3.707257,1.457646 -1.761207,0.352242 -5.186475,1.803305 -7.611706,3.224585 l -4.409512,2.584146 -1.409103,3.372458 c -1.814824,4.343485 -1.777825,6.857414 0.161059,10.943309 l 1.570162,3.30887 2.863789,1.186221 2.863789,1.18622 3.066049,-0.673417 L 65,86.841089 l 0,1.044272 c 0,0.574349 -0.884873,1.517841 -1.966384,2.096648 L 61.067232,91.034386 57.033616,90.389385 53,89.744384 l 0,2.561385 0,2.561386 2.75,0.416591 c 1.5125,0.229124 -9.988374,0.484014 -25.557498,0.566422 L 1.8850043,96 2.1925022,91.809661 z M 66.476069,94.94007 69.452139,94.052046 71.203833,91.776023 72.955528,89.5 72.977764,80.899223 73,72.298447 74.097825,69.149223 C 75.477185,65.19239 76.578373,65.141863 77.35,69 l 0.6,3 5.525,0 5.525,0 0,0.869948 0,0.869947 -4.710539,0.530946 -4.71054,0.530946 -1.78946,2.209891 c -2.350832,2.903154 -2.258512,5.122303 0.351114,8.439905 l 2.140575,2.7213 5.109425,-0.24506 C 88.200759,87.793041 91.7375,87.754142 93.25,87.841382 L 96,88 96,92 96,96 79.75,95.91405 63.5,95.8281 66.476069,94.940075 z M 34.5,82 33.881966,81 34.5,80 35.118034,79 37.559017,79 40,79 40,79.964816 C 40,81.918465 35.482687,83.590022 34.5,82 z m 50,0 L 83.881966,81 84.5,80 c 0.784608,-1.269523 4.194115,-1.30395 4.968991,-0.05017 l 0.587025,0.949826 -1.962266,1.050174 C 85.665599,83.249333 85.275496,83.25478 84.5,82 z M 59.035184,80.065741 C 57.802906,77.763209 57.740319,75.95734 58.83313,74.23576 l 0.802505,-1.26424 3.182183,1.587482 c 3.431148,1.711682 3.745943,2.519084 2.146998,5.506739 L 63.929632,82 62,82 60.070368,82 59.035184,80.065741 z M 11.361626,71.5 c -0.316582,-0.825 -0.316582,-2.175 0,-3 L 11.93723,67 13.84617,67 15.755111,67 17,68.5 18.244889,70 17,71.5 15.755111,73 13.84617,73 11.93723,73 11.361626,71.5 z M 80,62.926676 l 0,-2.073324 1.738516,0.334807 1.738517,0.334808 0.334808,1.738517 L 84.146648,65 82.073324,65 80,65 80,62.926676 z M 42.401215,53.603166 41.865199,52.206331 44.1826,47.369549 46.5,42.532767 l 3.379265,-0.666522 3.379265,-0.666521 0.829126,-1.341555 0.829126,-1.341554 -0.551336,-2.508307 c -0.303235,-1.37957 -0.757529,-3.272789 -1.009544,-4.207156 l -0.458207,-1.698847 2.101892,-1.801153 c 1.156041,-0.990633 3.41662,-3.072925 5.023508,-4.627314 l 2.921616,-2.826161 2.027644,0.643549 L 67,22.134775 67,20.267388 c 0,-1.027064 -0.5625,-2.440976 -1.25,-3.142027 l -1.25,-1.274639 3,-2.420394 c 1.65,-1.331216 3.55125,-2.422629 4.225,-2.425361 L 72.95,11 l -0.552281,2.761404 -0.552281,2.761405 1.562728,4.488595 c 0.8595,2.468728 1.569276,5.298443 1.577281,6.288256 0.02132,2.63591 2.80904,7.59408 5.855484,10.414404 L 83.5,40.175765 81.5,39.409408 C 78.577707,38.289647 70.137253,38.848013 66.828141,40.380002 l -1.67186,0.774005 -2.012399,-1.077004 C 62.037063,39.484652 60.426899,39 59.565741,39 L 58,39 l 0,2.565741 c 0,1.411158 -0.455469,3.416793 -1.012153,4.456967 L 55.975694,47.913934 52.487847,48.568258 49,49.222582 l 0,1.31728 C 49,52.302029 46.215723,55 44.397187,55 L 42.93723,55 42.401215,53.603166 z M 33.015313,30.309017 C 33.023735,29.864058 33.466844,28.825 34,28 l 0.969374,-1.5 0.01531,1.690983 C 34.993109,29.121024 34.55,30.160081 34,30.5 l -1,0.618034 0.01531,-0.809017 z M 48.003738,21.75 c 0.0021,-0.6875 0.902056,-2.723376 2,-4.52417 C 51.101682,15.425037 52,13.287537 52,12.47583 L 52,11 l 3.277494,0 3.277494,0 2.222506,1.556704 C 61.999872,13.412891 63,14.52532 63,15.028769 l 0,0.915361 -5.503307,1.599855 -5.503306,1.599854 -1.031877,1.928081 c -1.160782,2.16894 -2.963466,2.582212 -2.957772,0.67808 z"
       id="path2892" />
    <path
       style="fill:#0d120b"
       d="M 2.3930112,94.418213 C 2.726855,93.548229 3,91.973229 3,90.918213 L 3,89 5.75,88.984687 c 1.5125,-0.0084 3.3466217,-0.393568 4.075826,-0.85588 L 11.151652,87.28824 11.707495,83.14412 12.263338,79 l 4.413786,0 4.413785,0 2.306818,-2.306818 c 1.26875,-1.26875 2.485796,-2.835774 2.704546,-3.482276 L 26.5,72.035448 l 3,0.896323 c 1.65,0.492978 2.4375,0.935002 1.75,0.982276 C 30.5625,73.961321 29.1,74.9 28,76 l -2,2 0,3.42742 0,3.42742 2.526389,1.987258 2.526389,1.987258 7.723611,-0.30348 c 4.247986,-0.166913 8.093047,-0.353518 8.54458,-0.414677 L 48.141938,88 47.78572,79.25 C 47.5898,74.4375 47.058778,69.710047 46.605671,68.74455 L 45.78184,66.9891 49.220526,65.552325 c 1.891278,-0.790226 4.020464,-2.137774 4.731525,-2.99455 L 55.244889,61 57.622445,61 60,61 l 0,1 c 0,0.55 -0.362062,1 -0.804583,1 -0.44252,0 -2.420061,1.47972 -4.394534,3.288267 l -3.58995,3.288267 -1.024859,3.711733 L 49.161215,77 l 0.917871,3.324257 0.917872,3.324257 2.562364,2.407216 2.562364,2.407216 3.918619,-0.10275 3.918619,-0.10275 -0.576857,0.933373 -0.576856,0.933374 L 57.652605,89.812096 52.5,89.5 l 0,2.454915 0,2.454915 2.5,0.695405 2.5,0.695405 L 29.643011,95.90032 1.7860224,96 2.3930112,94.418213 z M 67.174754,94.815104 70.849507,93.836912 72.424754,90.517327 74,87.197742 l 0,-8.039854 0,-8.039854 1.131677,-0.699415 1.131677,-0.699415 0.918013,1.640398 L 78.09938,73 l 2.20031,0.03041 2.20031,0.03041 -2,1.093915 c -1.1,0.601654 -2.5625,1.798978 -3.25,2.660721 l -1.25,1.566806 0,3.23629 0,3.236291 2.616304,2.057985 2.616304,2.057985 7.383696,-0.428342 L 96,88.114127 96,92.057063 96,96 79.75,95.896648 63.5,95.793295 67.174754,94.815104 z M 35.218166,80.845503 C 35.7377,79.2869 37.881604,79.0329 38.25,80.486305 l 0.25,0.986305 -1.865168,0.359198 -1.865168,0.359199 0.448502,-1.345504 z m 50,0 C 85.7377,79.2869 87.881604,79.0329 88.25,80.486305 l 0.25,0.986305 -1.865168,0.359198 -1.865168,0.359199 0.448502,-1.345504 z M 59.708849,80.375516 C 58.938434,79.6051 58.713455,74 59.452947,74 c 0.249121,0 1.619723,0.531619 3.045783,1.181375 L 65.091566,76.36275 64.795783,78.431375 64.5,80.5 62.458849,80.792183 c -1.122633,0.1607 -2.360133,-0.0268 -2.75,-0.416667 z M 12,70 12,67.860898 14.25,68.180449 16.5,68.5 l 0,1.5 0,1.5 -2.25,0.319551 L 12,72.139102 12,70 z M 45,50.559017 45,48 l 1,0 1,0 0,1.940983 C 47,51.008524 46.55,52.160081 46,52.5 l -1,0.618034 0,-2.559017 z M 59.75,36.267125 56,34.728608 l 0,-3.148697 0,-3.148696 2.826916,-1.669901 2.826917,-1.6699 3.546614,0.226888 3.546615,0.226888 1.677534,1.39223 1.677535,1.39223 -0.301066,3.076986 L 71.5,34.483621 69.75,34.815135 68,35.146648 68,33.573324 68,32 l -1.106989,0 -1.106989,0 0.575604,1.5 c 1.603338,4.17823 -0.760645,5.167613 -6.611626,2.767125 z"
       id="path2890" />
  </g>
</svg>
