<?xml version="1.0" encoding="UTF-8" standalone="no"?>
<!-- Generator: Adobe Illustrator 16.0.0, SVG Export Plug-In . SVG Version: 6.00 Build 0)  -->

<svg
   xmlns:dc="http://purl.org/dc/elements/1.1/"
   xmlns:cc="http://creativecommons.org/ns#"
   xmlns:rdf="http://www.w3.org/1999/02/22-rdf-syntax-ns#"
   xmlns:svg="http://www.w3.org/2000/svg"
   xmlns="http://www.w3.org/2000/svg"
   xmlns:sodipodi="http://sodipodi.sourceforge.net/DTD/sodipodi-0.dtd"
   xmlns:inkscape="http://www.inkscape.org/namespaces/inkscape"
   version="1.1"
   id="Layer_1"
   x="0px"
   y="0px"
   width="512px"
   height="512px"
   viewBox="0 0 512 512"
   enable-background="new 0 0 512 512"
   xml:space="preserve"
   inkscape:version="0.91 r13725"
   sodipodi:docname="pagavcs-lock.svg"><metadata
     id="metadata9"><rdf:RDF><cc:Work
         rdf:about=""><dc:format>image/svg+xml</dc:format><dc:type
           rdf:resource="http://purl.org/dc/dcmitype/StillImage" /></cc:Work></rdf:RDF></metadata><defs
     id="defs7" /><sodipodi:namedview
     pagecolor="#ffffff"
     bordercolor="#666666"
     borderopacity="1"
     objecttolerance="10"
     gridtolerance="10"
     guidetolerance="10"
     inkscape:pageopacity="0"
     inkscape:pageshadow="2"
     inkscape:window-width="1216"
     inkscape:window-height="638"
     id="namedview5"
     showgrid="false"
     inkscape:zoom="0.4609375"
     inkscape:cx="153.95632"
     inkscape:cy="274.01406"
     inkscape:window-x="181"
     inkscape:window-y="70"
     inkscape:window-maximized="0"
     inkscape:current-layer="Layer_1" /><path
     d="m 384,224 0,-96 C 384,57.438 326.594,0 256,0 185.422,0 128,57.438 128,128 l 0,96 c -35.344,0 -62.697757,12.38548 -62.915254,47.72881 L 64,448 c -0.217497,35.34333 19.452155,64.19326 54.79563,64 l 280.54499,-1.53406 C 434.68409,510.27267 448,483.344 448,448 l 0,-176.81356 C 448,235.84244 419.344,224 384,224 Z M 272,379.094 272,432 c 0,8.844 -7.156,16 -16,16 -8.844,0 -16,-7.156 -16,-16 l 0,-52.906 c -9.391,-5.563 -16,-15.375 -16,-27.094 0,-17.688 14.328,-32 32,-32 17.672,0 32,14.313 32,32 0,11.719 -6.609,21.531 -16,27.094 z M 320,224 l -128,0 0,-96 c 0,-35.313 28.703,-64 64,-64 35.281,0 64,28.688 64,64 z"
     id="path3"
     style="fill:#c2be29;fill-opacity:1;stroke:#706e18;stroke-width:12;stroke-miterlimit:4;stroke-dasharray:none;stroke-opacity:1"
     inkscape:connector-curvature="0"
     sodipodi:nodetypes="cssscssssssccssscssscccsssc" /></svg>