<?xml version="1.0" encoding="UTF-8" standalone="no"?>
<!-- Created with Inkscape (http://www.inkscape.org/) -->

<svg
   xmlns:dc="http://purl.org/dc/elements/1.1/"
   xmlns:cc="http://creativecommons.org/ns#"
   xmlns:rdf="http://www.w3.org/1999/02/22-rdf-syntax-ns#"
   xmlns:svg="http://www.w3.org/2000/svg"
   xmlns="http://www.w3.org/2000/svg"
   xmlns:xlink="http://www.w3.org/1999/xlink"
   xmlns:sodipodi="http://sodipodi.sourceforge.net/DTD/sodipodi-0.dtd"
   xmlns:inkscape="http://www.inkscape.org/namespaces/inkscape"
   width="821.96875"
   height="820.6875"
   id="svg2"
   version="1.1"
   inkscape:version="0.48.2 r9819"
   sodipodi:docname="other-app-icon.svg"
   inkscape:export-filename="/home/susw/projects/pagavcs/trunk/java/src/hu/pagavcs/client/resources/other-app-icon.png"
   inkscape:export-xdpi="14.02"
   inkscape:export-ydpi="14.02">
  <defs
     id="defs4">
    <filter
       id="filter2990"
       x="-0.25"
       width="1.5"
       y="-0.25"
       height="1.5"
       inkscape:menu="Non realistic 3D shaders"
       inkscape:menu-tooltip="Brushed aluminium shader"
       inkscape:label="Aluminium"
       color-interpolation-filters="sRGB">
      <feGaussianBlur
         id="feGaussianBlur2992"
         result="result8"
         stdDeviation="7" />
      <feComposite
         id="feComposite2994"
         in2="SourceGraphic"
         in="result8"
         operator="xor"
         result="result6" />
      <feDisplacementMap
         id="feDisplacementMap2996"
         in2="result6"
         result="result4"
         scale="75"
         yChannelSelector="A"
         xChannelSelector="A"
         in="result6" />
      <feComposite
         id="feComposite2998"
         in2="SourceGraphic"
         k1="1"
         in="result4"
         operator="arithmetic"
         result="result2"
         k2="0"
         k3="0"
         k4="0" />
    </filter>
    <filter
       id="filter3827"
       inkscape:label="Drop shadow"
       width="1.5"
       height="1.5"
       x="-0.25"
       y="-0.25"
       color-interpolation-filters="sRGB">
      <feGaussianBlur
         id="feGaussianBlur3829"
         in="SourceAlpha"
         stdDeviation="2"
         result="blur" />
      <feColorMatrix
         id="feColorMatrix3831"
         result="bluralpha"
         type="matrix"
         values="1 0 0 0 0 0 1 0 0 0 0 0 1 0 0 0 0 0 0.5 0 " />
      <feOffset
         id="feOffset3833"
         in="bluralpha"
         dx="4"
         dy="4"
         result="offsetBlur" />
      <feMerge
         id="feMerge3835"
         result="fbSourceGraphic">
        <feMergeNode
           id="feMergeNode3837"
           in="offsetBlur" />
        <feMergeNode
           id="feMergeNode3839"
           in="SourceGraphic" />
      </feMerge>
      <feColorMatrix
         result="fbSourceGraphicAlpha"
         in="fbSourceGraphic"
         values="0 0 0 -1 0 0 0 0 -1 0 0 0 0 -1 0 0 0 0 1 0"
         id="feColorMatrix3897" />
      <feGaussianBlur
         id="feGaussianBlur3899"
         in="fbSourceGraphicAlpha"
         stdDeviation="2"
         result="blur" />
      <feColorMatrix
         id="feColorMatrix3901"
         result="bluralpha"
         type="matrix"
         values="1 0 0 0 0 0 1 0 0 0 0 0 1 0 0 0 0 0 0.5 0 " />
      <feOffset
         id="feOffset3903"
         in="bluralpha"
         dx="14"
         dy="14"
         result="offsetBlur" />
      <feMerge
         id="feMerge3905">
        <feMergeNode
           id="feMergeNode3907"
           in="offsetBlur" />
        <feMergeNode
           id="feMergeNode3909"
           in="fbSourceGraphic" />
      </feMerge>
    </filter>
    <filter
       id="filter4193"
       inkscape:label="Refractive gel B"
       inkscape:menu="Ridges"
       inkscape:menu-tooltip="Gel effect with strong refraction"
       height="1.4"
       width="1.4"
       y="-0.2"
       x="-0.2"
       color-interpolation-filters="sRGB">
      <feOffset
         id="feOffset4195"
         dx="3"
         dy="3"
         in="SourceAlpha"
         result="result3" />
      <feGaussianBlur
         id="feGaussianBlur4197"
         stdDeviation="8"
         in="result3"
         result="result1" />
      <feComposite
         id="feComposite4199"
         in2="result1"
         operator="in"
         in="SourceGraphic"
         result="result2" />
      <feComposite
         id="feComposite4201"
         in2="result2"
         operator="out"
         result="fbSourceGraphic"
         in="result2" />
      <feColorMatrix
         id="feColorMatrix4203"
         result="fbSourceGraphicAlpha"
         in="fbSourceGraphic"
         values="0 0 0 -1 0 0 0 0 -1 0 0 0 0 1 0 0 0 0 6 0 " />
      <feGaussianBlur
         id="feGaussianBlur4205"
         result="result0"
         in="fbSourceGraphicAlpha"
         stdDeviation="3" />
      <feSpecularLighting
         id="feSpecularLighting4207"
         specularExponent="20"
         specularConstant="2"
         surfaceScale="5"
         lighting-color="#ffffff"
         result="result1"
         in="result0">
        <feDistantLight
           id="feDistantLight4209"
           azimuth="235"
           elevation="35" />
      </feSpecularLighting>
      <feComposite
         id="feComposite4211"
         in2="fbSourceGraphicAlpha"
         operator="in"
         result="result2"
         in="result1" />
      <feComposite
         id="feComposite4213"
         in2="result2"
         in="fbSourceGraphic"
         operator="arithmetic"
         k2="1.5"
         k3="3"
         result="result91"
         k1="0"
         k4="0" />
      <feBlend
         id="feBlend4215"
         in2="result91"
         mode="screen" />
      <feConvolveMatrix
         id="feConvolveMatrix4217"
         order="3 3"
         kernelMatrix="2 0 1 0 1 0 0 0 0 "
         targetX="1"
         targetY="1"
         divisor="3" />
    </filter>
    <filter
       id="filter3224"
       inkscape:label="Specular light"
       inkscape:menu="ABCs"
       inkscape:menu-tooltip="Basic specular bevel to use for building textures"
       color-interpolation-filters="sRGB">
      <feGaussianBlur
         id="feGaussianBlur3226"
         result="result0"
         in="SourceAlpha"
         stdDeviation="6" />
      <feSpecularLighting
         id="feSpecularLighting3228"
         specularExponent="25"
         specularConstant="1"
         surfaceScale="10"
         lighting-color="#ffffff"
         result="result1"
         in="result0">
        <feDistantLight
           id="feDistantLight3230"
           azimuth="235"
           elevation="45" />
      </feSpecularLighting>
      <feComposite
         id="feComposite3232"
         in2="result1"
         k3="1"
         k2="1"
         operator="arithmetic"
         result="result4"
         in="SourceGraphic"
         k1="0"
         k4="0" />
      <feComposite
         id="feComposite3234"
         in2="SourceAlpha"
         operator="in"
         result="result2"
         in="result4" />
    </filter>
    <filter
       id="filter4130"
       inkscape:label="Growing cells"
       inkscape:menu="Overlays"
       inkscape:menu-tooltip="Random rounded living cells like fill"
       color-interpolation-filters="sRGB">
      <feTurbulence
         id="feTurbulence4132"
         type="fractalNoise"
         baseFrequency="0.1"
         numOctaves="3"
         result="result7" />
      <feColorMatrix
         id="feColorMatrix4134"
         values="0"
         result="result8"
         type="saturate" />
      <feColorMatrix
         id="feColorMatrix4136"
         values="1 0 0 0 0 0 1 0 0 0 0 0 1 0 0 0 0 0 20 -12 "
         result="result6"
         type="matrix" />
      <feGaussianBlur
         id="feGaussianBlur4138"
         stdDeviation="2"
         result="result5"
         in="result6" />
      <feColorMatrix
         id="feColorMatrix4140"
         in="result5"
         values="1 0 0 0 0 0 1 0 0 0 0 0 1 0 0 0 0 0 10 -0.1 "
         result="result0"
         type="matrix" />
      <feComposite
         id="feComposite4142"
         in2="SourceGraphic"
         k1="0.8"
         k2="1"
         operator="arithmetic"
         result="result3"
         in="result0"
         k3="0"
         k4="0" />
      <feComposite
         id="feComposite4144"
         in2="result8"
         operator="atop"
         result="result9" />
      <feBlend
         id="feBlend4146"
         in2="SourceGraphic"
         mode="normal"
         result="result9" />
      <feComposite
         id="feComposite4148"
         in2="SourceGraphic"
         in="result9"
         operator="atop"
         result="result2" />
    </filter>
    <filter
       id="filter4188"
       inkscape:label="Garden of Delights"
       inkscape:menu="Overlays"
       inkscape:menu-tooltip="Phantasmagorical turbulent wisps, like Hieronymus Bosch's Garden of Delights"
       x="-0.15000001"
       width="1.3"
       y="-0.15000001"
       height="1.3"
       color-interpolation-filters="sRGB">
      <feTurbulence
         id="feTurbulence4190"
         result="result1"
         baseFrequency="0.005 0.01"
         numOctaves="8"
         type="fractalNoise"
         seed="20" />
      <feColorMatrix
         id="feColorMatrix4192"
         result="result3"
         values="0 0 0 0 1 0 0 0 0 1 0 0 0 0 1 0 0 0 1.2 -0.4 " />
      <feConvolveMatrix
         id="feConvolveMatrix4194"
         order="3 3"
         kernelMatrix="3 0 0 0 2 0 0 0 -1 "
         targetX="1"
         targetY="1"
         divisor="2"
         result="result8" />
      <feComposite
         id="feComposite4196"
         in2="SourceGraphic"
         result="fbSourceGraphic"
         operator="atop"
         in="result8" />
      <feTurbulence
         id="feTurbulence4198"
         baseFrequency="0.027 0.025"
         numOctaves="7"
         type="turbulence"
         seed="20" />
      <feColorMatrix
         id="feColorMatrix4200"
         values="1 0 0 0 0 0 1 0 0 0 0 0 1 0 0 0 0 0 4.7 -2 "
         result="result5" />
      <feComposite
         id="feComposite4202"
         in2="result5"
         operator="in"
         in="fbSourceGraphic"
         result="result6" />
      <feDisplacementMap
         id="feDisplacementMap4204"
         in2="result5"
         result="result4"
         scale="48"
         yChannelSelector="A"
         xChannelSelector="R"
         in="result6" />
      <feFlood
         id="feFlood4206"
         flood-color="rgb(222,217,217)"
         flood-opacity="1"
         result="result9" />
      <feComposite
         id="feComposite4208"
         in2="result4"
         operator="in"
         result="result2" />
      <feComposite
         id="feComposite4210"
         in2="fbSourceGraphic"
         operator="atop"
         in="result2"
         result="result91" />
      <feBlend
         id="feBlend4212"
         in2="result91"
         mode="darken" />
    </filter>
    <linearGradient
       id="linearGradient1913-6">
      <stop
         style="stop-color:#1683d2;stop-opacity:1;"
         offset="0"
         id="stop1915-3" />
      <stop
         style="stop-color:#347ce2;stop-opacity:1;"
         offset="1"
         id="stop1917-1" />
    </linearGradient>
    <linearGradient
       inkscape:collect="always"
       xlink:href="#linearGradient5891-0"
       id="linearGradient2952"
       gradientUnits="userSpaceOnUse"
       gradientTransform="matrix(-1.4306351,0,0,1.4301566,348.10818,242.82475)"
       x1="15.456784"
       y1="8.734375"
       x2="25.561066"
       y2="13.526372" />
    <linearGradient
       inkscape:collect="always"
       id="linearGradient5891-0">
      <stop
         style="stop-color:#ffffff;stop-opacity:1;"
         offset="0"
         id="stop5893-3" />
      <stop
         style="stop-color:#ffffff;stop-opacity:0;"
         offset="1"
         id="stop5895-0" />
    </linearGradient>
    <radialGradient
       inkscape:collect="always"
       xlink:href="#linearGradient8662-5"
       id="radialGradient2946"
       gradientUnits="userSpaceOnUse"
       gradientTransform="matrix(1,0,0,0.536723,0,16.87306)"
       cx="24.837126"
       cy="36.421127"
       fx="24.837126"
       fy="36.421127"
       r="15.644737" />
    <linearGradient
       inkscape:collect="always"
       id="linearGradient8662-5">
      <stop
         style="stop-color:#000000;stop-opacity:1;"
         offset="0"
         id="stop8664-9" />
      <stop
         style="stop-color:#000000;stop-opacity:0;"
         offset="1"
         id="stop8666-6" />
    </linearGradient>
    <linearGradient
       inkscape:collect="always"
       xlink:href="#linearGradient1913-6-9"
       id="linearGradient2948"
       gradientUnits="userSpaceOnUse"
       gradientTransform="translate(297.46222,240.46999)"
       x1="13.1875"
       y1="35.9375"
       x2="17.9375"
       y2="38.875" />
    <linearGradient
       id="linearGradient1913-6-9">
      <stop
         style="stop-color:#1683d2;stop-opacity:1;"
         offset="0"
         id="stop1915-3-0" />
      <stop
         style="stop-color:#347ce2;stop-opacity:1;"
         offset="1"
         id="stop1917-1-4" />
    </linearGradient>
    <linearGradient
       inkscape:collect="always"
       xlink:href="#linearGradient5132-4"
       id="linearGradient2950"
       gradientUnits="userSpaceOnUse"
       gradientTransform="translate(297.46222,240.46999)"
       x1="21.55229"
       y1="29.205048"
       x2="18.072493"
       y2="55.692348" />
    <linearGradient
       inkscape:collect="always"
       id="linearGradient5132-4">
      <stop
         style="stop-color:white;stop-opacity:1;"
         offset="0"
         id="stop5134-4" />
      <stop
         style="stop-color:white;stop-opacity:0;"
         offset="1"
         id="stop5136-4" />
    </linearGradient>
    <linearGradient
       inkscape:collect="always"
       xlink:href="#linearGradient5891-0-5"
       id="linearGradient2952-8"
       gradientUnits="userSpaceOnUse"
       gradientTransform="matrix(-1.4306351,0,0,1.4301566,348.10818,242.82475)"
       x1="15.456784"
       y1="8.734375"
       x2="25.561066"
       y2="13.526372" />
    <linearGradient
       inkscape:collect="always"
       id="linearGradient5891-0-5">
      <stop
         style="stop-color:#ffffff;stop-opacity:1;"
         offset="0"
         id="stop5893-3-1" />
      <stop
         style="stop-color:#ffffff;stop-opacity:0;"
         offset="1"
         id="stop5895-0-2" />
    </linearGradient>
    <linearGradient
       y2="13.526372"
       x2="25.561066"
       y1="8.734375"
       x1="15.456784"
       gradientTransform="matrix(-1.4306351,0,0,1.4301566,348.10818,242.82475)"
       gradientUnits="userSpaceOnUse"
       id="linearGradient3148"
       xlink:href="#linearGradient5891-0-5"
       inkscape:collect="always" />
    <linearGradient
       id="linearGradient1913">
      <stop
         style="stop-color:#73d216;stop-opacity:1"
         offset="0"
         id="stop1915" />
      <stop
         style="stop-color:#8ae234;stop-opacity:1"
         offset="1"
         id="stop1917" />
    </linearGradient>
    <linearGradient
       inkscape:collect="always"
       xlink:href="#linearGradient5891"
       id="linearGradient2939"
       gradientUnits="userSpaceOnUse"
       gradientTransform="matrix(1.4306351,0,0,1.4301566,189.90315,235.48567)"
       x1="15.456784"
       y1="8.734375"
       x2="25.561066"
       y2="13.526372" />
    <linearGradient
       inkscape:collect="always"
       id="linearGradient5891">
      <stop
         style="stop-color:#ffffff;stop-opacity:1;"
         offset="0"
         id="stop5893" />
      <stop
         style="stop-color:#ffffff;stop-opacity:0;"
         offset="1"
         id="stop5895" />
    </linearGradient>
    <linearGradient
       id="linearGradient2992">
      <stop
         id="stop2994"
         offset="0"
         style="stop-color:#000000;stop-opacity:1;" />
      <stop
         style="stop-color:#000000;stop-opacity:0.49803922;"
         offset="0.91666669"
         id="stop3000" />
      <stop
         id="stop2996"
         offset="1"
         style="stop-color:#000000;stop-opacity:0;" />
    </linearGradient>
    <linearGradient
       id="linearGradient2635">
      <stop
         style="stop-color:#ffffff;stop-opacity:1;"
         offset="0"
         id="stop2637" />
      <stop
         id="stop2655"
         offset="0.55952382"
         style="stop-color:#ffffff;stop-opacity:0.71951222;" />
      <stop
         style="stop-color:#ffffff;stop-opacity:0;"
         offset="1"
         id="stop2639" />
    </linearGradient>
    <linearGradient
       id="linearGradient2617">
      <stop
         style="stop-color:#fbfbfa;stop-opacity:1;"
         offset="0"
         id="stop2619" />
      <stop
         style="stop-color:#d3d7cf"
         offset="1"
         id="stop2621" />
    </linearGradient>
    <linearGradient
       id="linearGradient2698">
      <stop
         style="stop-color:#555753"
         offset="0"
         id="stop2700" />
      <stop
         id="stop2706"
         offset="0.70238096"
         style="stop-color:#a3a5a2;stop-opacity:1;" />
      <stop
         style="stop-color:#888a85"
         offset="1"
         id="stop2702" />
    </linearGradient>
    <radialGradient
       r="9.5"
       fy="34.65625"
       fx="15.3125"
       cy="34.65625"
       cx="15.3125"
       gradientTransform="matrix(1,0,0,1.003289,0,-0.114001)"
       gradientUnits="userSpaceOnUse"
       id="radialGradient3029"
       xlink:href="#linearGradient3198"
       inkscape:collect="always" />
    <linearGradient
       inkscape:collect="always"
       id="linearGradient3198">
      <stop
         style="stop-color:black;stop-opacity:1;"
         offset="0"
         id="stop3200" />
      <stop
         style="stop-color:black;stop-opacity:0;"
         offset="1"
         id="stop3202" />
    </linearGradient>
    <radialGradient
       inkscape:collect="always"
       xlink:href="#linearGradient3198"
       id="radialGradient3208"
       gradientUnits="userSpaceOnUse"
       gradientTransform="matrix(1,0,0,1.003289,0,-0.114001)"
       cx="15.3125"
       cy="34.65625"
       fx="15.3125"
       fy="34.65625"
       r="9.5" />
    <linearGradient
       inkscape:collect="always"
       xlink:href="#linearGradient2903"
       id="linearGradient3112"
       gradientUnits="userSpaceOnUse"
       gradientTransform="matrix(0.965926,-0.258819,0.258819,0.965926,7.28156,0.755642)"
       x1="22.96538"
       y1="35.310566"
       x2="12.641191"
       y2="11.423575" />
    <linearGradient
       inkscape:collect="always"
       id="linearGradient2903">
      <stop
         style="stop-color:#888a85;stop-opacity:1"
         offset="0"
         id="stop2905" />
      <stop
         style="stop-color:#d3d7cf;stop-opacity:1"
         offset="1"
         id="stop2907" />
    </linearGradient>
    <linearGradient
       inkscape:collect="always"
       xlink:href="#linearGradient2911"
       id="linearGradient3114"
       gradientUnits="userSpaceOnUse"
       gradientTransform="matrix(0.965926,-0.258819,0.258819,0.965926,7.28156,0.755642)"
       x1="17.413136"
       y1="7.8708334"
       x2="17.027729"
       y2="52.50489" />
    <linearGradient
       inkscape:collect="always"
       id="linearGradient2911">
      <stop
         style="stop-color:white;stop-opacity:1;"
         offset="0"
         id="stop2913" />
      <stop
         style="stop-color:white;stop-opacity:0;"
         offset="1"
         id="stop2915" />
    </linearGradient>
    <radialGradient
       inkscape:collect="always"
       xlink:href="#linearGradient2881"
       id="radialGradient3116"
       gradientUnits="userSpaceOnUse"
       gradientTransform="matrix(0.977466,-0.261911,0.261911,0.977466,-2.444375,8.389657)"
       cx="31"
       cy="12"
       fx="31"
       fy="12"
       r="11.125" />
    <linearGradient
       inkscape:collect="always"
       id="linearGradient2881">
      <stop
         style="stop-color:black;stop-opacity:1;"
         offset="0"
         id="stop2883" />
      <stop
         style="stop-color:black;stop-opacity:0;"
         offset="1"
         id="stop2885" />
    </linearGradient>
    <linearGradient
       inkscape:collect="always"
       xlink:href="#linearGradient2895"
       id="linearGradient3118"
       gradientUnits="userSpaceOnUse"
       gradientTransform="matrix(0.909106,-0.243594,0.243594,0.909106,8.676761,1.417073)"
       x1="21.788134"
       y1="21.876961"
       x2="10.211396"
       y2="3.4232786" />
    <linearGradient
       inkscape:collect="always"
       id="linearGradient2895">
      <stop
         style="stop-color:#d3d7cf;stop-opacity:1;"
         offset="0"
         id="stop2897" />
      <stop
         style="stop-color:#888a85;stop-opacity:1"
         offset="1"
         id="stop2899" />
    </linearGradient>
    <linearGradient
       inkscape:collect="always"
       xlink:href="#linearGradient2859"
       id="linearGradient3120"
       gradientUnits="userSpaceOnUse"
       gradientTransform="matrix(0.965926,-0.258819,0.258819,0.965926,-4.11682,6.729656)"
       x1="16.487501"
       y1="13.970829"
       x2="32.566654"
       y2="30.758347" />
    <linearGradient
       inkscape:collect="always"
       id="linearGradient2859">
      <stop
         style="stop-color:white;stop-opacity:1;"
         offset="0"
         id="stop2861" />
      <stop
         style="stop-color:white;stop-opacity:0;"
         offset="1"
         id="stop2863" />
    </linearGradient>
    <linearGradient
       inkscape:collect="always"
       xlink:href="#linearGradient2892"
       id="linearGradient3122"
       gradientUnits="userSpaceOnUse"
       gradientTransform="matrix(0.965926,-0.258819,0.258819,0.965926,-4.116824,6.729647)"
       x1="28.357094"
       y1="22.794661"
       x2="17.732124"
       y2="5.1875181" />
    <linearGradient
       inkscape:collect="always"
       id="linearGradient2892">
      <stop
         style="stop-color:white;stop-opacity:1;"
         offset="0"
         id="stop2894" />
      <stop
         style="stop-color:white;stop-opacity:0;"
         offset="1"
         id="stop2896" />
    </linearGradient>
    <linearGradient
       inkscape:collect="always"
       xlink:href="#linearGradient2903"
       id="linearGradient3124"
       gradientUnits="userSpaceOnUse"
       gradientTransform="matrix(0.965926,-0.258819,0.258819,0.965926,7.28156,0.755642)"
       x1="22.96538"
       y1="35.310566"
       x2="12.641191"
       y2="11.423575" />
    <linearGradient
       inkscape:collect="always"
       xlink:href="#linearGradient2911"
       id="linearGradient3126"
       gradientUnits="userSpaceOnUse"
       gradientTransform="matrix(0.965926,-0.258819,0.258819,0.965926,7.28156,0.755642)"
       x1="17.413136"
       y1="7.8708334"
       x2="17.027729"
       y2="52.50489" />
    <radialGradient
       inkscape:collect="always"
       xlink:href="#linearGradient2881"
       id="radialGradient3128"
       gradientUnits="userSpaceOnUse"
       gradientTransform="matrix(0.977466,-0.261911,0.261911,0.977466,-2.444375,8.389657)"
       cx="31"
       cy="12"
       fx="31"
       fy="12"
       r="11.125" />
    <linearGradient
       inkscape:collect="always"
       xlink:href="#linearGradient2895"
       id="linearGradient3130"
       gradientUnits="userSpaceOnUse"
       gradientTransform="matrix(0.909106,-0.243594,0.243594,0.909106,8.676761,1.417073)"
       x1="21.788134"
       y1="21.876961"
       x2="10.211396"
       y2="3.4232786" />
    <linearGradient
       inkscape:collect="always"
       xlink:href="#linearGradient2859"
       id="linearGradient3132"
       gradientUnits="userSpaceOnUse"
       gradientTransform="matrix(0.965926,-0.258819,0.258819,0.965926,-4.11682,6.729656)"
       x1="16.487501"
       y1="13.970829"
       x2="32.566654"
       y2="30.758347" />
    <linearGradient
       inkscape:collect="always"
       xlink:href="#linearGradient2892"
       id="linearGradient3134"
       gradientUnits="userSpaceOnUse"
       gradientTransform="matrix(0.965926,-0.258819,0.258819,0.965926,-4.116824,6.729647)"
       x1="28.357094"
       y1="22.794661"
       x2="17.732124"
       y2="5.1875181" />
    <linearGradient
       inkscape:collect="always"
       xlink:href="#linearGradient2895"
       id="linearGradient3191"
       gradientUnits="userSpaceOnUse"
       gradientTransform="translate(21.523699,173.2357)"
       x1="14.495688"
       y1="29.88039"
       x2="26.737476"
       y2="42.564117" />
    <linearGradient
       inkscape:collect="always"
       xlink:href="#linearGradient2892"
       id="linearGradient3171"
       gradientUnits="userSpaceOnUse"
       x1="14.375"
       y1="31.0625"
       x2="30.4375"
       y2="44.0625" />
    <radialGradient
       inkscape:collect="always"
       xlink:href="#linearGradient3025"
       id="radialGradient3187"
       gradientUnits="userSpaceOnUse"
       gradientTransform="matrix(1,0,0,0.996403,-1.476301,173.3598)"
       cx="42.5"
       cy="34.5"
       fx="42.5"
       fy="34.5"
       r="8.6875" />
    <linearGradient
       inkscape:collect="always"
       id="linearGradient3025">
      <stop
         style="stop-color:black;stop-opacity:1;"
         offset="0"
         id="stop3027" />
      <stop
         style="stop-color:black;stop-opacity:0;"
         offset="1"
         id="stop3029" />
    </linearGradient>
    <linearGradient
       inkscape:collect="always"
       xlink:href="#linearGradient2903"
       id="linearGradient3184"
       gradientUnits="userSpaceOnUse"
       gradientTransform="translate(21.523699,173.2357)"
       x1="16.793787"
       y1="30.675884"
       x2="22.052893"
       y2="37.128235" />
    <linearGradient
       inkscape:collect="always"
       xlink:href="#linearGradient3071"
       id="linearGradient3177"
       gradientUnits="userSpaceOnUse"
       x1="20.806717"
       y1="36.825302"
       x2="17.449335"
       y2="30.900536" />
    <linearGradient
       inkscape:collect="always"
       id="linearGradient3071">
      <stop
         style="stop-color:#eeeeec;stop-opacity:1;"
         offset="0"
         id="stop3073" />
      <stop
         style="stop-color:#eeeeec;stop-opacity:0;"
         offset="1"
         id="stop3075" />
    </linearGradient>
    <linearGradient
       inkscape:collect="always"
       xlink:href="#linearGradient3065"
       id="linearGradient3179"
       gradientUnits="userSpaceOnUse"
       x1="17.659994"
       y1="36.680489"
       x2="23.031794"
       y2="31.111195" />
    <linearGradient
       inkscape:collect="always"
       id="linearGradient3065">
      <stop
         style="stop-color:#eeeeec;stop-opacity:1;"
         offset="0"
         id="stop3067" />
      <stop
         style="stop-color:#eeeeec;stop-opacity:0;"
         offset="1"
         id="stop3069" />
    </linearGradient>
    <linearGradient
       y2="31.111195"
       x2="23.031794"
       y1="36.680489"
       x1="17.659994"
       gradientUnits="userSpaceOnUse"
       id="linearGradient3294"
       xlink:href="#linearGradient3065"
       inkscape:collect="always" />
  </defs>
  <sodipodi:namedview
     id="base"
     pagecolor="#ffffff"
     bordercolor="#666666"
     borderopacity="1.0"
     inkscape:pageopacity="0.0"
     inkscape:pageshadow="2"
     inkscape:zoom="0.32"
     inkscape:cx="-176.92449"
     inkscape:cy="312.88005"
     inkscape:document-units="px"
     inkscape:current-layer="g4165"
     showgrid="false"
     inkscape:window-width="1243"
     inkscape:window-height="776"
     inkscape:window-x="37"
     inkscape:window-y="0"
     inkscape:window-maximized="1"
     fit-margin-top="0"
     fit-margin-left="0"
     fit-margin-right="0"
     fit-margin-bottom="0" />
  <metadata
     id="metadata7">
    <rdf:RDF>
      <cc:Work
         rdf:about="">
        <dc:format>image/svg+xml</dc:format>
        <dc:type
           rdf:resource="http://purl.org/dc/dcmitype/StillImage" />
        <dc:title></dc:title>
      </cc:Work>
    </rdf:RDF>
  </metadata>
  <g
     inkscape:groupmode="layer"
     id="layer2"
     inkscape:label="bg"
     transform="translate(2.28125,-22.03125)">
    <rect
       style="fill:#e5d620;fill-opacity:1;fill-rule:nonzero;stroke:#0f1080;stroke-width:21.8179493;stroke-miterlimit:4;stroke-opacity:1;stroke-dasharray:none"
       id="rect3125"
       width="800.16284"
       height="798.88361"
       x="8.6269913"
       y="32.930721"
       ry="45.598377" />
  </g>
  <g
     inkscape:groupmode="layer"
     id="layer3"
     inkscape:label="Réteg"
     transform="translate(2.28125,-22.03125)" />
  <g
     inkscape:label="1. réteg"
     inkscape:groupmode="layer"
     id="layer1"
     style="display:inline"
     transform="translate(2.28125,-22.03125)">
    <path
       style="fill:#0f1080;fill-opacity:1;filter:url(#filter3827)"
       d="m 322.34375,51.6875 c -11.31502,2.70992 -13.1376,16.206977 -16.25,25.5625 -67.85121,235.49728 -135.82436,471.07036 -203.1875,706.71875 -0.0938,7.99954 9.46233,10.46524 15.875,9.03125 111.14781,-0.94519 222.37813,1.67828 333.46875,-2.0625 6.91056,-0.41373 13.016,-5.6963 13.51101,-12.79166 15.46982,-43.05919 28.07294,-87.43475 43.83274,-130.23959 9.3655,-20.79554 31.795,-29.76135 50.44555,-40.17619 20.63654,-11.43555 40.79707,-23.26562 63.17945,-31.04256 29.38562,-11.19676 60.14008,-18.28368 90.21875,-26.96875 13.82184,-7.41223 -4.21582,-19.22356 -10.34375,-24.875 C 622.5966,450.30058 548.39364,368.38899 487.32158,276.81664 435.08011,202.90811 383.88797,128.19107 331,54.78125 c -2.35718,-2.054645 -5.44981,-3.406201 -8.65625,-3.09375 z m 15.53125,89.34375 c 48.58424,67.22659 96.05929,135.24372 144.03125,202.90625 -63.54237,0.91043 -127.08486,1.8188 -190.625,2.875 27.21998,23.74489 54.84216,47.03181 81.71875,71.25 -3.26603,27.09659 -9.47239,53.95064 -11.5625,81.21875 21.91379,27.55905 44.96775,54.42058 69.18432,79.88604 13.09092,13.02757 28.9044,22.72335 44.31568,32.80146 2.31194,2.95526 -2.97965,5.99351 -2.45238,9.28593 -13.42223,38.59576 -26.74878,77.22498 -40.29762,115.77657 -90.62319,-0.059 -181.2692,2.36544 -271.875,-0.375 9.64353,-32.42464 18.28081,-65.29401 27.80873,-97.8328 47.58222,-166.51974 95.74545,-332.91869 143.8232,-499.26674 1.20487,-8.85016 2.35871,-2.36268 5.93057,1.47454 z m 145.5625,237.4375 c 11.41978,1.31833 25.21045,1.55178 32.18541,12.33039 37.82734,42.31465 74.9541,85.06591 111.09584,128.82586 -37.78005,14.26515 -73.17989,33.71622 -108.8125,52.4375 -6.9675,3.16602 -14.75209,0.8717 -20.14343,-4.2023 -10.47171,-8.02418 -22.05537,-14.68874 -31.79407,-23.57895 -14.11715,-15.11216 -26.26094,-32.1213 -40.375,-47.34375 -5.58858,-6.9765 -12.65572,-13.71378 -15.8125,-21.9375 1.6785,-11.57903 13.16805,-17.67527 19.82945,-26.21739 19.63568,-20.44914 37.22152,-43.97649 47.3268,-70.50136 2.17098,-0.20414 4.33262,-0.0222 6.5,0.1875 z m -70.01786,-12.36161 c 2.32434,0.24045 45.14637,2.12205 41.33592,5.18041 -4.91528,5.82235 -35.57823,39.3916 -41.19752,43.76156 -7.78787,-6.2173 -36.91068,-42.48152 -44.64733,-48.90625 11.97917,-0.24978 32.52975,0.21298 44.50893,-0.0357 z"
       id="path3050"
       inkscape:connector-curvature="0"
       sodipodi:nodetypes="ccccccccccccccccccccccccccccccccccccccccccc" />
  </g>
  <g
     inkscape:groupmode="layer"
     id="layer4"
     inkscape:label="eye"
     transform="translate(2.28125,-22.03125)">
    <path
       sodipodi:type="arc"
       style="fill:#ff0000;fill-opacity:1;stroke:none;filter:url(#filter4188)"
       id="path3256"
       sodipodi:cx="453.5585"
       sodipodi:cy="411.92548"
       sodipodi:rx="49.497475"
       sodipodi:ry="36.36549"
       d="m 503.05598,411.92548 c 0,20.0841 -22.16078,36.36549 -49.49748,36.36549 -27.3367,0 -49.49747,-16.28139 -49.49747,-36.36549 0,-20.08411 22.16077,-36.36549 49.49747,-36.36549 27.3367,0 49.49748,16.28138 49.49748,36.36549 z"
       transform="matrix(0.9787415,0,0,0.83186091,-33.542046,41.791459)" />
  </g>
  <g
     style="display:inline"
     id="g4165"
     inkscape:groupmode="layer"
     inkscape:label="1. réteg másolata"
     transform="translate(2.28125,-22.03125)">
    <path
       sodipodi:nodetypes="ccccccccccccccccccccccccccccccccccccccccccc"
       inkscape:connector-curvature="0"
       id="path4167"
       d="m 322.34375,51.6875 c -11.31502,2.70992 -13.1376,16.206977 -16.25,25.5625 -67.85121,235.49728 -135.82436,471.07036 -203.1875,706.71875 -0.0938,7.99954 9.46233,10.46524 15.875,9.03125 111.14781,-0.94519 222.37813,1.67828 333.46875,-2.0625 6.91056,-0.41373 13.016,-5.6963 13.51101,-12.79166 15.46982,-43.05919 28.07294,-87.43475 43.83274,-130.23959 9.3655,-20.79554 31.795,-29.76135 50.44555,-40.17619 20.63654,-11.43555 40.79707,-23.26562 63.17945,-31.04256 29.38562,-11.19676 60.14008,-18.28368 90.21875,-26.96875 13.82184,-7.41223 -4.21582,-19.22356 -10.34375,-24.875 C 622.5966,450.30058 548.39364,368.38899 487.32158,276.81664 435.08011,202.90811 383.88797,128.19107 331,54.78125 c -2.35718,-2.054645 -5.44981,-3.406201 -8.65625,-3.09375 z m 15.53125,89.34375 c 48.58424,67.22659 96.05929,135.24372 144.03125,202.90625 -63.54237,0.91043 -127.08486,1.8188 -190.625,2.875 27.21998,23.74489 54.84216,47.03181 81.71875,71.25 -3.26603,27.09659 -9.47239,53.95064 -11.5625,81.21875 21.91379,27.55905 44.96775,54.42058 69.18432,79.88604 13.09092,13.02757 28.9044,22.72335 44.31568,32.80146 2.31194,2.95526 -2.97965,5.99351 -2.45238,9.28593 -13.42223,38.59576 -26.74878,77.22498 -40.29762,115.77657 -90.62319,-0.059 -181.2692,2.36544 -271.875,-0.375 9.64353,-32.42464 18.28081,-65.29401 27.80873,-97.8328 47.58222,-166.51974 95.74545,-332.91869 143.8232,-499.26674 1.20487,-8.85016 2.35871,-2.36268 5.93057,1.47454 z m 145.5625,237.4375 c 11.41978,1.31833 25.21045,1.55178 32.18541,12.33039 37.82734,42.31465 74.9541,85.06591 111.09584,128.82586 -37.78005,14.26515 -73.17989,33.71622 -108.8125,52.4375 -6.9675,3.16602 -14.75209,0.8717 -20.14343,-4.2023 -10.47171,-8.02418 -22.05537,-14.68874 -31.79407,-23.57895 -14.11715,-15.11216 -26.26094,-32.1213 -40.375,-47.34375 -5.58858,-6.9765 -12.65572,-13.71378 -15.8125,-21.9375 1.6785,-11.57903 13.16805,-17.67527 19.82945,-26.21739 19.63568,-20.44914 37.22152,-43.97649 47.3268,-70.50136 2.17098,-0.20414 4.33262,-0.0222 6.5,0.1875 z m -70.01786,-12.36161 c 2.32434,0.24045 45.14637,2.12205 41.33592,5.18041 -4.91528,5.82235 -35.57823,39.3916 -41.19752,43.76156 -7.78787,-6.2173 -36.91068,-42.48152 -44.64733,-48.90625 11.97917,-0.24978 32.52975,0.21298 44.50893,-0.0357 z"
       style="fill:#0f1080;fill-opacity:1" />
    <path
       style="opacity:1;fill:#e7e7e7;fill-opacity:1;stroke:none"
       d="m 178.5413,714.11937 -15.03182,-0.60013 12.10659,-42.53689 c 33.59109,-118.02344 158.47292,-551.89338 159.70417,-554.85123 0.58012,-1.39367 8.9524,9.6101 32.78472,43.08932 50.07157,70.33965 114.38757,161.3297 114.38757,161.828 0,0.24856 -24.73493,0.78223 -54.96651,1.18592 -95.41339,1.27411 -134.04133,2.1456 -133.72138,3.01694 0.17062,0.46465 14.72857,13.37249 32.351,28.68406 17.62242,15.31158 35.7635,31.20232 40.3135,35.31276 l 8.27274,7.47353 -4.72601,30.78812 c -2.59929,16.93347 -5.24028,35.13153 -5.86885,40.44015 l -1.14287,9.65202 12.5084,15.2072 c 28.96273,35.21168 55.83667,64.58225 68.19771,74.53341 4.61932,3.71875 14.02439,10.51001 20.90016,15.09169 8.82679,5.88175 12.34573,8.83448 11.97183,10.04553 -0.29126,0.94336 -9.91117,28.56317 -21.37759,61.37734 l -20.84803,59.66213 -14.87817,0.69813 c -17.85327,0.83771 -219.55434,0.75568 -240.93716,-0.098 l 0,0 z"
       id="path3113"
       inkscape:connector-curvature="0"
       transform="translate(-2.28125,22.03125)" />
    <g
       id="g3126"
       transform="matrix(6.4545088,0,0,6.4545088,340.29543,-1075.762)">
      <path
         transform="matrix(1.388157,0,0,0.498361,19.767537,197.71437)"
         d="m 24.8125,34.65625 c 0,5.263964 -4.253295,9.53125 -9.5,9.53125 -5.246705,0 -9.5,-4.267286 -9.5,-9.53125 0,-5.263964 4.253295,-9.53125 9.5,-9.53125 5.246705,0 9.5,4.267286 9.5,9.53125 z"
         sodipodi:ry="9.53125"
         sodipodi:rx="9.5"
         sodipodi:cy="34.65625"
         sodipodi:cx="15.3125"
         id="path3110"
         style="opacity:0.49019608;fill:url(#radialGradient3029);fill-opacity:1;stroke:none"
         sodipodi:type="arc" />
      <path
         transform="matrix(1.473683,0,0,0.655738,34.957949,187.76027)"
         d="m 24.8125,34.65625 c 0,5.263964 -4.253295,9.53125 -9.5,9.53125 -5.246705,0 -9.5,-4.267286 -9.5,-9.53125 0,-5.263964 4.253295,-9.53125 9.5,-9.53125 5.246705,0 9.5,4.267286 9.5,9.53125 z"
         sodipodi:ry="9.53125"
         sodipodi:rx="9.5"
         sodipodi:cy="34.65625"
         sodipodi:cx="15.3125"
         id="path3206"
         style="opacity:0.24705882;fill:url(#radialGradient3208);fill-opacity:1;stroke:none"
         sodipodi:type="arc" />
      <g
         transform="matrix(0.965926,0.258819,-0.258819,0.965926,30.685829,180.6212)"
         id="g2904">
        <path
           inkscape:connector-curvature="0"
           style="fill:url(#linearGradient3112);fill-opacity:1;stroke:#2e3436;stroke-width:1.00543582;stroke-linecap:square;stroke-linejoin:miter;stroke-miterlimit:4;stroke-opacity:1;stroke-dasharray:none"
           d="m 31,0.5 c -0.561936,2e-8 -1.1158,0.047001 -1.65625,0.125 L 29.125,3.71875 C 28.16536,3.9344947 27.275486,4.3022815 26.46875,4.8125 L 24.125,2.78125 C 22.999999,3.5000009 22.5,4 21.78125,5.125 L 23.8125,7.46875 C 23.302281,8.2754859 22.934495,9.1653595 22.71875,10.125 L 19.625,10.34375 C 19.547,10.8842 19.5,11.438062 19.5,12 c -1e-6,0.561939 0.047,1.115801 0.125,1.65625 l 3.09375,0.21875 c 0.215745,0.959641 0.583531,1.849514 1.09375,2.65625 L 21.78125,18.875 C 22.5,19.999999 23,20.5 24.125,21.21875 l 2.34375,-2.03125 c 0.806736,0.510219 1.696609,0.878005 2.65625,1.09375 L 29.34375,23.375 C 29.8842,23.453 30.438063,23.5 31,23.5 c 0.561936,0 1.115801,-0.047 1.65625,-0.125 L 32.875,20.28125 c 0.959641,-0.215745 1.849514,-0.583531 2.65625,-1.09375 L 37.875,21.21875 C 39.000002,20.499999 39.5,20 40.21875,18.875 L 38.1875,16.53125 c 0.510219,-0.806736 0.878005,-1.696609 1.09375,-2.65625 L 42.375,13.65625 C 42.453,13.115801 42.499999,12.561939 42.5,12 c 0,-0.561937 -0.047,-1.115801 -0.125,-1.65625 L 39.28125,10.125 C 39.065505,9.1653595 38.697719,8.2754859 38.1875,7.46875 L 40.21875,5.125 C 39.569261,4.0173152 39,3.5 37.875,2.78125 L 35.53125,4.8125 C 34.724514,4.3022815 33.834641,3.9344947 32.875,3.71875 L 32.65625,0.625 C 32.1158,0.54700102 31.561938,0.5 31,0.5 z m 0,9 c 1.380001,3e-7 2.499999,1.119998 2.5,2.5 10e-7,1.380003 -1.119997,2.5 -2.5,2.5 -1.380002,0 -2.5,-1.119997 -2.5,-2.5 0,-1.380002 1.119998,-2.5 2.5,-2.5 z"
           id="path2779" />
        <path
           inkscape:connector-curvature="0"
           style="fill:none;stroke:url(#linearGradient3114);stroke-width:1.13333356;stroke-linecap:square;stroke-linejoin:miter;stroke-miterlimit:4;stroke-opacity:1;stroke-dasharray:none"
           d="m 31.000007,1.437503 c -0.260073,0 -0.522134,0.041957 -0.78125,0.0625 l -0.21875,3.062501 c -1.31703,0.174704 -2.521711,0.702045 -3.531252,1.468751 l -2.3125,-1.968751 C 23.765212,4.40014 23.400139,4.765213 23.062504,5.156255 l 1.968751,2.312501 c -0.766706,1.009539 -1.294048,2.214221 -1.468751,3.53125 l -3.0625,0.218751 c -0.02054,0.259116 -0.0625,0.521176 -0.0625,0.78125 0,0.260073 0.04196,0.522133 0.0625,0.78125 l 3.062501,0.21875 c 0.174704,1.317029 0.702045,2.521711 1.468751,3.531251 l -1.968751,2.312501 c 0.337635,0.391042 0.702708,0.756115 1.093751,1.09375 l 2.312501,-1.968751 c 1.009539,0.766706 2.214221,1.294048 3.53125,1.468751 l 0.218751,3.062501 c 0.259116,0.02054 0.521177,0.0625 0.78125,0.0625 0.260072,0 0.522134,-0.04196 0.78125,-0.0625 l 0.21875,-3.062501 c 1.317029,-0.174704 2.521711,-0.702045 3.531251,-1.468751 l 2.312501,1.968751 c 0.391043,-0.337635 0.756115,-0.702708 1.09375,-1.093751 l -1.968751,-2.3125 c 0.766706,-1.00954 1.294048,-2.214222 1.468751,-3.531251 l 3.062501,-0.21875 c 0.02054,-0.259116 0.0625,-0.521177 0.0625,-0.781251 10e-7,-0.260072 -0.04196,-0.522133 -0.0625,-0.781249 L 38.43751,11.000007 C 38.262806,9.682977 37.735464,8.478296 36.968758,7.468755 L 38.937509,5.156254 C 38.599875,4.765213 38.234802,4.400139 37.843759,4.062504 L 35.531258,6.031255 C 34.521719,5.264549 33.317037,4.737207 32.000008,4.562504 L 31.781257,1.500003 C 31.522141,1.47946 31.26008,1.437504 31.000007,1.437503 z"
           id="path2819" />
        <path
           inkscape:connector-curvature="0"
           style="opacity:0.8;fill:url(#radialGradient3116);fill-opacity:1;stroke:none"
           d="m 31,0.875 c -0.32102,2e-8 -0.583975,0.0443823 -0.8125,0.0625 l -0.5,0.03125 -0.03125,0.5 -0.1875,2.65625 C 28.408658,4.3340559 27.427074,4.7655265 26.5625,5.34375 L 24.15625,3.3125 22.3125,5.15625 24.34375,7.5625 C 23.765526,8.427073 23.334055,9.408658 23.125,10.46875 l -2.65625,0.1875 -0.5,0.03125 -0.03125,0.5 C 19.919381,11.416028 19.875,11.678982 19.875,12 c 0,0.321017 0.04438,0.583973 0.0625,0.8125 l 0.03125,0.5 0.5,0.03125 2.65625,0.1875 c 0.209056,1.060092 0.640526,2.041676 1.21875,2.90625 l -1.71875,2.03125 -0.3125,0.375 0.3125,0.375 c 0.35567,0.411929 0.744319,0.80058 1.15625,1.15625 l 0.375,0.3125 0.375,-0.3125 2.03125,-1.71875 c 0.864573,0.578224 1.846158,1.009695 2.90625,1.21875 l 0.1875,2.65625 0.03125,0.5 0.5,0.03125 c 0.228528,0.01812 0.491482,0.0625 0.8125,0.0625 0.321018,1e-6 0.583973,-0.04438 0.8125,-0.0625 l 0.5,-0.03125 0.03125,-0.5 0.1875,-2.65625 c 1.060091,-0.209056 2.041676,-0.640526 2.90625,-1.21875 l 2.03125,1.71875 0.375,0.3125 0.375,-0.3125 c 0.411933,-0.355671 0.80058,-0.74432 1.15625,-1.15625 l 0.3125,-0.375 -0.3125,-0.375 -1.71875,-2.03125 c 0.578224,-0.864573 1.009695,-1.846158 1.21875,-2.90625 l 2.65625,-0.1875 0.5,-0.03125 0.03125,-0.5 C 42.080617,12.583975 42.125,12.321018 42.125,12 c -10e-7,-0.321015 -0.04438,-0.583972 -0.0625,-0.8125 l -0.03125,-0.5 -0.5,-0.03125 -2.65625,-0.1875 C 38.665945,9.4086575 38.234474,8.4270738 37.65625,7.5625 L 39.375,5.53125 39.6875,5.15625 39.375,4.78125 C 39.019332,4.3693213 38.630681,3.9806704 38.21875,3.625 l -0.375,-0.3125 -0.375,0.3125 -2.03125,1.71875 C 34.572927,4.7655263 33.591342,4.3340554 32.53125,4.125 l -0.1875,-2.65625 -0.03125,-0.5 -0.5,-0.03125 C 31.583973,0.91938221 31.321016,0.87500123 31,0.875 z M 31,8.5 c 1.932001,-2.4e-6 3.499998,1.567999 3.5,3.5 2e-6,1.932002 -1.567999,3.499998 -3.5,3.5 -1.932002,2e-6 -3.499998,-1.567999 -3.5,-3.5 -1e-6,-1.932002 1.567999,-3.4999978 3.5,-3.5 z"
           id="path2875" />
        <path
           inkscape:connector-curvature="0"
           style="fill:url(#linearGradient3118);fill-opacity:1;stroke:none"
           d="m 31,4 c -4.415997,0 -8,3.584 -8,8 0,4.416001 3.584001,8.000001 8,8 4.415999,0 8,-3.583999 8,-8 -10e-7,-4.416 -3.584,-8 -8,-8 z m 0,5 c 1.655999,-1.8e-6 2.999998,1.344006 3,3 2e-6,1.655994 -1.344001,2.999998 -3,3 -1.656,2e-6 -2.999998,-1.344006 -3,-3 -1e-6,-1.655994 1.344001,-2.9999981 3,-3 z"
           id="path2867" />
        <path
           sodipodi:type="arc"
           style="fill:none;stroke:url(#linearGradient3120);stroke-width:1.13333321;stroke-linecap:square;stroke-linejoin:miter;stroke-miterlimit:4;stroke-opacity:1;stroke-dasharray:none"
           id="path2849"
           sodipodi:cx="23.5"
           sodipodi:cy="19"
           sodipodi:rx="8.5"
           sodipodi:ry="8.5"
           d="m 32,19 c 0,4.69442 -3.80558,8.5 -8.5,8.5 -4.69442,0 -8.5,-3.80558 -8.5,-8.5 0,-4.69442 3.80558,-8.5 8.5,-8.5 4.69442,0 8.5,3.80558 8.5,8.5 z"
           transform="matrix(0.882353,-1.02643e-6,1.02643e-6,0.882353,10.26469,-4.764686)" />
        <path
           sodipodi:type="arc"
           style="fill:none;stroke:url(#linearGradient3122);stroke-width:2.42857122;stroke-linecap:square;stroke-linejoin:miter;stroke-miterlimit:4;stroke-opacity:1;stroke-dasharray:none"
           id="path2835"
           sodipodi:cx="23.5"
           sodipodi:cy="19"
           sodipodi:rx="8.5"
           sodipodi:ry="8.5"
           d="m 32,19 c 0,4.69442 -3.80558,8.5 -8.5,8.5 -4.69442,0 -8.5,-3.80558 -8.5,-8.5 0,-4.69442 3.80558,-8.5 8.5,-8.5 4.69442,0 8.5,3.80558 8.5,8.5 z"
           transform="matrix(0.411765,-4.790003e-7,4.790003e-7,0.411765,21.32353,4.17647)" />
      </g>
      <g
         transform="matrix(0.965926,0.258819,-0.258819,0.965926,17.685829,165.6212)"
         id="g2924">
        <path
           inkscape:connector-curvature="0"
           style="fill:url(#linearGradient3124);fill-opacity:1;stroke:#2e3436;stroke-width:1.00543582;stroke-linecap:square;stroke-linejoin:miter;stroke-miterlimit:4;stroke-opacity:1;stroke-dasharray:none"
           d="m 31,0.5 c -0.561936,2e-8 -1.1158,0.047001 -1.65625,0.125 L 29.125,3.71875 C 28.16536,3.9344947 27.275486,4.3022815 26.46875,4.8125 L 24.125,2.78125 C 22.999999,3.5000009 22.5,4 21.78125,5.125 L 23.8125,7.46875 C 23.302281,8.2754859 22.934495,9.1653595 22.71875,10.125 L 19.625,10.34375 C 19.547,10.8842 19.5,11.438062 19.5,12 c -1e-6,0.561939 0.047,1.115801 0.125,1.65625 l 3.09375,0.21875 c 0.215745,0.959641 0.583531,1.849514 1.09375,2.65625 L 21.78125,18.875 C 22.5,19.999999 23,20.5 24.125,21.21875 l 2.34375,-2.03125 c 0.806736,0.510219 1.696609,0.878005 2.65625,1.09375 L 29.34375,23.375 C 29.8842,23.453 30.438063,23.5 31,23.5 c 0.561936,0 1.115801,-0.047 1.65625,-0.125 L 32.875,20.28125 c 0.959641,-0.215745 1.849514,-0.583531 2.65625,-1.09375 L 37.875,21.21875 C 39.000002,20.499999 39.5,20 40.21875,18.875 L 38.1875,16.53125 c 0.510219,-0.806736 0.878005,-1.696609 1.09375,-2.65625 L 42.375,13.65625 C 42.453,13.115801 42.499999,12.561939 42.5,12 c 0,-0.561937 -0.047,-1.115801 -0.125,-1.65625 L 39.28125,10.125 C 39.065505,9.1653595 38.697719,8.2754859 38.1875,7.46875 L 40.21875,5.125 C 39.569261,4.0173152 39,3.5 37.875,2.78125 L 35.53125,4.8125 C 34.724514,4.3022815 33.834641,3.9344947 32.875,3.71875 L 32.65625,0.625 C 32.1158,0.54700102 31.561938,0.5 31,0.5 z m 0,9 c 1.380001,3e-7 2.499999,1.119998 2.5,2.5 10e-7,1.380003 -1.119997,2.5 -2.5,2.5 -1.380002,0 -2.5,-1.119997 -2.5,-2.5 0,-1.380002 1.119998,-2.5 2.5,-2.5 z"
           id="path2926" />
        <path
           inkscape:connector-curvature="0"
           style="fill:none;stroke:url(#linearGradient3126);stroke-width:1.13333356;stroke-linecap:square;stroke-linejoin:miter;stroke-miterlimit:4;stroke-opacity:1;stroke-dasharray:none"
           d="m 31.000007,1.437503 c -0.260073,0 -0.522134,0.041957 -0.78125,0.0625 l -0.21875,3.062501 c -1.31703,0.174704 -2.521711,0.702045 -3.531252,1.468751 l -2.3125,-1.968751 C 23.765212,4.40014 23.400139,4.765213 23.062504,5.156255 l 1.968751,2.312501 c -0.766706,1.009539 -1.294048,2.214221 -1.468751,3.53125 l -3.0625,0.218751 c -0.02054,0.259116 -0.0625,0.521176 -0.0625,0.78125 0,0.260073 0.04196,0.522133 0.0625,0.78125 l 3.062501,0.21875 c 0.174704,1.317029 0.702045,2.521711 1.468751,3.531251 l -1.968751,2.312501 c 0.337635,0.391042 0.702708,0.756115 1.093751,1.09375 l 2.312501,-1.968751 c 1.009539,0.766706 2.214221,1.294048 3.53125,1.468751 l 0.218751,3.062501 c 0.259116,0.02054 0.521177,0.0625 0.78125,0.0625 0.260072,0 0.522134,-0.04196 0.78125,-0.0625 l 0.21875,-3.062501 c 1.317029,-0.174704 2.521711,-0.702045 3.531251,-1.468751 l 2.312501,1.968751 c 0.391043,-0.337635 0.756115,-0.702708 1.09375,-1.093751 l -1.968751,-2.3125 c 0.766706,-1.00954 1.294048,-2.214222 1.468751,-3.531251 l 3.062501,-0.21875 c 0.02054,-0.259116 0.0625,-0.521177 0.0625,-0.781251 10e-7,-0.260072 -0.04196,-0.522133 -0.0625,-0.781249 L 38.43751,11.000007 C 38.262806,9.682977 37.735464,8.478296 36.968758,7.468755 L 38.937509,5.156254 C 38.599875,4.765213 38.234802,4.400139 37.843759,4.062504 L 35.531258,6.031255 C 34.521719,5.264549 33.317037,4.737207 32.000008,4.562504 L 31.781257,1.500003 C 31.522141,1.47946 31.26008,1.437504 31.000007,1.437503 z"
           id="path2928" />
        <path
           inkscape:connector-curvature="0"
           style="opacity:0.8;fill:url(#radialGradient3128);fill-opacity:1;stroke:none"
           d="m 31,0.875 c -0.32102,2e-8 -0.583975,0.0443823 -0.8125,0.0625 l -0.5,0.03125 -0.03125,0.5 -0.1875,2.65625 C 28.408658,4.3340559 27.427074,4.7655265 26.5625,5.34375 L 24.15625,3.3125 22.3125,5.15625 24.34375,7.5625 C 23.765526,8.427073 23.334055,9.408658 23.125,10.46875 l -2.65625,0.1875 -0.5,0.03125 -0.03125,0.5 C 19.919381,11.416028 19.875,11.678982 19.875,12 c 0,0.321017 0.04438,0.583973 0.0625,0.8125 l 0.03125,0.5 0.5,0.03125 2.65625,0.1875 c 0.209056,1.060092 0.640526,2.041676 1.21875,2.90625 l -1.71875,2.03125 -0.3125,0.375 0.3125,0.375 c 0.35567,0.411929 0.744319,0.80058 1.15625,1.15625 l 0.375,0.3125 0.375,-0.3125 2.03125,-1.71875 c 0.864573,0.578224 1.846158,1.009695 2.90625,1.21875 l 0.1875,2.65625 0.03125,0.5 0.5,0.03125 c 0.228528,0.01812 0.491482,0.0625 0.8125,0.0625 0.321018,1e-6 0.583973,-0.04438 0.8125,-0.0625 l 0.5,-0.03125 0.03125,-0.5 0.1875,-2.65625 c 1.060091,-0.209056 2.041676,-0.640526 2.90625,-1.21875 l 2.03125,1.71875 0.375,0.3125 0.375,-0.3125 c 0.411933,-0.355671 0.80058,-0.74432 1.15625,-1.15625 l 0.3125,-0.375 -0.3125,-0.375 -1.71875,-2.03125 c 0.578224,-0.864573 1.009695,-1.846158 1.21875,-2.90625 l 2.65625,-0.1875 0.5,-0.03125 0.03125,-0.5 C 42.080617,12.583975 42.125,12.321018 42.125,12 c -10e-7,-0.321015 -0.04438,-0.583972 -0.0625,-0.8125 l -0.03125,-0.5 -0.5,-0.03125 -2.65625,-0.1875 C 38.665945,9.4086575 38.234474,8.4270738 37.65625,7.5625 L 39.375,5.53125 39.6875,5.15625 39.375,4.78125 C 39.019332,4.3693213 38.630681,3.9806704 38.21875,3.625 l -0.375,-0.3125 -0.375,0.3125 -2.03125,1.71875 C 34.572927,4.7655263 33.591342,4.3340554 32.53125,4.125 l -0.1875,-2.65625 -0.03125,-0.5 -0.5,-0.03125 C 31.583973,0.91938221 31.321016,0.87500123 31,0.875 z M 31,8.5 c 1.932001,-2.4e-6 3.499998,1.567999 3.5,3.5 2e-6,1.932002 -1.567999,3.499998 -3.5,3.5 -1.932002,2e-6 -3.499998,-1.567999 -3.5,-3.5 -1e-6,-1.932002 1.567999,-3.4999978 3.5,-3.5 z"
           id="path2930" />
        <path
           inkscape:connector-curvature="0"
           style="fill:url(#linearGradient3130);fill-opacity:1;stroke:none"
           d="m 31,4 c -4.415997,0 -8,3.584 -8,8 0,4.416001 3.584001,8.000001 8,8 4.415999,0 8,-3.583999 8,-8 -10e-7,-4.416 -3.584,-8 -8,-8 z m 0,5 c 1.655999,-1.8e-6 2.999998,1.344006 3,3 2e-6,1.655994 -1.344001,2.999998 -3,3 -1.656,2e-6 -2.999998,-1.344006 -3,-3 -1e-6,-1.655994 1.344001,-2.9999981 3,-3 z"
           id="path2932" />
        <path
           sodipodi:type="arc"
           style="fill:none;stroke:url(#linearGradient3132);stroke-width:1.13333321;stroke-linecap:square;stroke-linejoin:miter;stroke-miterlimit:4;stroke-opacity:1;stroke-dasharray:none"
           id="path2934"
           sodipodi:cx="23.5"
           sodipodi:cy="19"
           sodipodi:rx="8.5"
           sodipodi:ry="8.5"
           d="m 32,19 c 0,4.69442 -3.80558,8.5 -8.5,8.5 -4.69442,0 -8.5,-3.80558 -8.5,-8.5 0,-4.69442 3.80558,-8.5 8.5,-8.5 4.69442,0 8.5,3.80558 8.5,8.5 z"
           transform="matrix(0.882353,-1.02643e-6,1.02643e-6,0.882353,10.26469,-4.764686)" />
        <path
           sodipodi:type="arc"
           style="fill:none;stroke:url(#linearGradient3134);stroke-width:2.42857122;stroke-linecap:square;stroke-linejoin:miter;stroke-miterlimit:4;stroke-opacity:1;stroke-dasharray:none"
           id="path2936"
           sodipodi:cx="23.5"
           sodipodi:cy="19"
           sodipodi:rx="8.5"
           sodipodi:ry="8.5"
           d="m 32,19 c 0,4.69442 -3.80558,8.5 -8.5,8.5 -4.69442,0 -8.5,-3.80558 -8.5,-8.5 0,-4.69442 3.80558,-8.5 8.5,-8.5 4.69442,0 8.5,3.80558 8.5,8.5 z"
           transform="matrix(0.411765,-4.790003e-7,4.790003e-7,0.411765,21.32353,4.17647)" />
      </g>
      <path
         inkscape:connector-curvature="0"
         id="path2978"
         d="m 40.679949,198.73569 c -0.488396,0.0188 -0.972005,0.0938 -1.4375,0.1875 l -0.03125,0 c -0.34946,0.0716 -0.697793,0.17042 -1.03125,0.28125 -0.482338,0.16032 -0.932718,0.35785 -1.375,0.59375 l 0.65625,3.125 c -0.476244,0.35272 -0.924071,0.76519 -1.28125,1.25 l -3.09375,-0.625 c -0.256397,0.48439 -0.490777,0.96836 -0.65625,1.5 -0.229867,0.73854 -0.375253,1.53744 -0.40625,2.34375 l 3.0625,1.03125 c 0.06964,0.59247 0.201973,1.1807 0.4375,1.71875 l -2.125,2.375 c 0.277689,0.44132 0.589725,0.86465 0.9375,1.25 l 0.625,0.59375 c 0.388221,0.35541 0.803922,0.68511 1.25,0.96875 l 2.375,-2.125 c 0.285486,0.12728 0.563555,0.22905 0.875,0.3125 0.294716,0.079 0.611933,0.15421 0.90625,0.1875 l 1,3.03125 c 0.488396,-0.0188 0.972005,-0.0938 1.4375,-0.1875 l 0.03125,0 c 0.34946,-0.0716 0.697793,-0.17041 1.03125,-0.28125 0.482338,-0.16032 0.932718,-0.35785 1.375,-0.59375 l -0.65625,-3.125 c 0.476244,-0.35271 0.924071,-0.76518 1.28125,-1.25 l 3.09375,0.625 c 0.256397,-0.48438 0.490777,-0.96835 0.65625,-1.5 0.229867,-0.73853 0.375253,-1.53743 0.40625,-2.34375 l -3.0625,-1.03125 c -0.06964,-0.59246 -0.201973,-1.18069 -0.4375,-1.71875 l 2.125,-2.375 c -0.277689,-0.44131 -0.589725,-0.86464 -0.9375,-1.25 l -0.625,-0.59375 c -0.388221,-0.3554 -0.803922,-0.6851 -1.25,-0.96875 l -2.375,2.125 c -0.285487,-0.12727 -0.563555,-0.22904 -0.875,-0.3125 -0.294716,-0.079 -0.611933,-0.1542 -0.90625,-0.1875 l -1,-3.03125 z m 0.125,7 c 0.113509,-0.0127 0.227707,-0.007 0.34375,0 0.13262,0.008 0.272952,0.0268 0.40625,0.0625 1.066381,0.28574 1.691987,1.40237 1.40625,2.46875 -0.285736,1.06639 -1.402369,1.69199 -2.46875,1.40625 -1.066381,-0.28573 -1.691986,-1.40236 -1.40625,-2.46875 0.218768,-0.81645 0.924186,-1.38005 1.71875,-1.46875 z"
         style="fill:url(#linearGradient3191);fill-opacity:1;stroke:#2e3436;stroke-width:1.00000012;stroke-linecap:round;stroke-linejoin:miter;stroke-miterlimit:4;stroke-opacity:1;stroke-dasharray:none" />
      <path
         transform="translate(21.523699,173.2357)"
         d="m 18.46875,26.46875 -2.09375,0.59375 0.84375,4.03125 a 0.96888437,0.96888437 0 0 1 -1.125,1.125 l -4.0625,-0.84375 -0.59375,2.09375 3.96875,1.3125 a 0.96888437,0.96888437 0 0 1 0.40625,1.5625 l -2.71875,3.0625 1.46875,1.5 3.09375,-2.75 a 0.96888437,0.96888437 0 0 1 1.5625,0.40625 l 1.3125,3.96875 2.09375,-0.59375 -0.84375,-4.03125 a 0.96888437,0.96888437 0 0 1 1.125,-1.125 l 4.0625,0.84375 0.59375,-2.09375 -3.96875,-1.3125 a 0.96888437,0.96888437 0 0 1 -0.40625,-1.5625 l 2.71875,-3.0625 -1.46875,-1.5 -3.09375,2.75 a 0.96888437,0.96888437 0 0 1 -1.5625,-0.40625 l -1.3125,-3.96875 z"
         id="path2995"
         style="fill:none;stroke:url(#linearGradient3171);stroke-width:1.00000012;stroke-linecap:round;stroke-linejoin:miter;stroke-miterlimit:4;stroke-opacity:1;stroke-dasharray:none"
         inkscape:original="M 19.09375 25.3125 L 15.25 26.34375 L 16.28125 31.28125 L 11.3125 30.25 L 10.28125 34.09375 L 15.09375 35.6875 L 11.75 39.4375 L 14.53125 42.25 L 18.3125 38.875 L 19.90625 43.6875 L 23.75 42.65625 L 22.71875 37.71875 L 27.6875 38.75 L 28.71875 34.90625 L 23.90625 33.3125 L 27.25 29.5625 L 24.46875 26.75 L 20.6875 30.125 L 19.09375 25.3125 z "
         inkscape:radius="-0.96878749"
         sodipodi:type="inkscape:offset" />
      <path
         inkscape:connector-curvature="0"
         id="path2999"
         d="m 40.304949,199.07944 -3,0.875 0.9375,4.46875 c 0.02725,0.15163 -0.01606,0.29732 -0.125,0.40625 -0.108934,0.10894 -0.254622,0.15226 -0.40625,0.125 l -4.5,-0.9375 -0.875,3 4.4375,1.46875 c 0.1491,0.0513 0.241569,0.19114 0.28125,0.34375 0.03968,0.15262 0.01146,0.28879 -0.09375,0.40625 l -3.03125,3.4375 2.125,2.15625 3.46875,-3.0625 c 0.117466,-0.1052 0.253631,-0.13343 0.40625,-0.0937 0.152619,0.0397 0.292404,0.13215 0.34375,0.28125 l 1.46875,4.4375 3,-0.875 -0.9375,-4.46875 c -0.02725,-0.15162 0.01607,-0.29731 0.125,-0.40625 0.108935,-0.10893 0.254624,-0.15225 0.40625,-0.125 l 4.5,0.9375 0.875,-3 -4.4375,-1.46875 c -0.1491,-0.0514 -0.241569,-0.19113 -0.28125,-0.34375 -0.03968,-0.15261 -0.01146,-0.28878 0.09375,-0.40625 l 3.03125,-3.4375 -2.125,-2.15625 -3.46875,3.0625 c -0.117466,0.10521 -0.253631,0.13344 -0.40625,0.0937 -0.152619,-0.0397 -0.292404,-0.13215 -0.34375,-0.28125 l -1.46875,-4.4375 z m 0.71875,5.65625 c 1.655998,0 3,1.344 3,3 10e-7,1.65601 -1.344002,3 -3,3 -1.655998,1e-5 -3,-1.344 -3,-3 0,-1.65599 1.344002,-3 3,-3 z"
         style="opacity:0.9372549;fill:url(#radialGradient3187);fill-opacity:1;stroke:none" />
      <path
         inkscape:connector-curvature="0"
         id="path3002"
         d="m 41.023699,202.23569 c -3.036,0 -5.5,2.46401 -5.5,5.5 0,3.036 2.464,5.5 5.5,5.5 3.036,0 5.5,-2.46399 5.5,-5.5 0,-3.036 -2.464,-5.5 -5.5,-5.5 z m 0,3 c 1.379997,0 2.499999,1.12001 2.5,2.5 0,1.38 -1.120002,2.50001 -2.5,2.5 -1.379997,0 -2.499999,-1.12 -2.5,-2.5 0,-1.37999 1.120003,-2.49999 2.5,-2.5 z"
         style="fill:url(#linearGradient3184);fill-opacity:1;stroke:none" />
      <path
         transform="matrix(0.949401,0,0,0.949402,22.457282,174.89868)"
         d="m 22.715805,34.587067 c 0,1.745155 -1.414728,3.159883 -3.159883,3.159883 -1.745156,0 -3.159884,-1.414728 -3.159884,-3.159883 0,-1.745156 1.414728,-3.159884 3.159884,-3.159884 1.745155,0 3.159883,1.414728 3.159883,3.159884 z"
         sodipodi:ry="3.1598835"
         sodipodi:rx="3.1598835"
         sodipodi:cy="34.587067"
         sodipodi:cx="19.555922"
         id="path3033"
         style="fill:none;stroke:url(#linearGradient3177);stroke-width:1.05329549;stroke-linecap:round;stroke-linejoin:miter;stroke-miterlimit:4;stroke-opacity:1;stroke-dasharray:none"
         sodipodi:type="arc" />
      <path
         transform="matrix(1.582334,0,0,-1.582339,10.079689,262.46416)"
         d="m 22.715805,34.587067 c 0,1.745155 -1.414728,3.159883 -3.159883,3.159883 -1.745156,0 -3.159884,-1.414728 -3.159884,-3.159883 0,-1.745156 1.414728,-3.159884 3.159884,-3.159884 1.745155,0 3.159883,1.414728 3.159883,3.159884 z"
         sodipodi:ry="3.1598835"
         sodipodi:rx="3.1598835"
         sodipodi:cy="34.587067"
         sodipodi:cx="19.555922"
         id="path3037"
         style="fill:none;stroke:url(#linearGradient3294);stroke-width:0.63197702;stroke-linecap:round;stroke-linejoin:miter;stroke-miterlimit:4;stroke-opacity:1;stroke-dasharray:none"
         sodipodi:type="arc" />
    </g>
  </g>
  <g
     transform="translate(2.28125,-22.03125)"
     inkscape:label="1. réteg másolata copy"
     inkscape:groupmode="layer"
     id="g4384"
     style="display:inline">
    <path
       style="opacity:0.76033056;fill:#0f1080;fill-opacity:1;filter:url(#filter3224)"
       d="m 322.34375,51.6875 c -11.31502,2.70992 -13.1376,16.206977 -16.25,25.5625 -67.85121,235.49728 -135.82436,471.07036 -203.1875,706.71875 -0.0938,7.99954 9.46233,10.46524 15.875,9.03125 111.14781,-0.94519 222.37813,1.67828 333.46875,-2.0625 6.91056,-0.41373 13.016,-5.6963 13.51101,-12.79166 15.46982,-43.05919 28.07294,-87.43475 43.83274,-130.23959 9.3655,-20.79554 31.795,-29.76135 50.44555,-40.17619 20.63654,-11.43555 40.79707,-23.26562 63.17945,-31.04256 29.38562,-11.19676 60.14008,-18.28368 90.21875,-26.96875 13.82184,-7.41223 -4.21582,-19.22356 -10.34375,-24.875 C 622.5966,450.30058 548.39364,368.38899 487.32158,276.81664 435.08011,202.90811 383.88797,128.19107 331,54.78125 c -2.35718,-2.054645 -5.44981,-3.406201 -8.65625,-3.09375 z m 15.53125,89.34375 c 48.58424,67.22659 96.05929,135.24372 144.03125,202.90625 -63.54237,0.91043 -127.08486,1.8188 -190.625,2.875 27.21998,23.74489 54.84216,47.03181 81.71875,71.25 -3.26603,27.09659 -9.47239,53.95064 -11.5625,81.21875 21.91379,27.55905 44.96775,54.42058 69.18432,79.88604 13.09092,13.02757 28.9044,22.72335 44.31568,32.80146 2.31194,2.95526 -2.97965,5.99351 -2.45238,9.28593 -13.42223,38.59576 -26.74878,77.22498 -40.29762,115.77657 -90.62319,-0.059 -181.2692,2.36544 -271.875,-0.375 9.64353,-32.42464 18.28081,-65.29401 27.80873,-97.8328 47.58222,-166.51974 95.74545,-332.91869 143.8232,-499.26674 1.20487,-8.85016 2.35871,-2.36268 5.93057,1.47454 z m 145.5625,237.4375 c 11.41978,1.31833 25.21045,1.55178 32.18541,12.33039 37.82734,42.31465 74.9541,85.06591 111.09584,128.82586 -37.78005,14.26515 -73.17989,33.71622 -108.8125,52.4375 -6.9675,3.16602 -14.75209,0.8717 -20.14343,-4.2023 -10.47171,-8.02418 -22.05537,-14.68874 -31.79407,-23.57895 -14.11715,-15.11216 -26.26094,-32.1213 -40.375,-47.34375 -5.58858,-6.9765 -12.65572,-13.71378 -15.8125,-21.9375 1.6785,-11.57903 13.16805,-17.67527 19.82945,-26.21739 19.63568,-20.44914 37.22152,-43.97649 47.3268,-70.50136 2.17098,-0.20414 4.33262,-0.0222 6.5,0.1875 z m -70.01786,-12.36161 c 2.32434,0.24045 45.14637,2.12205 41.33592,5.18041 -4.91528,5.82235 -35.57823,39.3916 -41.19752,43.76156 -7.78787,-6.2173 -36.91068,-42.48152 -44.64733,-48.90625 11.97917,-0.24978 32.52975,0.21298 44.50893,-0.0357 z"
       id="path4386"
       inkscape:connector-curvature="0"
       sodipodi:nodetypes="ccccccccccccccccccccccccccccccccccccccccccc" />
  </g>
  <g
     inkscape:groupmode="layer"
     id="layer5"
     inkscape:label="Layer" />
</svg>
