<?xml version="1.0" encoding="UTF-8" standalone="no"?>
<!-- Created with Inkscape (http://www.inkscape.org/) -->

<svg
   xmlns:dc="http://purl.org/dc/elements/1.1/"
   xmlns:cc="http://creativecommons.org/ns#"
   xmlns:rdf="http://www.w3.org/1999/02/22-rdf-syntax-ns#"
   xmlns:svg="http://www.w3.org/2000/svg"
   xmlns="http://www.w3.org/2000/svg"
   xmlns:xlink="http://www.w3.org/1999/xlink"
   xmlns:sodipodi="http://sodipodi.sourceforge.net/DTD/sodipodi-0.dtd"
   xmlns:inkscape="http://www.inkscape.org/namespaces/inkscape"
   width="821.96875"
   height="820.6875"
   id="svg2"
   version="1.1"
   inkscape:version="0.48.2 r9819"
   sodipodi:docname="showlog-app-icon.svg"
   inkscape:export-filename="/home/susw/projects/pagavcs/trunk/java/src/hu/pagavcs/client/resources/showlog-app-icon.png"
   inkscape:export-xdpi="14.02"
   inkscape:export-ydpi="14.02">
  <defs
     id="defs4">
    <filter
       id="filter2990"
       x="-0.25"
       width="1.5"
       y="-0.25"
       height="1.5"
       inkscape:menu="Non realistic 3D shaders"
       inkscape:menu-tooltip="Brushed aluminium shader"
       inkscape:label="Aluminium"
       color-interpolation-filters="sRGB">
      <feGaussianBlur
         id="feGaussianBlur2992"
         result="result8"
         stdDeviation="7" />
      <feComposite
         id="feComposite2994"
         in2="SourceGraphic"
         in="result8"
         operator="xor"
         result="result6" />
      <feDisplacementMap
         id="feDisplacementMap2996"
         in2="result6"
         result="result4"
         scale="75"
         yChannelSelector="A"
         xChannelSelector="A"
         in="result6" />
      <feComposite
         id="feComposite2998"
         in2="SourceGraphic"
         k1="1"
         in="result4"
         operator="arithmetic"
         result="result2"
         k2="0"
         k3="0"
         k4="0" />
    </filter>
    <filter
       id="filter3827"
       inkscape:label="Drop shadow"
       width="1.5"
       height="1.5"
       x="-0.25"
       y="-0.25"
       color-interpolation-filters="sRGB">
      <feGaussianBlur
         id="feGaussianBlur3829"
         in="SourceAlpha"
         stdDeviation="2"
         result="blur" />
      <feColorMatrix
         id="feColorMatrix3831"
         result="bluralpha"
         type="matrix"
         values="1 0 0 0 0 0 1 0 0 0 0 0 1 0 0 0 0 0 0.5 0 " />
      <feOffset
         id="feOffset3833"
         in="bluralpha"
         dx="4"
         dy="4"
         result="offsetBlur" />
      <feMerge
         id="feMerge3835"
         result="fbSourceGraphic">
        <feMergeNode
           id="feMergeNode3837"
           in="offsetBlur" />
        <feMergeNode
           id="feMergeNode3839"
           in="SourceGraphic" />
      </feMerge>
      <feColorMatrix
         result="fbSourceGraphicAlpha"
         in="fbSourceGraphic"
         values="0 0 0 -1 0 0 0 0 -1 0 0 0 0 -1 0 0 0 0 1 0"
         id="feColorMatrix3897" />
      <feGaussianBlur
         id="feGaussianBlur3899"
         in="fbSourceGraphicAlpha"
         stdDeviation="2"
         result="blur" />
      <feColorMatrix
         id="feColorMatrix3901"
         result="bluralpha"
         type="matrix"
         values="1 0 0 0 0 0 1 0 0 0 0 0 1 0 0 0 0 0 0.5 0 " />
      <feOffset
         id="feOffset3903"
         in="bluralpha"
         dx="14"
         dy="14"
         result="offsetBlur" />
      <feMerge
         id="feMerge3905">
        <feMergeNode
           id="feMergeNode3907"
           in="offsetBlur" />
        <feMergeNode
           id="feMergeNode3909"
           in="fbSourceGraphic" />
      </feMerge>
    </filter>
    <filter
       id="filter4193"
       inkscape:label="Refractive gel B"
       inkscape:menu="Ridges"
       inkscape:menu-tooltip="Gel effect with strong refraction"
       height="1.4"
       width="1.4"
       y="-0.2"
       x="-0.2"
       color-interpolation-filters="sRGB">
      <feOffset
         id="feOffset4195"
         dx="3"
         dy="3"
         in="SourceAlpha"
         result="result3" />
      <feGaussianBlur
         id="feGaussianBlur4197"
         stdDeviation="8"
         in="result3"
         result="result1" />
      <feComposite
         id="feComposite4199"
         in2="result1"
         operator="in"
         in="SourceGraphic"
         result="result2" />
      <feComposite
         id="feComposite4201"
         in2="result2"
         operator="out"
         result="fbSourceGraphic"
         in="result2" />
      <feColorMatrix
         id="feColorMatrix4203"
         result="fbSourceGraphicAlpha"
         in="fbSourceGraphic"
         values="0 0 0 -1 0 0 0 0 -1 0 0 0 0 1 0 0 0 0 6 0 " />
      <feGaussianBlur
         id="feGaussianBlur4205"
         result="result0"
         in="fbSourceGraphicAlpha"
         stdDeviation="3" />
      <feSpecularLighting
         id="feSpecularLighting4207"
         specularExponent="20"
         specularConstant="2"
         surfaceScale="5"
         lighting-color="#ffffff"
         result="result1"
         in="result0">
        <feDistantLight
           id="feDistantLight4209"
           azimuth="235"
           elevation="35" />
      </feSpecularLighting>
      <feComposite
         id="feComposite4211"
         in2="fbSourceGraphicAlpha"
         operator="in"
         result="result2"
         in="result1" />
      <feComposite
         id="feComposite4213"
         in2="result2"
         in="fbSourceGraphic"
         operator="arithmetic"
         k2="1.5"
         k3="3"
         result="result91"
         k1="0"
         k4="0" />
      <feBlend
         id="feBlend4215"
         in2="result91"
         mode="screen" />
      <feConvolveMatrix
         id="feConvolveMatrix4217"
         order="3 3"
         kernelMatrix="2 0 1 0 1 0 0 0 0 "
         targetX="1"
         targetY="1"
         divisor="3" />
    </filter>
    <filter
       id="filter3224"
       inkscape:label="Specular light"
       inkscape:menu="ABCs"
       inkscape:menu-tooltip="Basic specular bevel to use for building textures"
       color-interpolation-filters="sRGB">
      <feGaussianBlur
         id="feGaussianBlur3226"
         result="result0"
         in="SourceAlpha"
         stdDeviation="6" />
      <feSpecularLighting
         id="feSpecularLighting3228"
         specularExponent="25"
         specularConstant="1"
         surfaceScale="10"
         lighting-color="#ffffff"
         result="result1"
         in="result0">
        <feDistantLight
           id="feDistantLight3230"
           azimuth="235"
           elevation="45" />
      </feSpecularLighting>
      <feComposite
         id="feComposite3232"
         in2="result1"
         k3="1"
         k2="1"
         operator="arithmetic"
         result="result4"
         in="SourceGraphic"
         k1="0"
         k4="0" />
      <feComposite
         id="feComposite3234"
         in2="SourceAlpha"
         operator="in"
         result="result2"
         in="result4" />
    </filter>
    <filter
       id="filter4130"
       inkscape:label="Growing cells"
       inkscape:menu="Overlays"
       inkscape:menu-tooltip="Random rounded living cells like fill"
       color-interpolation-filters="sRGB">
      <feTurbulence
         id="feTurbulence4132"
         type="fractalNoise"
         baseFrequency="0.1"
         numOctaves="3"
         result="result7" />
      <feColorMatrix
         id="feColorMatrix4134"
         values="0"
         result="result8"
         type="saturate" />
      <feColorMatrix
         id="feColorMatrix4136"
         values="1 0 0 0 0 0 1 0 0 0 0 0 1 0 0 0 0 0 20 -12 "
         result="result6"
         type="matrix" />
      <feGaussianBlur
         id="feGaussianBlur4138"
         stdDeviation="2"
         result="result5"
         in="result6" />
      <feColorMatrix
         id="feColorMatrix4140"
         in="result5"
         values="1 0 0 0 0 0 1 0 0 0 0 0 1 0 0 0 0 0 10 -0.1 "
         result="result0"
         type="matrix" />
      <feComposite
         id="feComposite4142"
         in2="SourceGraphic"
         k1="0.8"
         k2="1"
         operator="arithmetic"
         result="result3"
         in="result0"
         k3="0"
         k4="0" />
      <feComposite
         id="feComposite4144"
         in2="result8"
         operator="atop"
         result="result9" />
      <feBlend
         id="feBlend4146"
         in2="SourceGraphic"
         mode="normal"
         result="result9" />
      <feComposite
         id="feComposite4148"
         in2="SourceGraphic"
         in="result9"
         operator="atop"
         result="result2" />
    </filter>
    <filter
       id="filter4188"
       inkscape:label="Garden of Delights"
       inkscape:menu="Overlays"
       inkscape:menu-tooltip="Phantasmagorical turbulent wisps, like Hieronymus Bosch's Garden of Delights"
       x="-0.15000001"
       width="1.3"
       y="-0.15000001"
       height="1.3"
       color-interpolation-filters="sRGB">
      <feTurbulence
         id="feTurbulence4190"
         result="result1"
         baseFrequency="0.005 0.01"
         numOctaves="8"
         type="fractalNoise"
         seed="20" />
      <feColorMatrix
         id="feColorMatrix4192"
         result="result3"
         values="0 0 0 0 1 0 0 0 0 1 0 0 0 0 1 0 0 0 1.2 -0.4 " />
      <feConvolveMatrix
         id="feConvolveMatrix4194"
         order="3 3"
         kernelMatrix="3 0 0 0 2 0 0 0 -1 "
         targetX="1"
         targetY="1"
         divisor="2"
         result="result8" />
      <feComposite
         id="feComposite4196"
         in2="SourceGraphic"
         result="fbSourceGraphic"
         operator="atop"
         in="result8" />
      <feTurbulence
         id="feTurbulence4198"
         baseFrequency="0.027 0.025"
         numOctaves="7"
         type="turbulence"
         seed="20" />
      <feColorMatrix
         id="feColorMatrix4200"
         values="1 0 0 0 0 0 1 0 0 0 0 0 1 0 0 0 0 0 4.7 -2 "
         result="result5" />
      <feComposite
         id="feComposite4202"
         in2="result5"
         operator="in"
         in="fbSourceGraphic"
         result="result6" />
      <feDisplacementMap
         id="feDisplacementMap4204"
         in2="result5"
         result="result4"
         scale="48"
         yChannelSelector="A"
         xChannelSelector="R"
         in="result6" />
      <feFlood
         id="feFlood4206"
         flood-color="rgb(222,217,217)"
         flood-opacity="1"
         result="result9" />
      <feComposite
         id="feComposite4208"
         in2="result4"
         operator="in"
         result="result2" />
      <feComposite
         id="feComposite4210"
         in2="fbSourceGraphic"
         operator="atop"
         in="result2"
         result="result91" />
      <feBlend
         id="feBlend4212"
         in2="result91"
         mode="darken" />
    </filter>
    <linearGradient
       id="linearGradient1913-6">
      <stop
         style="stop-color:#1683d2;stop-opacity:1;"
         offset="0"
         id="stop1915-3" />
      <stop
         style="stop-color:#347ce2;stop-opacity:1;"
         offset="1"
         id="stop1917-1" />
    </linearGradient>
    <linearGradient
       inkscape:collect="always"
       xlink:href="#linearGradient5891-0"
       id="linearGradient2952"
       gradientUnits="userSpaceOnUse"
       gradientTransform="matrix(-1.4306351,0,0,1.4301566,348.10818,242.82475)"
       x1="15.456784"
       y1="8.734375"
       x2="25.561066"
       y2="13.526372" />
    <linearGradient
       inkscape:collect="always"
       id="linearGradient5891-0">
      <stop
         style="stop-color:#ffffff;stop-opacity:1;"
         offset="0"
         id="stop5893-3" />
      <stop
         style="stop-color:#ffffff;stop-opacity:0;"
         offset="1"
         id="stop5895-0" />
    </linearGradient>
    <radialGradient
       inkscape:collect="always"
       xlink:href="#linearGradient8662-5"
       id="radialGradient2946"
       gradientUnits="userSpaceOnUse"
       gradientTransform="matrix(1,0,0,0.536723,0,16.87306)"
       cx="24.837126"
       cy="36.421127"
       fx="24.837126"
       fy="36.421127"
       r="15.644737" />
    <linearGradient
       inkscape:collect="always"
       id="linearGradient8662-5">
      <stop
         style="stop-color:#000000;stop-opacity:1;"
         offset="0"
         id="stop8664-9" />
      <stop
         style="stop-color:#000000;stop-opacity:0;"
         offset="1"
         id="stop8666-6" />
    </linearGradient>
    <linearGradient
       inkscape:collect="always"
       xlink:href="#linearGradient1913-6-9"
       id="linearGradient2948"
       gradientUnits="userSpaceOnUse"
       gradientTransform="translate(297.46222,240.46999)"
       x1="13.1875"
       y1="35.9375"
       x2="17.9375"
       y2="38.875" />
    <linearGradient
       id="linearGradient1913-6-9">
      <stop
         style="stop-color:#1683d2;stop-opacity:1;"
         offset="0"
         id="stop1915-3-0" />
      <stop
         style="stop-color:#347ce2;stop-opacity:1;"
         offset="1"
         id="stop1917-1-4" />
    </linearGradient>
    <linearGradient
       inkscape:collect="always"
       xlink:href="#linearGradient5132-4"
       id="linearGradient2950"
       gradientUnits="userSpaceOnUse"
       gradientTransform="translate(297.46222,240.46999)"
       x1="21.55229"
       y1="29.205048"
       x2="18.072493"
       y2="55.692348" />
    <linearGradient
       inkscape:collect="always"
       id="linearGradient5132-4">
      <stop
         style="stop-color:white;stop-opacity:1;"
         offset="0"
         id="stop5134-4" />
      <stop
         style="stop-color:white;stop-opacity:0;"
         offset="1"
         id="stop5136-4" />
    </linearGradient>
    <linearGradient
       inkscape:collect="always"
       xlink:href="#linearGradient5891-0-5"
       id="linearGradient2952-8"
       gradientUnits="userSpaceOnUse"
       gradientTransform="matrix(-1.4306351,0,0,1.4301566,348.10818,242.82475)"
       x1="15.456784"
       y1="8.734375"
       x2="25.561066"
       y2="13.526372" />
    <linearGradient
       inkscape:collect="always"
       id="linearGradient5891-0-5">
      <stop
         style="stop-color:#ffffff;stop-opacity:1;"
         offset="0"
         id="stop5893-3-1" />
      <stop
         style="stop-color:#ffffff;stop-opacity:0;"
         offset="1"
         id="stop5895-0-2" />
    </linearGradient>
    <linearGradient
       y2="13.526372"
       x2="25.561066"
       y1="8.734375"
       x1="15.456784"
       gradientTransform="matrix(-1.4306351,0,0,1.4301566,348.10818,242.82475)"
       gradientUnits="userSpaceOnUse"
       id="linearGradient3148"
       xlink:href="#linearGradient5891-0-5"
       inkscape:collect="always" />
    <linearGradient
       id="linearGradient1913">
      <stop
         style="stop-color:#73d216;stop-opacity:1"
         offset="0"
         id="stop1915" />
      <stop
         style="stop-color:#8ae234;stop-opacity:1"
         offset="1"
         id="stop1917" />
    </linearGradient>
    <linearGradient
       inkscape:collect="always"
       xlink:href="#linearGradient5891"
       id="linearGradient2939"
       gradientUnits="userSpaceOnUse"
       gradientTransform="matrix(1.4306351,0,0,1.4301566,189.90315,235.48567)"
       x1="15.456784"
       y1="8.734375"
       x2="25.561066"
       y2="13.526372" />
    <linearGradient
       inkscape:collect="always"
       id="linearGradient5891">
      <stop
         style="stop-color:#ffffff;stop-opacity:1;"
         offset="0"
         id="stop5893" />
      <stop
         style="stop-color:#ffffff;stop-opacity:0;"
         offset="1"
         id="stop5895" />
    </linearGradient>
    <radialGradient
       inkscape:collect="always"
       xlink:href="#linearGradient2992"
       id="radialGradient2951"
       gradientUnits="userSpaceOnUse"
       cx="52.5"
       cy="4.5"
       fx="52.5"
       fy="4.5"
       r="10.909439" />
    <linearGradient
       id="linearGradient2992">
      <stop
         id="stop2994"
         offset="0"
         style="stop-color:#000000;stop-opacity:1;" />
      <stop
         style="stop-color:#000000;stop-opacity:0.49803922;"
         offset="0.91666669"
         id="stop3000" />
      <stop
         id="stop2996"
         offset="1"
         style="stop-color:#000000;stop-opacity:0;" />
    </linearGradient>
    <linearGradient
       inkscape:collect="always"
       xlink:href="#linearGradient2707"
       id="linearGradient2953"
       gradientUnits="userSpaceOnUse"
       gradientTransform="translate(202.50671,23.538379)"
       x1="9.5"
       y1="26.5"
       x2="9.0625"
       y2="34.5625" />
    <linearGradient
       id="linearGradient2707"
       inkscape:collect="always">
      <stop
         id="stop2709"
         offset="0"
         style="stop-color:#000000;stop-opacity:1;" />
      <stop
         id="stop2711"
         offset="1"
         style="stop-color:#000000;stop-opacity:0;" />
    </linearGradient>
    <radialGradient
       inkscape:collect="always"
       xlink:href="#linearGradient2635"
       id="radialGradient2955"
       gradientUnits="userSpaceOnUse"
       gradientTransform="matrix(1.317389,0,0,1.317389,-20.57979,-12.04281)"
       cx="64.597321"
       cy="37.572186"
       fx="64.597321"
       fy="37.572186"
       r="9.25" />
    <linearGradient
       id="linearGradient2635">
      <stop
         style="stop-color:#ffffff;stop-opacity:1;"
         offset="0"
         id="stop2637" />
      <stop
         id="stop2655"
         offset="0.55952382"
         style="stop-color:#ffffff;stop-opacity:0.71951222;" />
      <stop
         style="stop-color:#ffffff;stop-opacity:0;"
         offset="1"
         id="stop2639" />
    </linearGradient>
    <radialGradient
       inkscape:collect="always"
       xlink:href="#linearGradient2617"
       id="radialGradient2957"
       gradientUnits="userSpaceOnUse"
       gradientTransform="matrix(0,-1.686609,1.66336,0,41.65431,111.7396)"
       cx="59.787472"
       cy="10.901535"
       fx="59.787472"
       fy="10.901535"
       r="10.55559" />
    <linearGradient
       id="linearGradient2617">
      <stop
         style="stop-color:#fbfbfa;stop-opacity:1;"
         offset="0"
         id="stop2619" />
      <stop
         style="stop-color:#d3d7cf"
         offset="1"
         id="stop2621" />
    </linearGradient>
    <radialGradient
       inkscape:collect="always"
       xlink:href="#linearGradient2609"
       id="radialGradient2959"
       gradientUnits="userSpaceOnUse"
       gradientTransform="matrix(0,1.925926,-2.100716,-2.103013e-6,39.43594,-89.54261)"
       cx="45.094624"
       cy="-2.6936908"
       fx="45.094624"
       fy="-2.6936908"
       r="10.498367" />
    <linearGradient
       inkscape:collect="always"
       id="linearGradient2609">
      <stop
         style="stop-color:#ffffff;stop-opacity:1"
         offset="0"
         id="stop2611" />
      <stop
         style="stop-color:#eeeeec"
         offset="1"
         id="stop2613" />
    </linearGradient>
    <linearGradient
       inkscape:collect="always"
       xlink:href="#linearGradient2670"
       id="linearGradient2961"
       gradientUnits="userSpaceOnUse"
       x1="42.04528"
       y1="4.5"
       x2="62.95472"
       y2="4.5" />
    <linearGradient
       inkscape:collect="always"
       id="linearGradient2670">
      <stop
         style="stop-color:#888a85;stop-opacity:1;"
         offset="0"
         id="stop2672" />
      <stop
         style="stop-color:#555753"
         offset="1"
         id="stop2674" />
    </linearGradient>
    <linearGradient
       inkscape:collect="always"
       xlink:href="#linearGradient2759"
       id="linearGradient2963"
       gradientUnits="userSpaceOnUse"
       x1="-19.5625"
       y1="31.99976"
       x2="-19.5625"
       y2="35.41238" />
    <linearGradient
       inkscape:collect="always"
       id="linearGradient2759">
      <stop
         style="stop-color:#ffffff;stop-opacity:1;"
         offset="0"
         id="stop2761" />
      <stop
         style="stop-color:#ffffff;stop-opacity:0;"
         offset="1"
         id="stop2763" />
    </linearGradient>
    <linearGradient
       inkscape:collect="always"
       xlink:href="#linearGradient2698"
       id="linearGradient2965"
       gradientUnits="userSpaceOnUse"
       x1="81.595871"
       y1="52.865707"
       x2="79.829956"
       y2="54.631626" />
    <linearGradient
       id="linearGradient2698">
      <stop
         style="stop-color:#555753"
         offset="0"
         id="stop2700" />
      <stop
         id="stop2706"
         offset="0.70238096"
         style="stop-color:#a3a5a2;stop-opacity:1;" />
      <stop
         style="stop-color:#888a85"
         offset="1"
         id="stop2702" />
    </linearGradient>
    <linearGradient
       inkscape:collect="always"
       xlink:href="#linearGradient2690"
       id="linearGradient2967"
       gradientUnits="userSpaceOnUse"
       x1="83.659676"
       y1="53.211559"
       x2="81.067772"
       y2="55.803459" />
    <linearGradient
       inkscape:collect="always"
       id="linearGradient2690">
      <stop
         style="stop-color:#2e3436"
         offset="0"
         id="stop2692" />
      <stop
         style="stop-color:#555753"
         offset="1"
         id="stop2694" />
    </linearGradient>
  </defs>
  <sodipodi:namedview
     id="base"
     pagecolor="#ffffff"
     bordercolor="#666666"
     borderopacity="1.0"
     inkscape:pageopacity="0.0"
     inkscape:pageshadow="2"
     inkscape:zoom="0.32"
     inkscape:cx="-176.92449"
     inkscape:cy="312.88005"
     inkscape:document-units="px"
     inkscape:current-layer="g4165"
     showgrid="false"
     inkscape:window-width="1243"
     inkscape:window-height="776"
     inkscape:window-x="37"
     inkscape:window-y="0"
     inkscape:window-maximized="1"
     fit-margin-top="0"
     fit-margin-left="0"
     fit-margin-right="0"
     fit-margin-bottom="0" />
  <metadata
     id="metadata7">
    <rdf:RDF>
      <cc:Work
         rdf:about="">
        <dc:format>image/svg+xml</dc:format>
        <dc:type
           rdf:resource="http://purl.org/dc/dcmitype/StillImage" />
        <dc:title></dc:title>
      </cc:Work>
    </rdf:RDF>
  </metadata>
  <g
     inkscape:groupmode="layer"
     id="layer2"
     inkscape:label="bg"
     transform="translate(2.28125,-22.03125)">
    <rect
       style="fill:#e5d620;fill-opacity:1;fill-rule:nonzero;stroke:#0f1080;stroke-width:21.8179493;stroke-miterlimit:4;stroke-opacity:1;stroke-dasharray:none"
       id="rect3125"
       width="800.16284"
       height="798.88361"
       x="8.6269913"
       y="32.930721"
       ry="45.598377" />
  </g>
  <g
     inkscape:groupmode="layer"
     id="layer3"
     inkscape:label="Réteg"
     transform="translate(2.28125,-22.03125)" />
  <g
     inkscape:label="1. réteg"
     inkscape:groupmode="layer"
     id="layer1"
     style="display:inline"
     transform="translate(2.28125,-22.03125)">
    <path
       style="fill:#0f1080;fill-opacity:1;filter:url(#filter3827)"
       d="m 322.34375,51.6875 c -11.31502,2.70992 -13.1376,16.206977 -16.25,25.5625 -67.85121,235.49728 -135.82436,471.07036 -203.1875,706.71875 -0.0938,7.99954 9.46233,10.46524 15.875,9.03125 111.14781,-0.94519 222.37813,1.67828 333.46875,-2.0625 6.91056,-0.41373 13.016,-5.6963 13.51101,-12.79166 15.46982,-43.05919 28.07294,-87.43475 43.83274,-130.23959 9.3655,-20.79554 31.795,-29.76135 50.44555,-40.17619 20.63654,-11.43555 40.79707,-23.26562 63.17945,-31.04256 29.38562,-11.19676 60.14008,-18.28368 90.21875,-26.96875 13.82184,-7.41223 -4.21582,-19.22356 -10.34375,-24.875 C 622.5966,450.30058 548.39364,368.38899 487.32158,276.81664 435.08011,202.90811 383.88797,128.19107 331,54.78125 c -2.35718,-2.054645 -5.44981,-3.406201 -8.65625,-3.09375 z m 15.53125,89.34375 c 48.58424,67.22659 96.05929,135.24372 144.03125,202.90625 -63.54237,0.91043 -127.08486,1.8188 -190.625,2.875 27.21998,23.74489 54.84216,47.03181 81.71875,71.25 -3.26603,27.09659 -9.47239,53.95064 -11.5625,81.21875 21.91379,27.55905 44.96775,54.42058 69.18432,79.88604 13.09092,13.02757 28.9044,22.72335 44.31568,32.80146 2.31194,2.95526 -2.97965,5.99351 -2.45238,9.28593 -13.42223,38.59576 -26.74878,77.22498 -40.29762,115.77657 -90.62319,-0.059 -181.2692,2.36544 -271.875,-0.375 9.64353,-32.42464 18.28081,-65.29401 27.80873,-97.8328 47.58222,-166.51974 95.74545,-332.91869 143.8232,-499.26674 1.20487,-8.85016 2.35871,-2.36268 5.93057,1.47454 z m 145.5625,237.4375 c 11.41978,1.31833 25.21045,1.55178 32.18541,12.33039 37.82734,42.31465 74.9541,85.06591 111.09584,128.82586 -37.78005,14.26515 -73.17989,33.71622 -108.8125,52.4375 -6.9675,3.16602 -14.75209,0.8717 -20.14343,-4.2023 -10.47171,-8.02418 -22.05537,-14.68874 -31.79407,-23.57895 -14.11715,-15.11216 -26.26094,-32.1213 -40.375,-47.34375 -5.58858,-6.9765 -12.65572,-13.71378 -15.8125,-21.9375 1.6785,-11.57903 13.16805,-17.67527 19.82945,-26.21739 19.63568,-20.44914 37.22152,-43.97649 47.3268,-70.50136 2.17098,-0.20414 4.33262,-0.0222 6.5,0.1875 z m -70.01786,-12.36161 c 2.32434,0.24045 45.14637,2.12205 41.33592,5.18041 -4.91528,5.82235 -35.57823,39.3916 -41.19752,43.76156 -7.78787,-6.2173 -36.91068,-42.48152 -44.64733,-48.90625 11.97917,-0.24978 32.52975,0.21298 44.50893,-0.0357 z"
       id="path3050"
       inkscape:connector-curvature="0"
       sodipodi:nodetypes="ccccccccccccccccccccccccccccccccccccccccccc" />
  </g>
  <g
     inkscape:groupmode="layer"
     id="layer4"
     inkscape:label="eye"
     transform="translate(2.28125,-22.03125)">
    <path
       sodipodi:type="arc"
       style="fill:#ff0000;fill-opacity:1;stroke:none;filter:url(#filter4188)"
       id="path3256"
       sodipodi:cx="453.5585"
       sodipodi:cy="411.92548"
       sodipodi:rx="49.497475"
       sodipodi:ry="36.36549"
       d="m 503.05598,411.92548 c 0,20.0841 -22.16078,36.36549 -49.49748,36.36549 -27.3367,0 -49.49747,-16.28139 -49.49747,-36.36549 0,-20.08411 22.16077,-36.36549 49.49747,-36.36549 27.3367,0 49.49748,16.28138 49.49748,36.36549 z"
       transform="matrix(0.9787415,0,0,0.83186091,-33.542046,41.791459)" />
  </g>
  <g
     style="display:inline"
     id="g4165"
     inkscape:groupmode="layer"
     inkscape:label="1. réteg másolata"
     transform="translate(2.28125,-22.03125)">
    <path
       sodipodi:nodetypes="ccccccccccccccccccccccccccccccccccccccccccc"
       inkscape:connector-curvature="0"
       id="path4167"
       d="m 322.34375,51.6875 c -11.31502,2.70992 -13.1376,16.206977 -16.25,25.5625 -67.85121,235.49728 -135.82436,471.07036 -203.1875,706.71875 -0.0938,7.99954 9.46233,10.46524 15.875,9.03125 111.14781,-0.94519 222.37813,1.67828 333.46875,-2.0625 6.91056,-0.41373 13.016,-5.6963 13.51101,-12.79166 15.46982,-43.05919 28.07294,-87.43475 43.83274,-130.23959 9.3655,-20.79554 31.795,-29.76135 50.44555,-40.17619 20.63654,-11.43555 40.79707,-23.26562 63.17945,-31.04256 29.38562,-11.19676 60.14008,-18.28368 90.21875,-26.96875 13.82184,-7.41223 -4.21582,-19.22356 -10.34375,-24.875 C 622.5966,450.30058 548.39364,368.38899 487.32158,276.81664 435.08011,202.90811 383.88797,128.19107 331,54.78125 c -2.35718,-2.054645 -5.44981,-3.406201 -8.65625,-3.09375 z m 15.53125,89.34375 c 48.58424,67.22659 96.05929,135.24372 144.03125,202.90625 -63.54237,0.91043 -127.08486,1.8188 -190.625,2.875 27.21998,23.74489 54.84216,47.03181 81.71875,71.25 -3.26603,27.09659 -9.47239,53.95064 -11.5625,81.21875 21.91379,27.55905 44.96775,54.42058 69.18432,79.88604 13.09092,13.02757 28.9044,22.72335 44.31568,32.80146 2.31194,2.95526 -2.97965,5.99351 -2.45238,9.28593 -13.42223,38.59576 -26.74878,77.22498 -40.29762,115.77657 -90.62319,-0.059 -181.2692,2.36544 -271.875,-0.375 9.64353,-32.42464 18.28081,-65.29401 27.80873,-97.8328 47.58222,-166.51974 95.74545,-332.91869 143.8232,-499.26674 1.20487,-8.85016 2.35871,-2.36268 5.93057,1.47454 z m 145.5625,237.4375 c 11.41978,1.31833 25.21045,1.55178 32.18541,12.33039 37.82734,42.31465 74.9541,85.06591 111.09584,128.82586 -37.78005,14.26515 -73.17989,33.71622 -108.8125,52.4375 -6.9675,3.16602 -14.75209,0.8717 -20.14343,-4.2023 -10.47171,-8.02418 -22.05537,-14.68874 -31.79407,-23.57895 -14.11715,-15.11216 -26.26094,-32.1213 -40.375,-47.34375 -5.58858,-6.9765 -12.65572,-13.71378 -15.8125,-21.9375 1.6785,-11.57903 13.16805,-17.67527 19.82945,-26.21739 19.63568,-20.44914 37.22152,-43.97649 47.3268,-70.50136 2.17098,-0.20414 4.33262,-0.0222 6.5,0.1875 z m -70.01786,-12.36161 c 2.32434,0.24045 45.14637,2.12205 41.33592,5.18041 -4.91528,5.82235 -35.57823,39.3916 -41.19752,43.76156 -7.78787,-6.2173 -36.91068,-42.48152 -44.64733,-48.90625 11.97917,-0.24978 32.52975,0.21298 44.50893,-0.0357 z"
       style="fill:#0f1080;fill-opacity:1" />
    <path
       style="opacity:1;fill:#8c8c8c;fill-opacity:1;stroke:none"
       d="m 178.5413,714.11937 -15.03182,-0.60013 12.10659,-42.53689 c 33.59109,-118.02344 158.47292,-551.89338 159.70417,-554.85123 0.58012,-1.39367 8.9524,9.6101 32.78472,43.08932 50.07157,70.33965 114.38757,161.3297 114.38757,161.828 0,0.24856 -24.73493,0.78223 -54.96651,1.18592 -95.41339,1.27411 -134.04133,2.1456 -133.72138,3.01694 0.17062,0.46465 14.72857,13.37249 32.351,28.68406 17.62242,15.31158 35.7635,31.20232 40.3135,35.31276 l 8.27274,7.47353 -4.72601,30.78812 c -2.59929,16.93347 -5.24028,35.13153 -5.86885,40.44015 l -1.14287,9.65202 12.5084,15.2072 c 28.96273,35.21168 55.83667,64.58225 68.19771,74.53341 4.61932,3.71875 14.02439,10.51001 20.90016,15.09169 8.82679,5.88175 12.34573,8.83448 11.97183,10.04553 -0.29126,0.94336 -9.91117,28.56317 -21.37759,61.37734 l -20.84803,59.66213 -14.87817,0.69813 c -17.85327,0.83771 -219.55434,0.75568 -240.93716,-0.098 l 0,0 z"
       id="path3113"
       inkscape:connector-curvature="0"
       transform="translate(-2.28125,22.03125)" />
    <g
       id="g2936"
       transform="matrix(8.9591128,0,0,8.9591128,-1311.4997,-221.97466)">
      <path
         transform="matrix(1.099732,0,0,1.099425,164.87291,38.531279)"
         d="m 62.5,4.5 c 0,5.522847 -4.477153,10 -10,10 -5.522847,0 -10,-4.477153 -10,-10 0,-5.5228475 4.477153,-10 10,-10 5.522847,0 10,4.4771525 10,10 z"
         sodipodi:ry="10"
         sodipodi:rx="10"
         sodipodi:cy="4.5"
         sodipodi:cx="52.5"
         id="path2883"
         style="opacity:0.19607843;color:#000000;fill:none;stroke:url(#radialGradient2951);stroke-width:1.81887877;stroke-linecap:round;stroke-linejoin:miter;stroke-miterlimit:4;stroke-opacity:1;stroke-dasharray:none;stroke-dashoffset:0;marker:none;visibility:visible;display:inline;overflow:visible"
         sodipodi:type="arc" />
      <path
         inkscape:connector-curvature="0"
         style="opacity:0.2627451;color:#000000;fill:none;stroke:url(#linearGradient2953);stroke-width:2;stroke-linecap:round;stroke-linejoin:round;stroke-miterlimit:4;stroke-opacity:1;stroke-dasharray:none;stroke-dashoffset:0;marker:none;visibility:visible;display:inline;overflow:visible"
         d="m 214.50671,51.538379 -3.75,1 -1.25,1.25 0,5.4375 c 1.39751,-1.397532 3.93717,-3.937249 3.96875,-3.96875 l 1.03125,-3.71875 z"
         id="path2694" />
      <g
         id="g1746"
         transform="translate(195.61151,12.484439)">
        <g
           id="g1733">
          <path
             transform="matrix(0.811406,0,0,0.811406,-27.69436,-2.759138)"
             d="M 76,39.75 C 76,44.858634 71.858634,49 66.75,49 61.641366,49 57.5,44.858634 57.5,39.75 c 0,-5.108634 4.141366,-9.25 9.25,-9.25 5.108634,0 9.25,4.141366 9.25,9.25 z"
             sodipodi:ry="9.25"
             sodipodi:rx="9.25"
             sodipodi:cy="39.75"
             sodipodi:cx="66.75"
             id="path2625"
             style="color:#000000;fill:url(#radialGradient2955);fill-opacity:1;fill-rule:nonzero;stroke:none;stroke-width:2.5;marker:none;visibility:visible;display:inline;overflow:visible"
             sodipodi:type="arc" />
          <path
             transform="matrix(0.974184,0,0,0.975571,-24.67502,25.11888)"
             d="m 62.5,4.5 c 0,5.522847 -4.477153,10 -10,10 -5.522847,0 -10,-4.477153 -10,-10 0,-5.5228475 4.477153,-10 10,-10 5.522847,0 10,4.4771525 10,10 z"
             sodipodi:ry="10"
             sodipodi:rx="10"
             sodipodi:cy="4.5"
             sodipodi:cx="52.5"
             id="path2607"
             style="color:#000000;fill:none;stroke:url(#radialGradient2957);stroke-width:2.56442523;stroke-linecap:round;stroke-linejoin:miter;stroke-miterlimit:4;stroke-opacity:1;stroke-dasharray:none;stroke-dashoffset:0;marker:none;visibility:visible;display:inline;overflow:visible"
             sodipodi:type="arc" />
          <path
             transform="matrix(1.004337,0,0,1.002216,-26.2607,25.00091)"
             d="m 62.5,4.5 c 0,5.522847 -4.477153,10 -10,10 -5.522847,0 -10,-4.477153 -10,-10 0,-5.5228475 4.477153,-10 10,-10 5.522847,0 10,4.4771525 10,10 z"
             sodipodi:ry="10"
             sodipodi:rx="10"
             sodipodi:cy="4.5"
             sodipodi:cx="52.5"
             id="path2605"
             style="color:#000000;fill:none;stroke:url(#radialGradient2959);stroke-width:1.09640825;stroke-linecap:round;stroke-linejoin:miter;stroke-miterlimit:4;stroke-opacity:1;stroke-dasharray:none;stroke-dashoffset:0;marker:none;visibility:visible;display:inline;overflow:visible"
             sodipodi:type="arc" />
          <path
             transform="matrix(1.099732,0,0,1.099425,-31.26893,24.54684)"
             d="m 62.5,4.5 c 0,5.522847 -4.477153,10 -10,10 -5.522847,0 -10,-4.477153 -10,-10 0,-5.5228475 4.477153,-10 10,-10 5.522847,0 10,4.4771525 10,10 z"
             sodipodi:ry="10"
             sodipodi:rx="10"
             sodipodi:cy="4.5"
             sodipodi:cx="52.5"
             id="path2599"
             style="color:#000000;fill:none;stroke:url(#linearGradient2961);stroke-width:0.90943909;stroke-linecap:round;stroke-linejoin:miter;stroke-miterlimit:4;stroke-opacity:1;stroke-dasharray:none;stroke-dashoffset:0;marker:none;visibility:visible;display:inline;overflow:visible"
             sodipodi:type="arc" />
          <path
             transform="matrix(0.499998,0,0,0.6,-8.78287,4.04133)"
             d="m 67.5,37.5 c 0,1.380712 -1.343146,2.5 -3,2.5 -1.656854,0 -3,-1.119288 -3,-2.5 0,-1.380712 1.343146,-2.5 3,-2.5 1.656854,0 3,1.119288 3,2.5 z"
             sodipodi:ry="2.5"
             sodipodi:rx="3"
             sodipodi:cy="37.5"
             sodipodi:cx="64.5"
             id="path2657"
             style="color:#000000;fill:#ffffff;fill-opacity:1;fill-rule:nonzero;stroke:none;stroke-width:2.5;marker:none;visibility:visible;display:inline;overflow:visible"
             sodipodi:type="arc" />
          <path
             transform="matrix(1,0,0,1.777776,45.96699,-33.8475)"
             d="m -14,34.25 c 0,1.242641 -2.462434,2.25 -5.5,2.25 -3.037566,0 -5.5,-1.007359 -5.5,-2.25 0,-1.242641 2.462434,-2.25 5.5,-2.25 3.037566,0 5.5,1.007359 5.5,2.25 z"
             sodipodi:ry="2.25"
             sodipodi:rx="5.5"
             sodipodi:cy="34.25"
             sodipodi:cx="-19.5"
             id="path2735"
             style="opacity:0.8;color:#000000;fill:url(#linearGradient2963);fill-opacity:1;fill-rule:nonzero;stroke:none;stroke-width:1;marker:none;visibility:visible;display:inline;overflow:visible"
             sodipodi:type="arc" />
        </g>
        <g
           id="g2708"
           transform="matrix(0,1,-1,0,67.94781,-38.97906)">
          <path
             inkscape:connector-curvature="0"
             sodipodi:nodetypes="cccssssssccc"
             id="path2682"
             d="m 76.5,49.46875 1,3.75 5.15625,5.125 c 0.0094,0.01362 0.02053,0.05043 0.03125,0.0625 0.0057,0.0057 0.02527,0.02598 0.03125,0.03125 0.07544,0.05872 0.200154,0.08632 0.3125,0.09375 0.440353,0.01306 1.118346,-0.304585 1.65625,-0.84375 0.678224,-0.679818 0.975784,-1.511735 0.75,-1.9375 -0.0084,-0.01422 -0.02153,-0.04925 -0.03125,-0.0625 -0.0052,-0.0064 -0.02573,-0.02513 -0.03125,-0.03125 0,0 -5.115323,-5.115227 -5.15625,-5.15625 L 76.5,49.46875 z"
             style="color:#000000;fill:url(#linearGradient2965);fill-opacity:1;fill-rule:nonzero;stroke:url(#linearGradient2967);stroke-width:1.04188347;stroke-linecap:round;stroke-linejoin:round;stroke-miterlimit:4;stroke-opacity:1;stroke-dashoffset:0;marker:none;visibility:visible;display:inline;overflow:visible" />
          <path
             inkscape:connector-curvature="0"
             sodipodi:nodetypes="csccc"
             id="path2687"
             d="m 79.925079,50.989164 c 0.269696,0.270331 0.05081,0.928529 -0.48858,1.469193 -0.539399,0.540663 -1.208169,0.747316 -1.465753,0.489732 L 77.25,50.235297 l 2.675079,0.753867 z"
             style="opacity:0.19215686;color:#000000;fill:#ffffff;fill-opacity:1;fill-rule:nonzero;stroke:none;stroke-width:0.99999964;marker:none;visibility:visible;display:inline;overflow:visible" />
        </g>
      </g>
    </g>
  </g>
  <g
     transform="translate(2.28125,-22.03125)"
     inkscape:label="1. réteg másolata copy"
     inkscape:groupmode="layer"
     id="g4384"
     style="display:inline">
    <path
       style="opacity:0.76033056;fill:#0f1080;fill-opacity:1;filter:url(#filter3224)"
       d="m 322.34375,51.6875 c -11.31502,2.70992 -13.1376,16.206977 -16.25,25.5625 -67.85121,235.49728 -135.82436,471.07036 -203.1875,706.71875 -0.0938,7.99954 9.46233,10.46524 15.875,9.03125 111.14781,-0.94519 222.37813,1.67828 333.46875,-2.0625 6.91056,-0.41373 13.016,-5.6963 13.51101,-12.79166 15.46982,-43.05919 28.07294,-87.43475 43.83274,-130.23959 9.3655,-20.79554 31.795,-29.76135 50.44555,-40.17619 20.63654,-11.43555 40.79707,-23.26562 63.17945,-31.04256 29.38562,-11.19676 60.14008,-18.28368 90.21875,-26.96875 13.82184,-7.41223 -4.21582,-19.22356 -10.34375,-24.875 C 622.5966,450.30058 548.39364,368.38899 487.32158,276.81664 435.08011,202.90811 383.88797,128.19107 331,54.78125 c -2.35718,-2.054645 -5.44981,-3.406201 -8.65625,-3.09375 z m 15.53125,89.34375 c 48.58424,67.22659 96.05929,135.24372 144.03125,202.90625 -63.54237,0.91043 -127.08486,1.8188 -190.625,2.875 27.21998,23.74489 54.84216,47.03181 81.71875,71.25 -3.26603,27.09659 -9.47239,53.95064 -11.5625,81.21875 21.91379,27.55905 44.96775,54.42058 69.18432,79.88604 13.09092,13.02757 28.9044,22.72335 44.31568,32.80146 2.31194,2.95526 -2.97965,5.99351 -2.45238,9.28593 -13.42223,38.59576 -26.74878,77.22498 -40.29762,115.77657 -90.62319,-0.059 -181.2692,2.36544 -271.875,-0.375 9.64353,-32.42464 18.28081,-65.29401 27.80873,-97.8328 47.58222,-166.51974 95.74545,-332.91869 143.8232,-499.26674 1.20487,-8.85016 2.35871,-2.36268 5.93057,1.47454 z m 145.5625,237.4375 c 11.41978,1.31833 25.21045,1.55178 32.18541,12.33039 37.82734,42.31465 74.9541,85.06591 111.09584,128.82586 -37.78005,14.26515 -73.17989,33.71622 -108.8125,52.4375 -6.9675,3.16602 -14.75209,0.8717 -20.14343,-4.2023 -10.47171,-8.02418 -22.05537,-14.68874 -31.79407,-23.57895 -14.11715,-15.11216 -26.26094,-32.1213 -40.375,-47.34375 -5.58858,-6.9765 -12.65572,-13.71378 -15.8125,-21.9375 1.6785,-11.57903 13.16805,-17.67527 19.82945,-26.21739 19.63568,-20.44914 37.22152,-43.97649 47.3268,-70.50136 2.17098,-0.20414 4.33262,-0.0222 6.5,0.1875 z m -70.01786,-12.36161 c 2.32434,0.24045 45.14637,2.12205 41.33592,5.18041 -4.91528,5.82235 -35.57823,39.3916 -41.19752,43.76156 -7.78787,-6.2173 -36.91068,-42.48152 -44.64733,-48.90625 11.97917,-0.24978 32.52975,0.21298 44.50893,-0.0357 z"
       id="path4386"
       inkscape:connector-curvature="0"
       sodipodi:nodetypes="ccccccccccccccccccccccccccccccccccccccccccc" />
  </g>
  <g
     inkscape:groupmode="layer"
     id="layer5"
     inkscape:label="Layer" />
</svg>
